<mxfile host="app.diagrams.net" modified="2022-03-21T11:56:51.734Z" agent="5.0 (X11; Linux x86_64) AppleWebKit/537.36 (KHTML, like Gecko) Chrome/99.0.4844.74 Safari/537.36" etag="wXORUqTgNW3Db09EGY0U" version="17.1.3" type="github">
  <diagram id="-mjJf-thvPdkejWjjgp1" name="Page-1">
    <mxGraphModel dx="2295" dy="2009" grid="1" gridSize="10" guides="1" tooltips="1" connect="1" arrows="1" fold="1" page="1" pageScale="1" pageWidth="827" pageHeight="1169" math="0" shadow="0">
      <root>
        <mxCell id="0" />
        <mxCell id="1" parent="0" />
        <mxCell id="dS9Y3KVstCxcGpfshx9A-1" value="" style="shape=image;verticalLabelPosition=bottom;labelBackgroundColor=default;verticalAlign=top;aspect=fixed;imageAspect=0;image=data:image/png,iVBORw0KGgoAAAANSUhEUgAABj8AAAN/CAYAAACBWsptAAAABHNCSVQICAgIfAhkiAAAABl0RVh0U29mdHdhcmUAZ25vbWUtc2NyZWVuc2hvdO8Dvz4AAAAuaVRYdENyZWF0aW9uIFRpbWUAAAAAANCf0L0gMjEg0LzQsNGAIDIwMjIgMTQ6NTM6NTcRaB4VAAAgAElEQVR4nOzdeXQUVdrH8V8IIWBYI/sEEURE9h0iIAaCCCqiIwq4CyogMIqIC4iMIDIzgDooAwqIKCqOsgkYZBHEQfawiGwKgkCAhE2JLFnq/YNDv+mkl6pe0p3K93NOzkl33br39q37VHfX01UVYRiGIQAAAAAAAAAAAJsoEuoOAAAAAAAAAAAABBLJDwAAAAAAAAAAYCskPwAAAAAAAAAAgK2Q/AAAAAAAAAAAALZC8gMAAAAAAAAAANgKyQ8AAAAAAAAAAGArJD8AAAAAAAAAAICtkPwAAAAAAAAAAAC2QvIDAAAAAAAAAADYCskPAAAAAAAAAABgKyQ/AAAAAAAAAACArZD8AAAAAAAAAAAAtkLyAwAAAAAAAAAA2ArJDwAAAAAAAAAAYCskPwAAAAAAAAAAgK2Q/AAAAAAAAAAAALZC8gMAAAAAAAAAANgKyQ8AAAAAAAAAAGArJD8AAAAAAAAAAICtkPwAAAAAAAAAAAC2QvIDAAAAAAAAAADYCskPAAAAAAAAAABgKyQ/AAAAAAAAAACArZD8AAAAAAAAAAAAtkLyAwAAAAAAAAAA2ArJDwAAAAAAAAAAYCskPwAAAAAAAAAAgK2Q/AAAAAAAAAAAALZC8gMAAAAAAAAAANgKyQ8AAAAAAAAAAGArJD8AAAAAAAAAAICtkPwAAAAAAAAAAAC2QvIDAAAAAAAAAADYCskPAAAAAAAAAABgKyQ/AAAAAAAAAACArZD8AAAAAAAAAAAAtkLyAwAAAAAAAAAA2ArJDwAAAAAAAAAAYCskPwAAAAAAAAAAgK2Q/AAAAAAAAAAAALZC8gMAAAAAAAAAANgKyQ8AAAAAAAAAAGArJD8AAAAAAAAAAICtkPwAAAAAAAAAAAC2QvIDAAAAAAAAAADYCskPAAAAAAAAAABgKyQ/AAAAAAAAAACArZD8AAAAAAAAAAAAtkLyAwAAAAAAAAAA2ArJDwAAAAAAAAAAYCskPwAAAAAAAAAAgK2Q/AAAAAAAAAAAALZC8gMAAAAAAAAAANhK0VB3AAAAAACCKTMzU1999ZWSk5P1448/qmrVqmrcuLFuu+02xcXFhbp7AAAAAIKA5AcAAAAA29q8ebP69u2rrVu35lkWExOjMWPGaNCgQYqMjAxB7wAAAAAES4RhGEaoOwEAAAAAgfbjjz+qefPmunjxosdyzz77rCZOnJhPvQIAAACQH0h+AAAA2EhqaqqaNm0a6m44dO7cWdOmTQt1N1AIXbp0SS1bttS2bdu8lo2IiNCKFSuUkJCQDz2DHXTr1k3Jycmmy7dt21affvppEHsEAACA3LjsFQAAgI1kZ2fr8OHDoe6Gw8mTJ0PdBRRS//vf/0wlPiTJMAz95z//IfkB01JTUy3ta9PS0oLYGwAAALhSJNQdAAAAAIBA27x5s6XyGzduDFJPAAAAAIQCyQ8AAAAAtnPo0CFL5Y8cOaLs7Owg9QYAAABAfiP5AQAAAMB2GjZsaKl8/fr1VaQIX48AAAAAu+DTPQAAAADbadWqlaXyrVu3DlJPAAAAAIQCyQ8AAAAAttOgQQM99thjpsrGxsZqxIgRQe4RAAAAgPxE8gMAAACALb399ttq0KCBxzLR0dGaPn26qlatmk+9AgAAAJAfSH4AAAAAsKVSpUpp06ZNevXVVxUdHZ1neUJCgrZv367u3buHoHcAAAAAgqloqDsAAACA0KpTp47Kli0blLpr164dlHoBs4oVK6ZRo0bp5Zdf1k8//aSffvpJVapUUaNGjRQbGxvq7gEAAAAIEpIfAAAAhdxbb72lzp07h7obQFAVK1ZMjRs3VuPGjUPdFQAAAAD5gMteAQAAAAAAAAAAWyH5AQAAAAAAAAAAbIXkBwAAABAkWVlZunDhQqi7EZays7P1559/hrobQZWenq6MjIxQd8OjcJ6jBWH8AAAAEL645wcAAADyVUpKiuWD3tddd51PbV26dEm//fab6fKVKlVSyZIlLbeTnp6uVatWKSkpSbt27dLx48d1/PhxnTx5UtnZ2YqJiVH58uV19dVXq379+mrfvr1uvvlm1apVy3JbOWVlZenXX381Xb5mzZqKiIhwu3z//v36/vvvlZycrJSUFJ06dUpff/21IiMjfe7jhQsX9N1332np0qXatm2bTpw4oePHjystLU3Z2dkqWrSoSpcurXLlyqlu3bqO+3J06NBBZcuW9bldSTp8+LAuXrxoqmyVKlV01VVX+dTO5s2btWbNGm3evFnJyck6fvy4zpw5o8zMTElS8eLFVbJkSVWvXl1169ZV3bp11bFjRzVv3tzj9gikUM1RMwrC+AEAAKDgiTAMwwh1JwAAABAYx48fV+XKlS2tk5SUlK83PP/000/Vu3dvS+vMmjVLDz30kOW2RowYoddff91U2bi4OO3YscP0Affs7GzNmTNHM2bM0Jo1a0wfZM+pevXqGjRokJ544gmVLl3a8vpWt/e5c+cUExOT5/lVq1ZpwoQJWrx4sXJ/PcjMzLSc/DAMQwsXLtTkyZP13Xff+XRmQbFixdS1a1f17t1b3bt3V1RUlOU64uPjtW7dOlNlrcZBWlqapk6dqo8++kh79uyx3DdJqlatmu677z4NHTrUctyaEQ5z1J2CMH6eWJlbkpSYmKhly5YFsUcAAADIjcteAQAAIF/16tVLd955p6V1hgwZopMnT1paZ8+ePfrXv/5luvz06dNNJT4Mw9AXX3yhhg0bqnfv3lq+fLlPB5Ul6eDBgxo6dKiqVaum559/Xn/88YdP9fhqx44datq0qRISErRo0aI8iQ+rDMPQvHnz1LRpU3Xv3l3ffPONz5dUunTpkubPn6/77rtPDRo00OLFi/3qW6BkZGTorbfe0vXXX68RI0b4fOBekn777TdNmDBBtWrV0vDhw32eR7mF8xwtCOMHAAAAeyD5AQAAgHw3ZcoUlSlTxnT5tLQ0DRs2zFIbAwYM0KVLl0yV7d+/v2699Vav5Q4ePKjWrVurR48e2rlzp6X+ePL7779r/PjxatKkiTZt2hSwej353//+p/bt2ys5OTkg9R05ckRt27bVPffco61btwakziv27NmjO+64Q126dNGpU6cCWrcVJ06cUNu2bfXss8/qzJkzAas3PT1dY8eOVYcOHZSamupXXeE8RwvC+AEAAMA+SH4AAAAg31WtWlXjx4+3tM6MGTO0evVqU2U/+eQTrVy50lTZ6667ztQZIitWrFDz5s21YcMGU/X64pdfftFNN92kt956K2htSNKSJUvUqVMnnT59OiD1ffvtt2ratKnWrl0bkPrcSUpKUtu2bXXo0KGgtuPKvn37FB8fH9Ttv3btWrVq1UonTpzwaf1wnqMFYfwAAABgLyQ/AAAAEBJ9+/ZVx44dLa3Tr18/r2dznD17Vs8995yp+ooUKaIPP/zQ5X0wcnrnnXfUuXNnpaWlme6rrzIyMvTss8/qnXfeCUr9Bw4c0L333qvz588HpL7JkyerU6dO+XbAedeuXYqPj9f+/fvzpT1JOn/+vLp3754vbR44cECPPPKI5UuQhfMcLQjjBwAAAPsh+QEAAICQef/9970mHnLavXu3/vGPf3gsM3z4cB07dsxUfUOHDlWbNm08lvnyyy81ePBgZWVlme5nIDzzzDNatGhRQOs0DEMDBw4MWOJjwYIFGjRoUL6PzdGjR/Xggw/mW7vPP/+8fvrpp3xpS7p8hsu7775runy4z9FwHz8AAADYU4TBT2IAAABs4/jx46pcubKldZKSktS5c+cg9ci7t99+W88884zp8tHR0dq+fbtq166dZ9nmzZvVsmVLZWdne62nXr162rx5s6Kjo92W2bp1q9q2bav09HTT/ZOkEiVKqHnz5qpSpYqioqJ08uRJ7dq1SwcPHrRUT0xMjDZs2KC6deu6XG51e3/44Yd65JFHLPUhMzNTkZGReZ5PTk5Wu3btLI9NII0aNUqvvvqq2+Xx8fFat26dqbrcxcGvv/6qmjVrWjqToG7durr++utVvXp1/fHHHzp06JC2bdtm6ayMa665Rvv373c59jmF+xwN9/HzlZW5JUmJiYlatmxZUPoCAAAA14qGugMAAAAIraSkJB0+fDggdT3++OOKiIiwtM6gQYM0Z84c/fDDD6bKX7x4Uf3799eKFSucns/Ozla/fv1MJT6ioqI0a9Ysj4mPU6dOqVu3bpYOKjdu3FgjR45U165dXdb9yy+/6N///remTp2qixcveq0vPT1dw4YNC9gZIM8//3xA6jl9+rTuvPNOnxMfcXFxiouLU5kyZXT48GHt37/fp7NRxowZo4cfflg1atTwqR9mfPDBB6YP3Ldr107/+Mc/FB8fn2fZ+fPnNW3aNI0cOdLUzb4PHTqkhQsX6u6773ZbpiDM0XAePwAAANicAQAAANs4duyYISlkf5mZmT71e9euXUZ0dLSltmbNmuVUx7vvvmt63ddee81rn55//nlL/XnxxReNrKwsU69348aNRlxcnOm616xZ47Ke/NjerrbpsGHDLNcTExNjvPLKK8ZPP/2Up77s7Gxj7969xmOPPWZERkZaqvell15yO86tW7c2XU9SUpLLOmrVqmVq/aZNmxrp6elet/3SpUtNv8Z7773XY10FYY6G8/j5w8rckmQkJiYGrS8AAABwjXt+AAAAIOTq1KmjkSNHWlpnyJAhOnnypKTLl38aPny4qfWaN2+ul156yWOZo0ePWrrh+N///ne98cYbKlLE3Mfr5s2ba9GiRSpRooSp8t76GyilSpVSs2bN1K1bN/Xs2dPlmTxHjhzRpEmTLNXbrl077dq1S6+99ppuvPHGPMsjIiJ0/fXXa8aMGdq5c6fi4uJM1z19+nRlZGRY6o9ZmZmZpm/S/eqrr+qqq67yWu7WW2/VE088YarOTZs2uV1WEOZoOI8fAAAA7I/kBwAAAMLCsGHD1KRJE9Pl09LSNGzYMEmXb1xu5lI4xYsX16xZs1S0qOerv44ePdr0ZZhuvfVWy4kbSWrUqJFGjBhhquz333+v5ORky22Y0b59e02aNEkHDhzQ77//rk2bNmnBggX69NNPNX369DwHy0eNGmXpElUdO3ZUUlKSqlWrZqr8DTfcoLlz53q8JFlOJ06cCPiN4a84cuSIqcuoSVLTpk1N13v//febKvfrr786Eny5FYQ5Gs7jBwAAAPvjnh8AAAAIC0WLFtWMGTPUokULZWZmmlpnxowZuuaaa/Txxx+bKj927FiXZx7kdObMGU2fPt1UfUWKFNGbb75pqqwrAwcO1Lhx4/THH394Lbt06VJLySFvGjVqpLfeeku33HKL6XXOnj2rDz/80HT5ChUq6LPPPjP1i/6cWrRooTfeeENDhgwxVX7Dhg1BubfD8ePHTZfdv3+/6TNW2rVrZ3rOulJQ5mi4jh8AAAAKB5IfAAAACBuNGzfWsGHDNHbsWNPrjBo1ylS5m2++WX/729+8llu2bJnpyyi1bNlSdevWNVXWldKlSysxMVHz5s3zWjYpKUkvvviiz23l1LlzZ82bN8/0JY2uWLp0qaVLTI0fP17ly5e32j1J0gMPPKChQ4eaOnNg+/btPrXhTenSpU2X/eCDD3TzzTebKhsZGakHHnjA124VmDkaruMHAACAwoHLXgEAACCsjBw50uvZGVaVLFlSM2fONHW/g8WLF5uut2vXrv50S5LUoUMHU+XWrl1r6tf33jRq1EgLFy60nPiQrI1NxYoV1bNnT8tt5Fy/TZs2pspu27bN53Y8iY2NNV125syZuueee7Rz586g9CWngjJHw3X8AAAAUDhw5gcAAADCSnR0tKZPn662bduavl+ANxMnTlSNGjW8ljMMQ0lJSabrDcSB5euvv95UuYyMDK1fv16JiYl+tffOO++oWLFiltfLzs7W119/bbr8gw8+6FM7OY0cOVKrV682VTYzM9PrvVysKl++vMqWLWvqfjKSNG/ePM2bN08NGjRQYmKiWrVqpYYNG6pWrVqKiooKSJ8K0hwNx/EDAABA4UHyAwAAAGEnPj5egwYN0ttvv+13XV26dNETTzxhquzevXtN36cgKipKGzZs0KZNm/zpng4fPmy67LFjx/xqq3Xr1mrbtq1P6+7bt0+pqammy7dv396ndnJKTEz0O9njjyJFiighIcHUJZ9y2rFjh3bs2OF4XLRoUd1www2qX7++6tevr0aNGqlt27YqV66c5T4VpDkajuMHAACAwoPkBwAAQCHXvn17ValSJSB1RUREBKQeSXr99de1cOFCHThwwOc6ypUrp2nTppkun5KSYrpsRkaGBgwY4Eu3fHbixAm/1r/jjjt8Xtdq4qVly5Y+txVOunXrZvngfW6ZmZnauXOndu7cqTlz5ki6nBho0KCBOnbsqAceeEBNmzY1VVdBm6PhNn4AAAAoPEh+AAAAFHIvvfSSOnfuHOpu5BETE6P333/fr1/+v/vuu6patarp8mZ/UR8qVs68cMXXsz4ka2NTokQJVa5c2ee2wsmDDz6ocePGac+ePQGtNzs7W9u2bdO2bds0ceJE1a9fX88++6weffRRj/emKWhzNNzGDwAAAIUHnwoBAAAQtjp27Ki+ffv6tO4tt9yiXr16WVon3A8s+3vmR6VKlXxe18rY2OlyREWLFtWkSZMCfj+R3H788Uf16dNHzZo10/r1692WK2hzNNzGDwAAAIUHyQ8AAACEtREjRvi03rp16yz/2tzf5EKwnT592q/1y5cv7/O6Vg66ly5d2ud2wlGnTp300Ucf5csZBVu3blVCQoK++uorl8sL4hwNp/EDAABA4UHyAwAAAGFt1KhRPq134cIFPf7448rOzja9TmZmpk9t5RfDMPxav0SJEj6vG+5jE2w9e/bUihUrdN111wW9rfPnz+uee+7RqlWr8iwL9+3gbo6Gy/gBAACg8CD5AQAAgLC1ePFizZw50+f1165dq7ffftt0+QoVKvjclt1ZOWvk999/D2JPQueWW27R9u3b9frrr6tatWpBbSszM1NPPvmkLly44PR8QZ6j4TB+AAAAKDy44TkAAADC0pkzZ/Tkk0/6Xc/w4cN15513qlatWl7LVqxY0XS91157rYYOHepP1yyrUaNGvraXk5WxOXv2bBB7ElpXXXWVXn75Zb3wwgtatGiR5s2bp2+++UYpKSkBb2vfvn167733NHjwYMdzBX2Ohnr8AAAAUHiQ/AAAAEBYGjx4sI4ePep3PefPn9fjjz+u1atXKyIiwmNZKzcEL1KkiJ5++ml/u1dgWBmb9PR0nTp1SrGxsUHsUWhFRkbqrrvu0l133SXp8g23161bp23btmn79u3avn27zpw543c7c+fOdTp4b5c5GqrxAwAAQOFB8gMAAABh56uvvtJHH30UsPrWrFmjd955R4MGDfJYzsqv6g8fPqzs7Ox8uYlzOLAyNpK0ZcsWJSYm+t3u+vXrTR0Eb9asmV83dPdX/fr1Vb9+fafnDh8+rB9//FEbNmzQ6tWr9d1331m+Z8f333+v06dPq1y5cpLsO0fza/wAAABQeJD8AAAAQFg5depUQC53ldtLL72k22+/XTVr1nRbpk6dOipRooTOnz/vtb5Lly4pOTlZzZo1C2Q3w1bt2rVVrFgxXbp0yVT59evXByT5cffdd5u6JFJycnJIkx+uxMXFKS4uTrfddpuky3P7P//5j8aOHas///zTVB1ZWVk6cOCA4+B9YZqjwRg/AAAAFB7h/xMgAAAAFCqDBw/WsWPHTJWtV6+e6XrT09PVp08fGYbhtkzx4sWVkJBgus5vvvnGdNmCLiYmRu3atTNd/pNPPvG7zcOHD5tKfERERKh27dp+txdssbGxGj58uH744QeVLl3a9HrHjx93/F+Y52ggxg8AAACFB2d+AAAAIGzMnz9fs2fPNlW2bdu2WrRokerVq6cjR46YWmfVqlWaMmWK+vfv77ZM165dtWTJElP1zZgxQ8OGDVNkZKSp8q5cuHBBjz76qLKysryWvfvuu9W7d2+f2/JX165dtWLFClNlf/rpJ/3vf/9TmzZtfG7v448/NlWuWrVquuqqq3xux53BgwcrIyPDa7kePXqoQ4cOputt2LChevbsqffee89U+bS0NKfHBWWOhuv4AQAAoHAg+QEAAICwcPLkSfXr189U2ejoaL3//vsqU6aMJk2apHvuucd0O8OGDVPXrl1VvXp1l8u7dOliuq6ff/5Zn332mR544AHT6+Q2d+5czZkzx1TZXr16+dxOIHTp0kXPPfec6fKDBw/W+vXrVbSo9a8dKSkpeuutt0yVjY+Pt1y/GUlJSdq3b5/XcufOnbN08F6Sbr75ZtMH78uUKeP0uKDM0XAdPwAAABQOXPYKAAAAYWHgwIGmL0/zyiuvqE6dOpIu/9K8W7dupts5d+6c+vbt63Z5zZo11alTJ9P1DR48WAcPHjRdPifDMDRlyhTT5a1cdioYbrzxRrVq1cp0+S1btmj48OGW28nMzNR9991nej4E62yY6667zlS5lStXKjs721LdJ06cMF22SpUqTo8LyhwN1/EDAABA4cCZHwAAAIXcmDFjNG3atKDVX6pUKc2YMcNjmblz5+qzzz4zVV+DBg00bNgwp+feeecdrVy5UufOnTNVx/Lly/X+++/riSeecLn8jTfe0PLlyz3eH+SKU6dO6fbbb9eSJUt0zTXXmGr/ikGDBmnNmjWmyjZv3lwVKlSwVH8wvPHGG5Z+pf/Pf/5TmZmZ+sc//mHqDJBz585p8ODB+v77703VX65cOccNsQOtbt26SkpK8lru6NGjGj9+fJ556cny5ctNl61atWqe5wrCHA3n8QMAAEAhYAAAAMA2jh07ZkgKq7/y5ct77HNqaqpRsWJFU3UVKVLEWL9+vct63nzzTUv9Kl26tHHo0CG3/brvvvss1VepUiVj9uzZRlZWltftdOjQIaNv376W6v/kk0/83t7nzp3z2jczbr31Vsvz4MYbbzTmzp1rXLhwwWWdmZmZxvvvv29UrlzZUr0vvPCC2362bt3adD1JSUl51l+7dq3p9aOioozFixebGr8JEyZYGjd3wn2Ohvv4+cPK3JJkJCYmBqUfAAAAcC/CMEz8VAgAAAAFwvHjx1W5cuVQd8NJ+fLllZqa6nb5/fffr88//9xUXc8884zefPNNl8uysrLUsmVLbdmyxXTfOnfu7PaX6T///LOaNGli+mySK2644Qbdc889SkhIULVq1RQbG6szZ87o0KFDOnTokFauXKk5c+YoMzPTdJ01atTQvn378ty02ur2PnfunGJiYkyXdyc5OVmtWrUydTPr3GJiYtS2bVvFxcUpNjZWR48e1e7du7V7926lp6dbqusvf/mLdu/erZIlS7pcHh8fr3Xr1pmqKykpSZ07d87zfM2aNXXgwAHTferUqZOef/55tWrVSqVLl5YkXbp0SSkpKdq4caMmTZqk7777znR9I0aM0OjRo10uKwhzNJzHzx9W5pYkJSYmatmyZQHvBwAAANwj+QEAAGAjBS358d///lf33XefqXqqV6+unTt3ejx4v3nzZrVq1UpZWVmm+zd9+nQ9/vjjLpctXrxYd911l6X6gmH+/Pm666678jwfquSHJM2YMUN9+vQJSF2+mjNnjsf5E4jkx+TJk/X000/71L+YmBhFR0fr9OnTpi5PlVtUVJR27NihG264wW2ZcJ+j4T5+viL5AQAAEP644TkAAABCIjU11dJB0alTp3o9cN+sWTMNHDjQUj+GDBmiI0eOuFx2++23uz3TJL8MGTLE5UHlUHv88cf14osvhqz9p59+2nTizB/9+vXTTTfd5NO66enpOnXqlE8H7qXL297bgftwn6PhPn4AAACwL5IfAAAACIn+/ft7vBxWTg899JDLX+W7Mnr0aMXFxZnux9mzZ/XUU0+5XT5o0CCNHDlSERERpusMlC5dumjcuHH53q5ZY8eO1WOPPZbv7T7wwAOaNGlSvrRVpEgRTZ8+XbGxsfnS3hW1a9fWyJEjTZUN5zlaEMYPAAAA9kTyAwAAAPluzpw5+vLLL02VrVChgiZOnGi67lKlSlk+ML548WLNmjXL7fK///3vWrhwYb4ewH3yySe1cOFCRUVF5VubVkVERGjGjBmaMmWKoqOj86XNJ598UjNnzszXA/116tTRqlWrVLFixXxr79tvv9VVV11lep1wnqMFYfwAAABgPyQ/AAAAkK9OnDhh6XJXb7/9tsqXL2+pje7du1u+VNQzzzyjlJQUt8vvuOMObdmyRW3btrVUr1VXX321pkyZoqlTp6po0aJBbStQnnrqKf3www+qXbt20NqoUKGCFixYELJxadCggdasWaNWrVoFtZ2EhAStXr1aVatWtbxuOM/RgjB+AAAAsBeSHwAAAMhX/fr108mTJ02V7dKli3r16uVTO5MmTVLJkiVNlz99+rT69evnsUz16tW1Zs0aLVu2TB06dPCpX+5ER0frmWee0b59+zxehitcNWnSRDt37tRHH32k+vXrB6zesmXLaujQofrxxx/VrVu3gNXri9q1a+uHH37Qe++9Zzkh502VKlU0e/ZsrVy50q8zJMJ5jhaE8QMAAIB9kPwAAABAvvnkk080b948U2VLliypKVOm+NxWtWrVNHr0aEvrLFy4UJ988onXcomJiVqxYoXWr1+vp59+WnXq1PGpj5GRkUpMTNSMGTN0/PhxvfnmmypXrpxPdYWDokWL6sEHH9T27du1cOFC9erVS5UrV7ZcT7FixRQfH69Jkybp8OHD+te//hU2B7QjIiL0xBNP6MiRI/ryyy911113+XxpsmLFiunuu+/W3Llz9euvv6p3794B62e4ztGCMn4AAAAo+CIMwzBC3QkAAACgoDt69Ki+/fZb7dixQ2lpaUpNTVVaWpp+//13xcTEqHTp0ipTpowqVqyohg0bqkmTJmrQoIFKlCgR6i708SkAACAASURBVK4H3a5du7Ry5Ur9/PPPSktLc/xlZGQoNjZWV199tWJjY1W9enW1adNGLVu2LFDjcuHCBe3YsUPJycnaunWrTpw4obNnz+r3339Xenq6Y/uXLl1alSpVUqNGjUKy/cN1jhaU8QMAAEDBQvIDAAAAAAAAAADYCpe9AgAAAAAAAAAAtkLyAwAAAAAAAAAA2ArJDwAAAAAAAAAAYCskPwAAAAAAAAAAgK2Q/AAAAAAAAAAAALZC8gMAAAAAAAAAANgKyQ8AAAAAAAAAAGArJD8AAAAAAAAAAICtkPwAAAAAAAAAAAC2QvIDAAAAAAAAAADYCskPAAAAAAAAAABgKyQ/AAAAAAAAAACArZD8AAAAAAAAAAAAtkLyAwAAAAAAAAAA2ArJDwAAAAAAAAAAYCskPwAAAAAAAAAAgK2Q/AAAAAAAAAAAALZC8gMAAAAAAAAAANgKyQ8AAAAAAAAAAGArJD8AAAAAAAAAAICtkPwAAAAAAAAAAAC2QvIDAAAAAAAAAADYCskPAAAAAAAAAABgKyQ/AAAAAAAAAACArZD8AAAAAAAAAAAAtkLyAwAAAAAAAAAA2ArJDwAAAAAAAAAAYCskPwAAAAAAAAAAgK2Q/AAAAAAAAAAAALZC8gMAAAAAAAAAANgKyQ8AAAAAAAAAAGArJD8AAAAAAAAAAICtkPwAAAAAAAAAAAC2QvIDAAAAAAAAAADYCskPAAAAAAAAAABgKyQ/AAAAAAAAAACArZD8AAAAAAAAAAAAtkLyAwAAAAAAAAAA2ArJDwAAAAAAAAAAYCskPwAAAAAAAAAAgK2Q/AAAAAAAAAAAALZC8gMAAAAAAAAAANgKyQ8AAAAAAAAAAGArJD8AAAAAAAAAAICtkPwAAAAAAAAAAAC2QvIDAAAAAAAAAADYCskPAAAAAAAAAABgKyQ/AAAAAAAAAACArZD8AAAAAAAAAAAAtkLyAwAAAAAAAAAA2ArJDwAAAAAAAAAAYCskPwAAAAAAAAAAgK2Q/AAAAAAAAAAAALZC8gMAAAAAAAAAANgKyQ8AAAAAAAAAAGArJD8AAAAAAAAAAICtkPwAAAAAAAAAAAC2QvIDAAAAAAAAAADYCskPAAAAAAAAAABgKyQ/AAAAAAAAAACArZD8AAAAAAAAAAAAtkLyAwAAAAAAAAAA2ArJDwAAAAAAAAAAYCskPwAAAAAAAAAAgK2Q/AAAAAAAAAAAALZC8gMAAAAAAAAAANgKyQ8AAAAAAAAAAGArJD8AAAAAAAAAAICtkPwAAAAAAAAAAAC2QvIDAAAAAAAAAADYCskPAAAAAAAAAABgKyQ/AAAAAAAAAACArZD8AAAAAAAAAAAAtkLyAwAAAAAAAAAA2ArJDwAAAAAAAAAAYCskPwAAAAAAAAAAgK2Q/Ahz58+fD3UXAHhx+vTpUHcBsC3iCygciHXAXohpwN6IcSB/cFzYfxGGYRih7gTca9eunb7//vtQdwMAAAAAAAAAkE/i4+O1du3aUHejQCsa6g7As3bt2mnNmjWh7gYADyIiIkQeGQgO4gsoHIh1wF6IacDeiHEgfzz33HOh7kKBx2WvAAAAAAAAAACArZD8AAAAAAAAAAAAtkLyAwAAAAAAAAAA2ArJDwAAAAAAAAAAYCskPwAAAAAAAAAAgK2Q/AAAAAAAAAAAALZC8gMAAAAAAAAAANgKyQ8AAAAAAAAAAGArJD8AAAAAAAAAAICtkPwAAAAAAAAAAAC2QvIDAAAAAAAAAADYCskPAAAAAAAAAABgKyQ/AAAAAAAAAACArZD8AAAAAAAAAAAAtkLyAwAAAAAAAAAA2ArJDwAAAAAAAAAAYCskPwAAAAAAAAAAgK0UDXUHAADIKSMjQ9nZ2ZKk6OjoEPcG8B1zGSh4iFvAXohpAAAKN878AAAETHZ2tjp16qSoqCjVqlVL58+ft1zHF198oeLFi6t48eKaO3duEHoJuOduDr/33nvq0aOHevTooenTp5uqi7lceGVnZyspKUlffvmlMjIyHM/7Mo9gHu9B9ucutqz67LPPHLH41ltvBbz+QAvXfgWLr7E8ZcoUx3adNWuWJGK6sCPWCzfGE4DEmR8AgAB64403tHz5cknS22+/rRIlSliuo1evXpo+fbpWrFihvn37qmXLloqLi/O4zoYNG/TGG284Ho8ZM0b16tXLU27BggWaOXOm4/EHH3ygsmXLWu4j7MvdHE5OTtYXX3whSapcubKpupjLhdfw4cM1btw4SVLv3r01e/ZsSb7NI5gXqvegvXv36oUXXnA8fuaZZ9S+fXvLbcM7d7Fl1c6dOx2xWLTo/38lDlT9gRau/QoWX2N58+bNju167bXXSiKmCztiPf/l/izrTtmyZfXBBx8EtS92GE8A/iP5AQAIiCNHjmjMmDGSpPj4eN1+++0+1/X3v/9dK1as0OnTpzVy5EjNmDHDY/mUlBTNnz/f8fiZZ55xWe7nn392KjdlyhSf+wj7CeQcvoK5XDjt3r3b8f+uXbtC2JPCI5TvQadPn3aKx3vvvdfntuFZsGMrXGM3XPsVDOHwXkxM21+4xlS49suK3J9l3cmPH4HYYTwB+I/LXgEAAmLMmDG6cOGCJGnIkCF+1dWmTRu1aNFCkjRr1izt3bvX7/4B3gRyDl/BXA4vR48eValSpRx/6enpPpXx5pVXXtHNN9+s5s2b61//+lcgum5ZIF5HQcJ7UOEQ7NgKVex6i9dw2KfkF96LkR9CEVNm3pcLU6z7y5/xtMNnJDu8BiC/cOYHAMBvf/zxh+NXdLGxsbr77rv9rvPxxx/Xxo0blZWVpSlTpmjixIl+1wm4E4w5fAVzOXwYhqFz5875Xcabpk2bavXq1X7V4a9AvI6CgvegwiPYsRWq2PUWr+GwT8kPvBcjv4Qipsy8L9sx1pOSktS8efM8z0dERPhVrz/jaYfPSHZ4DUB+IfkBAPDb0qVLdenSJUlSQkKCIiMj85TZvXu3Zs+erQMHDuj3339XtWrV1K5dO/Xo0cNl+Y4dOzr+/+qrr/LtS6qVfp47d04zZ87Uli1blJqaqsqVK6tNmza6//77TV+f2uq4IDjMzOGcDMPQvHnz9NVXX+mPP/5Q48aN9de//lU33nhjnrLM5bztLV26VFu3bpV0+Ytphw4d9Pnnn2vp0qU6e/as6tSpowEDBqhatWoBa3vZsmX69ttvndabMGGCoqOjlZCQoJYtW5oqk7vvnTp10urVq7Vo0SI98MADaty4sdasWaO1a9dKkm688UZ169bNZb/NzqO5c+dq3759kqT27durdevWjmVnzpzR1KlTHY+HDRum5cuXe30dOWVlZWnevHnavHmzdu3apSpVqqhBgwZ6+OGHVbJkSc+DHwbMxG/u11i2bFnVqVNHjz76qMtLbwQybsPhvcJsH3LP78TERNP7Osm3uWRl23iLLX/HyVv9VrdloPZN3vplGIa++uorbdq0STt37lT58uVVv3593XHHHapRo0aefgV6HxwoZt+Ld+/erXnz5mnLli2Kjo7WLbfcokceecRj3XaL6St15ByHhIQEPfzww1q+fLm2b98uSWrZsqUSEhKc1rMSp/7OFbNtmXlvDeTYeYqpUMW5t35J1mI9XOK8bNmyuvrqqz2WsdpXf8bT27pnzpxRcnKyJKl8+fLq06ePU9msrCxNnDhR2dnZioiI0JAhQ5zuJ5Ob1flkJmbMvn5P/JlLnuITCEsGwtpLL70U6i4A8IJdqWE8/PDDhiRDkvHuu+/mWf7cc88ZERERjjI5/+rXr2+cPXvWZb1xcXGOcrt27XLb/vz5853qXLVqlcty48ePdyp37Ngxn/u5detW4+qrr3ZZtlatWnnqdsXXcSlM8iu+vM3hfv36OZYPGDDA6N+/f55tVrx4ceOdd95xWT9z2Xku5x7PRx55JM96pUuXNrZs2RKwtgcOHOiyjCRj/Pjxpsvk7PvAgQONIUOGOB4vWrTIMAzDGDFihOO5nj17un3dZudR9+7dHcvHjRvntOznn392Wj8zM9PU68i5/Zs1a+aybNWqVY2vvvrK6zYIBH9i3Vv8Jicnu32N0dHRxn/+8x+X9ZqN23Xr1jnV+fHHHzuWhcN7hZU++LOv82UuWd027mLL6ji5q8dT/Va3ZSD3TZ76tXPnTqNNmzYu1y9RooQxZswYIyMjw2mdQO6D3fElpr3FsmEYxrRp04wSJUrk6e+9995rPProo47HQ4cOzbOuXWLaMAxj8uTJRvHixfOs36NHD4/jYDVO/ZkrVtoy897qy9hZjfVQxrmnfhmG9VgPdpy7i/Hcn2XXrVvntS6rffVnPL2tu2LFCsfjiIgIY//+/U59/frrrx3LExMTPb4uq/PJbMxY+Zznij9zyVN8IjiGDBkS6i4UeByxC3MkP4Dw5+6DX2HSpEkTxweg3AdrP/jgA8eyokWLGgkJCcZDDz1klCxZ0vF8nz59XNabmJjoKPPFF1+4bT/3h+x//vOfRlJSUp6/vn37OpXL+YHTaj9r1arleP7OO+80RowYYTRt2tTtF5bc/BmXwiS/4svTHDYM5w/9pUqVcnxpadeundM2i4iIMH744Yc86zOXnedyzvEsXbq0IckoW7as4/8rf7fcckvA2h4/frzTdpZktGjRwmjdurUxe/Zs02Vy9r1OnTpOZa0kP6zMI6vJDzOvwzAM48SJE0aFChUcZTp06GCMGjXKePjhh42iRYsakoyYmBjjl19+8bgdAsGfWPcUv7lfY1RUlFGvXj2ng4ZFihQxli5dmqdes3Hr6UBpOLxXWOmDr3PUl7nky7ZxF1tWx8mX5IeVcQz0vsldv9LS0ozKlSs7lpUtW9bo2LGjUb9+faf6Ro0a5fRaArUP9sSXmPb2XrxhwwanA82lSpUy2rVrZ9SuXduQZBQrVsyxzFXywy4xvXLlSqf+xcbGGp06dTIaNGjgcRx8iVNf54rVtsy8t/oydlZjPZRx7qlfvsR6sOPcXYzn/iw7efJkY9WqVU5/+/btc1rHal/9GU8z6zZq1MixLPcxuZ49ezqW/fe///U4Rlbmk5WYMfv6XfF3LrmLTwQPyQ//ccQuzJH8AMKfL1/u7CbnB6idO3c6LevSpYtj2b///W/H8zNmzHA8f+2117qst1evXo4y7n5Rbxh5P2Sb/ct5wNhKPw8ePOh47oYbbnCUPXnypNGiRQujcePGxs0332xkZ2e77bM/41KY5Fd8eZrDhuH8oT/3fExJSXH6ktS2bds86zOXnedy7vH88MMPDcMwjOzsbOOFF15wPF+0aNE8v1j2p+3Dhw87tXvu3Lk8dXork7vvZcqUMQYPHmxMmzbNSElJMQzDXPLDyjyymvww+1pzfoF/6qmnnJbNnDnT6Qt7sPkT657i9/7773csq1u3rnHw4EHDMAzj3LlzxqBBgxzLevTokades3Hr7kBpOLxXWO2Dr3PUl7nky7ZxF1tWx8nqAVGr4xjofZO7fvXu3dvxfPPmzY3U1FTHstwHZrdu3epYFqh9sCe+xLS39+Kbb77ZsbxFixZOr3fy5MlOr8lV8sMOMW0YhiPJIclo3769cebMGceyDz/80O04+BKnvs4Vq22ZeW/1ZeysxHqo49xTf32J9WDHubsYN/NZduDAgU7r+NJXf8bT27o5x7RSpUrGpUuXDMMwjDNnzjgS9JUrV3Y874rV+WQ1Zsy8flcCMZdcxSeCh+SH/zhiF+ZIfgDhz5cvd3aSmZlpREZGOj4MnThxwmn5zp07ja1btxpbt241Lly44Hj+l19+cfoQlZ6enqfuwYMHO5YPHz7cbR8CccDYSj+PHj3qeFysWDFjzJgxxsaNG53W88afcSlM8iO+vM1hw3D+0N+6des8y5OSkhzLo6Ki8nyJZC47z+Wc49mxY0en+k6cOOG03s8//xywtgOd/IiJiXF5gM5M8sPKPApG8iMzM9PpF/a//vqr0/KLFy86fj189dVX5x38APM11j3Fb2ZmptPlcZKSkpzWPXnypHHbbbcZt912m8tfa5uNW3cHSsPhvcJqH3yZo77MJV+3jbvYsjpOVpMfVscx0PsmV/3KPYauzpRo3769Y/mYMWMczwdqH+yJ1Zj29l584cIFo0iRIo7lK1euzFNHzsvFuEp+2CGmT5065VRu8+bNecq0a9cuzzj4us/3Za740paZ91Zfxs5KrIc6zt31y9dYD3acu4txf5MfZvsazOTHxYsXnZKxn3/+uWEYhjF16lTHcy+//LLH8bEyn3yJGV+SH4GYS+7iE8FD8sN/3PAcAOCXzMxMZWVlOR4XK1bMaXndunV1/PhxffHFF3rttdd04sQJpaWl6eLFi07lMjIy8tSd8+Zxrpa707t3b11zzTV5nl+/fn2em8P50s8qVaqoRYsW2rhxoy5duqQRI0ZoxIgRioqKUoMGDfTII4+ob9++uuqqq9z20Z9xQWB5m8O5xcfH53ku5w2oMzIytH//ftWuXdvxHHPZ/evOOU6SVKFCBafHFy5cCFrb/mrfvr3q1q3r07q+zKNA2rNnj9PY1qlTJ0+ZKzcePnnypI4dO+byxuCh5il+9+7dq/Pnzzset23b1mnd2NhYff31127r9jVurwiH+PKnD2bnaGZmpuW5dPr0ab+2TW7B3hdYHcf82Dft2bPHaQxd3eA2Pj5eq1evliTHDXxz82cfHEje3ot//vlnZWdnOx43b948Tx3NmzfX5s2b3bZhh5jeuXOn0+tp2LBhnjJNmzbVmjVrnJ4LxD7f7Fzxpa2c3L23FsY4lwIT66GM87Fjx+Zp/7rrrnNbPhz2ScWKFdOAAQM0cuRISdLUqVPVo0cPffjhh5KkIkWK6IknnvBYh5X55G/MmBWIueTPZ18gVEh+AAD8Eh0drXLlyun06dOSpNTUVJUpU8ax/Ouvv9a9996rP//803Ldqampjv+rVKlier0nn3xS7du3z/P8hAkT3B4wttrPL7/8Un/72980b948x3MZGRnasmWLtmzZoiVLlmjx4sWKjIwMSHsIHm9zODdXy0qVKqXIyEjHgZszZ844LWcuu+euXjNCHUfXXnutz+v6Mo8CycwX5+LFizv+P3r0aFgmPzzFb0pKiqNcsWLFPB6QdMXXuM0p1PHlTx/MztFz58557UPuuZRzbvuybXLLj32BlXHMj/7kjOGoqCinMb4i5zY8efKky3r82QcHkrf34pzxGBkZqZiYmDx1lCxZ0mMbdojpqKgox//Z2dnKzMx0SupIcll3IPb5ZueKL23l5O69tTDGuRSYWA9lnHfo0EGtWrUyXT5c9kn9+vXT2LFjdeHCBa1cuVJLlizR2rVrJUmdO3c29RnQ7HzyJWYqVapk+TUFYi7589kXCJUioe4AAKDgy/kFMucXy/Pnz+uee+7Rn3/+qYiICI0bN06//vqrzp8/b+pDXiC+pJrhSz+rVaumuXPnKjU1VQsXLtSIESOcfj2zdOlSt7+y9HdcEHju5rArBw4cyPPckSNHnH6xev311zstZy4HXjjEUZEivn+U9mUeSZd/HZ2TmQPPrtx4442O/yMjIx2/xHf317RpU5/ayQ/u4jfna7x06ZKOHz+eZ91FixZp9uzZmj17dp6xDUTchkN8+doHs3PUl7nk77bJKb/2BWbHMb/6U79+fcf/GRkZeQ4gS9Kvv/7q+N/VGQLhxtN7cc2aNR3/Z2Vl6fDhw3nW/+WXXzzWb4eYrlu3riIiIiRdTn5c+YX2FZmZmVq1alWe9fJzn+9vW67eWwtrnEv2jPWCoEKFCnrwwQclSYZhOP6XpKeeespUHWbnU37FZyDmkj+ffYFQYdYCAPyW8wtpzoMl69atc5zCe8MNN+iFF15Q9erVVbx4cZdfWnPLWVetWrUC2GNnVvu5ceNG9e/fX/3799f8+fN15513avTo0Vq/fr1uuukmRzl3X8L9HRcEnrs57Mr8+fPz/BLqymnwklSxYkWVK1fOaTlzOfB8aTv3rwnT0tJ8KhMIVuZRxYoVHc/v3r3baZ2VK1e6rN/b66hSpYqj3qysLC1evNhp+fnz5/XUU0/pscce02OPPRbWZ6m5i98qVao4XS5j9uzZTuudOHFCf/3rX/Xggw9q+PDheX497W/chkN8+dMHs3PUl7nk77bJKT/2Q1bGMVj7ptwqVqyouLg4x+OZM2c6Lf/jjz/0xRdfOB43a9bMa52h5um9uFq1ak5nCH3wwQdOyw8ePOj1Uml2iOlSpUo5tfX0009ry5YtkqTTp0+rb9++2rdvX5718nOfH4y2CmucS/aM9UDw5/Oa2XWfffZZx/9Xzkr7y1/+ojvuuMNrG1bmky8xw/sGYB6XvYLfsrOz9c033yg9PV3dunVzOhUXQOHQtWtXLVq0SJK0atUq9e7dW5Lz5Qf27t2rpUuXKiEhQbt371a/fv081pmSkqI9e/ZIkipVqhTUXx1b7WfJkiU1ZcoUSVJMTIyaN2+u+vXrKzk52elazDl/xeNPewg+d3PYlbNnz+qmm27SCy+8oCpVqmjVqlWaMGGCY/nAgQOdyjOXg8OXtitWrKjixYs7DlgMHDhQ3bt317XXXquOHTuaLhMIVubRDTfc4Ph/zpw5atiwoZo1a6aNGzfqtdde8/m1vvrqq3r66aclSQMGDJB0+fIU6enpGjlypOPgYuvWrf2+LFEweYrfl19+2XHwYvjw4bp48aISExOVlpamV155xXEN7e7duzvVGYi4DYf48qcPVuaoL3PJ120TjHHyxso45rzefyD3Ta688cYbeuihhyRd3gYXL15U586ddfz4cY0ePdqRvGrcuLF69erl3yDkA0+xHBERoT59+mjSpEmSpNGjRys9PV0dOnTQwYMH9frrr+e510JOdolpSXr33XfVvHlzZWZm6pdfflGzZs1UunRp/fHHH4qKilLdunX1008/5VkvP/f5gW6rMMe5VLBj/cknn1Tp0qVdLnvzzTdd3r/HDH/G0+y6devWVefOnbV06VLHc3369DF1aS6r+wurMVO8eHHeNwCzQn3HdXj20ksvuXx+/fr1Rvfu3b3+Pfroo0Hv44svvmhIMiQZvXv3Dnp7QLhhV2oYv/32m2M/ULNmTcfzFy5cMGrUqOFYJsmIiIgwJBnly5d3ev7MmTNOdc6ePduxrG/fvh7bnz9/vlNdq1atcllu/PjxTuWOHTvmcz979uzpsvyVv8TERCMrK8tlP/wZl8Imv+LL3Ry+ol+/fo7lCQkJRrly5Zy205W/66+/3khPT3dal7mcdy7nHM+BAwfmqTfnej/++GNA277//vvzbLcXX3zRqW5PZbz13TAMY8SIEY4yPXv2dPm6rcyj1NRUIzY21mXZ22+/3elxZmam6deanZ1tdO/e3WW9V/5KlSplbNiwweXrDCR/Yt1T/GZnZxu33Xabx9dYr149v+J23bp1TvV9/PHHjmXh8F5hpQ8552h8fLxRsmRJU3PUl7nky7ZxFVu+jJO7GHX3vJVxDMa+yVO/+vTp43EMK1WqZOzYscNpnUDsg73xJaa9vRefOnXKqFq1qsvXWbJkSaN9+/aOx0OHDnVa104xbRiGsWzZMiMuLs5pneLFixsLFiww+vbt63IcfIlTX+eK1ba8tePr2FmN9VDGuad+GYb1WA92nLuL8dyfZT39LV++3K+++jOeZj4PGoZhLFmyxLE8MjLSOHTokOkxsrK/8CU+zb6G3AI9lxBcQ4YMCXUXCjwue1VApaSkaP78+V7/kpKSgt6XnJdf2LVrV9DbAxB+4uLi1KlTJ0nS/v37tWHDBkmXb165cOFCp2ubGoahpk2b6rvvvvNY5yeffOL4//HHHw9Cr/+fL/2cMWOGRo4c6bgsjWEYkqQSJUpo4MCB+vzzz91eE9WfcUFwuJvDrtSrV09LlixxujxHdHS0HnroIW3atCnPLxiZy8Hha9uTJk3SnXfe6fRc7kvqmCnjLyvzqHz58lq4cKFq167t1J/+/ftr4sSJbtvw9joiIiI0b948ffTRR6pVq5bjOvLS5Ws6//Wvf9WaNWvUokULv15rsHmK34iICC1ZskTvv/++qlev7rReqVKl9MILL2jt2rVBi9twiC9f+9CsWTN9/fXXqlGjhlOfXM1RX+aSr9smt/zaD5kdx2Dum1yZNm2aFixYoPr16zttx9jYWPXv31+7d+92us57OPP2XlyuXDklJyfrnnvucRqbZs2aafXq1S7vk3SFnWJakhITE7Vr1y4tW7ZMEyZM0IwZM3Tw4EF169bNcXkeSbr66qsd/+fnPj/QbRX2OJfsFeuB4s94ml03JSXF8X/Xrl1VrVo10/2zsr/wJWZ43wDMiTCuRB/C0ssvv6yxY8fmeX7BggVeTwGXpMqVKzvtrH1x9OhRp8stHDt2TDExMY7HW7Zs0bPPPqs///xT48aNc5xi5229gsIurwPBExERIXal0vr169W6dWtJUs+ePfXpp586LT9y5IhSUlJUoUKFPAc5ctu7d6/q1KkjwzDUtWvXPNc9DSYr/ZQuX/ovJSVFKSkpKl++vP7yl79Yuvyf1fYKm/yML29zOLfs7Gzt379f58+fV506dVxud+Zy/vCl7TNnzujgwYMqVaqUatSo4fQl00oZf5mZR1cYhqHffvtNaWlpqlmzpsqWLWuqDbOvIz09Xfv27VOpUqUUFxen6Ohon16TL/yNdbPx+/vvv+uXX35RpUqVVLVqVZdlghG34RBfZvrQv39/x2U6Bg4cqEmTJlmao1f4MpfMbBtv8mM/ZGVbBmvf5M6FCxe0d+9elS9f3ucxDBRfY9psLF+8eFF79uxR2bJldc0113is004xffr0aXXr1s3x+IMPPnC6f8mff/6p66+/3nEj46SkJHXu3NllXfm5zw9kW4U9zqXwiPVw+g7sz3h6W7d169Zav369JGnRokW6/fbbLffPl/2FlZixy/sGXHvuueecLjsK9tovlAAAIABJREFU60h+hDmzyY+kpCSX10qMiIhQbGysX304cuSI002Rzp07Z+rgv6/rhRu7vA4ETzh98Au1+++/X59//rmKFi2qHTt2qE6dOj7V88gjj2jWrFkqVqyYNm7cqIYNGwa4pygo8ju+AjWHr2AuA+YEItZ5D/Kfq+QH4At/Ypr3Ys8aN26sbdu2SZLi4+P1z3/+U9WqVdOBAwc0ZswYrVixQtLle5vs3r3bdKIcsKIwfAfevn27GjVqJEm65pprdODAAbdndgHBQvLDf9zw3CbKli3rdEqrK0uXLtXWrVslSU2bNlWHDh30+eefa+nSpTp79qzq1KmjAQMGOJ3Gt2zZMn377bdO9UyYMEHR0dFKSEhQy5YttWbNGq1du1bS5Zs1devWzet6Z86cUXJysqTLl3Lo06ePU9msrCxNnDhR2dnZioiI0JAhQzyevnfu3DnNnDlTW7ZsUWpqqipXrqw2bdro/vvvV4kSJfKUz8rK0rx587R582bt2rVLVapUUYMGDfTwww873UzNzOsH8P+mTJmi9evX6+DBg+rfv3+e+DFjzZo1mjVrliRp3LhxBf4LKgqWQMzhK5jLQP7iPQiwB96LPXv//ffVvn17nT9/Xj/88IPatWuXp0yRIkX08ccfk/gA/PDee+85/n/iiSdIfAAFFMmPQmT+/PmOX3INGDBAs2fP1ocffuhUZvLkyVq1apWaNGkiSVq4cKHeeecdpzKvvvqqJGn8+PFq2bKlvvnmG40ZM0bS5VOTu3Xr5nW9Jk2a6MUXX5R0+RcDHTp0cLqe8LJlyzRs2DBJl69neuV/V7Zt26aOHTvq5MmTTs9PmzZNr7/+ur7//ntVqlTJqXyfPn20efPmPHW9/vrrmjp1qu644w7Trx/A/ytXrpy+++47HThwQNLl02iLFy9uqY5rrrlGmzZt+j/27jwsiiPvA/h3YBAQEYJAOBUNKh5BBFFzGAJIdI3neqEheIsgia7seiRGkxBjTNT12Ox6osYj0aCioAbxXI0aUUBdAt4SFVTkFITIUe8fPPTLyADDOTB8P8/D8/RRXf3rYaqnu6urCkBJRS1RQ6qL73ApfpeJGhZ/g2qvdevWsLCwAFAy7gaROvC3uHKurq64cOECgoODERYWhsLCQmmdrq4uhgwZgs8//xzdunVTY5RETduLFy9w7NgxWFhYQCaT1fu4fURUf1j5oSFiYmKQn5+vsMza2lqh/8+yduzYgezsbBgbG6O4uBjZ2dkASvranTNnjvR2jZ2dHXr27Cm10gBKLra0tbVhaWlZYTxVbefh4YEePXrgypUrEEJg48aNCt17la2U8fPzq/TYR40aJVV8DBkyBD169MDhw4cRExODW7duYfbs2VJfsampqfDy8kJqaioAwMPDA++88w7u3LmDXbt2ITk5Gd7e3rh69So6dOhQ4+Mnas7atm1bZd/LlWnXrh3HviC1qu13uBS/y0QNj79BtbNs2TIsW7ZM3WEQ8be4Co6Ojvj5559RVFSE5ORkPH78GJaWlrCysqqX8amImpsWLVogMTFR3WEQUR1g5YeGCAgIKLessn56s7OzsW3bNvj6+kIIgQULFkg3OmfPnkVhYSHkcjmCgoLg7e2tMObFyZMnqxzzQpXtZs+ejUmTJgEAQkJC8MUXX0BHRwdZWVkICwsDUDJg+7Bhwyrczx9//IFbt24BADp37oyDBw8CAP72t79h4MCBKCgoQHJyMoQQkMlk+Pjjj6WKDz8/P6klDFBSETJx4kTk5uZi9uzZOHjwYI2Pn4iIiIiIiKg+aWtrw9bWVqHraiIiIvp/7LCumfL09ISvry+Akm6ngoKCpHWFhYVISkqq9xjGjx8vNat//PixVOGxe/duqRXL5MmToaOjU2EeZdfdvXsXS5YswaVLl2BgYICLFy8iNjYWp0+fhkwmQ1FRkbQPAFiwYIFCXuPGjUOLFi0AQBrDhIiIiIiIiIiIiIiaHlZ+aIivv/4aoaGhCn8vDyJeVqdOnRTmzczMFOZf7kKrPrRo0UKhxcr69esB/H+XV1paWpg2bVqleVhaWsLV1RVASZ+MCxcuhKurKwwNDeHi4oI1a9bg+fPnAIDr168rHJeDgwP09fWlPyMjI7x48QIAkJaWhkePHtXdwRIRERERERERERFRg2G3VxrCw8MDffr0UTm9trZ2PUajuhkzZuDrr79Gfn4+Tpw4gcOHD0utLgYMGAA7O7sq89i7dy9mzZqF/fv3S8sKCgoQExODmJgYHD58GIcOHVKpMqPsQHrJyclSyxQiIiIiIiIiIiIiajpY+UFqZWZmBh8fH2zatAlCCPj4+EjrqhrovJStrS327duHp0+f4vz587h48SKOHj2KixcvAgAiIyMRGxuLLl26SNtoa2sjIyNDobKDiIiIiIiIiIiIiDQDu72iKr3cSuTp06d1ut3f/vY3aTojIwMAYG1tjcGDB1e5j+joaPj7+8Pf3x9hYWEYMmQIgoOD8dtvv+HNN9+U0t2+fRuWlpYwNzcHABQVFeHQoUMKeeXl5cHPzw+TJk3CpEmTpO6yanr8RERERERERERERKQebPmhIaZPn47WrVsrXffPf/4TvXr1qnHe5ubm0NPTk8bLCAwMxPDhw2FnZwdPT89ab9e1a1cMGDAAkZGR0rIpU6ao1DVXq1atsG7dOgCAgYEBevXqhe7duyM2Nhbx8fFSutJWH4sXL8bMmTMBQBpvxMPDA7m5uVi0aBG2bNkCAOjbty9atmxZq+Mnaox++ukn7N27FwDw1ltvYfbs2fW2r+LiYhw9ehS5ubkYOnQodHR06m1fdWHDhg2IiooCAAwcOLDScZNKNaVjrE2sNflsqHlorN+NplQ2iajEgwcPsGrVKsTHx6OwsBAjRoxQGB+QiJomlm1qbCq6Tmys17VEVDus/NAQV69erXBdVlZWrfLW0tLCsGHDsHv3bgBAREQEIiIiMH/+/Eof/ldnu1mzZkmVH9ra2pg6dapKsXXp0gXe3t746aefkJubi549e0Imk0EIIaXp378/unfvDgDw9/dHVFQUwsLC8OTJE4waNapcnoaGhlizZk2tj5+oMYqPj0doaCgAQC6v35+ATz/9FN988w0AYPz48di5c2e97q+2YmNjpc9G1fF+mtIx1ibWmnw21Dw01u9GUyqbRARcuXIFb775ptTyGgCMjY35gJSoiWPZpp9++kl6llJq9uzZcHNzU1NEFV8nNtbrWiKqHVZ+kErWrl2L58+fIzw8XFqmyoNTVbdLSUmRpgcNGgRbW1uVYwsJCUGnTp2wdu1aZGRkSBUf+vr6mDJlCr788ktoaZX08CaTybB//37s2LEDX3zxBW7fvi2l19LSwogRI/DZZ5+hR48edXL8RM1ZYmKiNJ2QkKDGSOpPUzrGphQrUW3x+07UtMyZM0d6OGpgYID33nsPXbt2VXNURFRbLNu0evVqXLhwQWFZ69at1Vr5wetEouaFT2+bqGHDhim0blDFf/7zH/znP/+pcH1l+ZmZmeHgwYPIzMxEUlISDA0N0b59ewBAcHAwgoODq71dWRs2bJCmVR3ovJS+vj6++OILLF68GCkpKUhJSYGpqSmsra0r7ObCx8cHPj4+yM3Nxc2bN2FoaAgbGxvo6urW6jiImovk5GR07txZmn/06BEMDAwU0nz22WdIT0/H8+fPpTdrNE1TOsaKYlXlf0nNU2P5btQkjqZUNomoZBy/UqGhoRg4cKAaoyGiusKy3bzdv38fv/32W7nlBw8eREFBQbnnNapc89XF9WljuE5sLNfZRM0BKz+oWoyNjWFsbFyn2129elX6QWzbti3+8pe/1Cg2LS0tWFtbw9raWuVtDAwM4OTkpHL6mh4/kaYRQiAnJ6fSNM7Ozjh9+nQDRaQeTekYK4pVlf8lNU+N5btRkziaUtkkau6ysrLw7Nkzab461+ZE1HixbNPevXull2x79uyJ2NhYAEBmZiZOnDiBAQMGKKRX5ZqvLq5PG8N1YmO5ziZqDlj5QWpXttXHtGnTpC6qiJqzyMhIxMXFASi5OPPy8sLp06cRERGBDz74QOHmoaioCPv378fly5eRkJAAS0tLvP766/D19UWrVq2qtd/ExETs3LkTd+/eRXZ2NmxtbdGvXz+MHj0a2traAICoqCicPHlSYbsVK1ZAV1cX7u7u6N27NwDgzJkzOHfuHICS8XmGDh2qsI0QAuHh4bh06RLi4+NhamqK7t27Y/DgweVaVr38eXh4eGDPnj2IjIxEVlYWHBwcEBAQoLTLvJycHGzduhUxMTFITU2FhYUF3nrrLYwdOxb6+voVfhZFRUVV7qOiY3w53v79+2P//v0IDw/Hs2fP4OTkhJEjR6JLly6V/j+OHj0q3SS0bdsW48aNk9ZlZWVh3bp1AIAePXoovEl3/fp1hIWFAQDat2+PMWPGKI1V1f9lTT4batoa4rtRl+ebl1V1/qnpeYGIqlad3/eoqCj8+uuvCsv+9a9/wdDQEE5OTuUejBGR+rBsU3WVjp8BAAsXLsTs2bNx//59ACUVI2W/B6pc86mSRpX76KquE0sJIVS6h9u3bx9u3rwJAHBzc0Pfvn2ldZmZmVi/fr00P3fuXBw7dqxa17d1eb9P1CwJatQWLFig7hDq1Z9//ik6d+4sLCwshKWlpXj48KG6QyKqtvo4lc6YMUMAEABEYGCgmDNnjjQfEREhpYuLixMuLi7SurJ/VlZWIjw8XCHfhQsXSuu9vb0V1gUFBQmZTKY0r+7du4usrCwhhBCBgYFK0wAQy5cvV2lf8fHx4q233lKah76+vvjqq69EQUGB0s8jICBATJgwodx2rVu3FjExMQr7iYuLE23atFG6H3t7e/Ho0aNa7aOiY3w5L39//3J56enpiX/961+Vfg+2b98upX/llVdEUVGRtO6nn36S1rm4uChsN3fuXGndl19+WWGsqv4va/r51wVeqqhHfX836vp887LKzj/VOS9Qw2FZ1wzV/X2vrIzPmDFDjUdCtcUyrVlYtullVZXxhw8fStd6enp6IicnRwQEBEjfAzMzM1FYWCilV+WaT5U0qtxH1/U93PDhw6X133zzjcK6W7duKWxfWFhYrevb6t7vk+aZM2eOukNo8viKPalVixYtkJiYiJSUFCQnJ8PKykrdIRE1OseOHcPKlSvLLU9NTYWXlxcuX74MAPDw8MDnn38OX19fyOVyJCcnw9vbG3fu3KlyH1u3bsWKFSsghIBcLoe7uzs+/PBD6U2S//3vf5gzZw4AwM7ODj179lTY3tXVFX379oWlpWWV+0pLS4Onp6f0NpixsTE8PT3RvXt3AEBeXh4WLlyIJUuWKN1+x44d2LZtG4yNjdG6dWtpeXZ2thRjqVGjRiEtLQ0AMGTIECxcuBDOzs4AgFu3bmH27Nm13kdVtm/fjv/85z+wt7dHv379pM80Pz8fH330UbkBAMsaNGiQ9AZ8RkaG1AoEAA4fPixNx8bGIiMjQ5r/5ZdfpOkRI0ZUmH9N/pd1+dlQ41Wf342GPN8oU9PzAhFVria/73Z2dujVq5dCPs7Ozujbty/H1yNqJFi2qSb27dsndXnl6ekJAwMDhRYWqampOHPmjDSvyjVfda8LK7qPVkVt7uGqoupx1OX9PlGzpubKF6qCprf8INIE9XEqLfvWCQBhZGQkPv74Y7Fp0yaRkpIihBDC29tbWu/n56ew/datW6V1Q4YMkZZX9JbLX/7yF2n5mjVrpOUhISHScjs7O2n5gwcPFOLLyckpdwwV7Wv8+PHS8l69eonU1FRp3ZYtW6R1crlcxMXFKf08tm3bJoQQori4WMybN09hm9K3zpKSkqTlnTt3lvaRlpYmXF1dhZOTk3jnnXdEcXFxjfehyltDABTeDkpJSRE9evSQ1r399tvKvgISNze3cm8SFRcXC3Nzc4V97Nu3TwhR8pZV6TJ7e/sq/x+q/C9r8tnUFV6qqE99fTfq43zzsoq+79U9L1DDYVlv+mry+y6EEJmZmQplnK2vNAPLtOZg2SZlqirjZe9h1q9fL4Qo6fnD0NBQoWVGWapc81WVRpX76Lq+h6tuyw9Vj7Um9/ukedjyo/bY8oOIqJEzMDDAuXPnsHr1akyZMgUWFhYoKiqSxnQAgAULFihsM27cOLRo0QIApP5MK7N8+XLExcUhLi4O06dPl5a7ublJ0/fu3cPz589rdSyl/ZWW3a+pqak0P3HiRGmfhYWFiIiIKJeHp6cnfH19AQAymQxBQUHSusLCQiQlJQEAdHR0pOV3797FkiVLcOnSJRgYGODixYuIjY3F6dOnIZPJarwPVfTt2xczZ86U5i0sLLBs2TJp/rfffkNhYWGF25d9Q+r48eMAgMuXL+PJkycAILUMKV0XGRkppa+s1UdN1eVnQ5pF1e9GQ51vlKnNeYGIKlYXv+9E1PiwbFNNPH78WGrVIZPJMGTIEAAlPX+UHedj//79UuuQ+qDsPlpVtb2Hq626vt8nas5Y+UFE1Mi5ubmha9euCsuuX7+O/Px8ad7BwQH6+vrSn5GREV68eAGgpKn6o0ePKt1H165dYWFhgbNnz2L8+PHo168funTpgv79+yukKygoqNWxXL9+HXl5edK8ssGK33jjDWm6bDdPpTp16qQwb2ZmpjBf+rlYWlrC1dUVAPDixQssXLgQrq6uMDQ0hIuLC9asWVPhw1VV96GKssdTquwgeAUFBZU2VS5b+XH27Fn8+eefOHLkCADAyspKGui8tPJD1S6vaqouPxvSLKp+NxrqfKNMbc4LRFSxuvh9J6LGh2WbamLfvn0oLi4GALi4uMDc3BxFRUUoKirCoEGDpHQPHz7Eb7/9Vm9xKLuPVlVt7+Fqq67v94maM7m6AyAiosrZ2dmVW6bKxY2enp40nZycXOmbLkeOHMGoUaPq/aFf2bh1dHQUYixlZGQkTZf2y19WaUsHVezduxezZs1SeGOtoKAAMTExiImJweHDh3Ho0KFyeVZnH1UpezylDA0Noa2tjaKiIgBAZmZmhdvb29uja9eu+P3335GXl4dz585J430MGjQIr7/+Og4dOoTExET88ccfiIqKAlDykLfsBXpdqcvPhjSLqt+NhjrfVKSm5wUiqlhd/L4TUePDsk01ERoaKk1funQJcnnFjx737t1bL/csgPL7aFXV9h6utur6fp+oOWPLDyKiRk5Lq/ypukuXLtK0trY2MjIykJeXV+Ff6WC+yuTl5eGvf/0rnj9/DplMhm+++Qb37t1DXl5enb9BUjowIlDysDE5Oblcmnv37knTjo6Otdqfra0t9u3bh9TUVBw8eBALFy5UeGMtMjKy3t9Qu3v3brllDx8+lC6aAaBjx46V5lG29cfu3btx8eJFAMD777+P9957T1q3dOlSaeDzYcOGseseanQa8nxTkcZwXiDSNA39+05EDYNlm6orNTUVp0+fVjn93r176y0WZffRqqrpPdzLXWHl5OTUaP91eb9P1Nyx8oOIqAmytLSEubk5gJL+QA8dOqSwPi8vD35+fpg0aRImTZpU6RvWFy5ckJrUdu7cGfPmzUO7du2gp6eHBw8eKN3m5Teinz59qlLc5ubmsLGxkea3bt2qsP7Zs2cKbwq5uLiolK8y0dHR8Pf3h7+/P8LCwjBkyBAEBwfjt99+w5tvvimlu337do33oYqwsLByb8Ft27ZNmjY3N8crr7xSaR5lKz82b96M4uJitGjRAv3794eDg4P0mW7atElKp2qXVzX9X5Lmq4/vRkOeb5RpLOcFIk3TkL/vRNRwWLapusLCwqQKAgsLCyxcuLDcX+kYIEBJJUPpSyeqXPM11L1Lde7hSu/LASAxMVFhmxMnTijNv6rjqMv7faLmjt1eERE1UYsXL5YGYQsICAAAeHh4IDc3F4sWLcKWLVsAlPRN2rJlywrzadWqlTR948YNREZGwt3dHYmJiZgxY4bSbczNzaGnpyc9xAwMDMTw4cNhZ2cHT0/PSuNeunQpPvzwQ+kY/vzzTwwYMACPHz9GcHCwdJHp5OSEcePGqfJRVHhc69atA1Ay2F2vXr3QvXt3xMbGIj4+XkpX9q2a+pCVlYU333wT8+bNg6WlJU6dOoUVK1ZI6wMDA6vMo0+fPjA3N8eTJ0+kt4nc3Nyk/917772HkJAQaZ2RkRHc3d1Viq82/0vSbPXx3Wjo842y/TeG8wKRJmqo33cialgs21QdZSvDxowZg+Dg4HJpbty4gfDwcGl+79696Nmzp0rXfA1171Kde7jOnTtL07t374ajoyNcXFwQHR2NL7/8Umn+qhxHXd3vEzV3bPlBRNRE+fv7Y/jw4QCAJ0+eYNSoUTAxMYGtra10IWRoaIg1a9ZUmo+joyPat28PACguLsbAgQOhp6eHHj16KDRjL0tLSwvDhg2T5iMiIjB16lQcO3asyrh9fHwwZcoUACVvsQQHB+Ptt9/GyJEjERcXBwB49dVXsX37dujo6FSZX0W6dOkCb29vAEBubi569uyJFi1aoHfv3sjKygIA9O/fX6E5f3144403kJycjClTpmDQoEH49ttvpbehOnbsiKCgoCrz0NLSwuDBgxWWvf/++9K0l5eXwrrBgwer/NnV5n9Jmq0+vhsNfb55WWM5LxBpoob6fSeihsWyTapKT09XaOlQ9vqtrE6dOsHBwUGaL+36SpVrvoa6d3F3d0dqaqpK93C+vr4wMTEBUNI93Ny5c+Hp6Yn58+dX+EKaKsdRV/f7RM0dKz+IiJoomUyG/fv3Y/v27bC3t1cY30FLSwsjR47EmTNn4OrqWmk+urq6OHjwoEKf90IIODs747///W+F261du1ahyTKASgezK2vTpk04cOAAunfvrtAXq4mJCfz9/ZGYmFgnDx9DQkKwaNEiqUmyEAIAoK+vj8DAQOzZs6dWfcGqwsXFBUeOHJEe+AIln/mHH36IS5cuqfyWTtmurwDFyo/+/fsr/P9V7fKqVG3+l6TZ6vq7oY7zzcsaw3mBSFM11O87ETUslm1SxYEDB6SW6K+88greeeedCtOWPtQHSrqK+v333wGods3XEPcu3bp1w+HDh9GhQwdpWUX3cKampjh48CA6deqkEI+/vz9WrlxZ4T6qOo66ut8nau5kovSOjxqlTz75BF9//bW6wyCiSshkMjSGU2lubi5u3rwJQ0ND2NjYQFdXt9p5PHz4ECkpKTAzM0O7du1U2iYzMxNJSUkwNDRE+/btqz3Idn5+Pm7cuAFTU1NYWVlVO2ZVFBcXIyUlBSkpKTA1NYW1tXW9vpnm7+8vda0TGBiItWvXori4GHfu3EFeXh4cHBwa5Ztxtf1f1ofGUr6au/r4bqjjfFNWQ58XqHIs65qnIX7fqfFimdZcLNsE1H8ZV+WaryHuXapzDyeEwP379/H06VN06NABxsbGKu1D1eOoi/t9anqCgoIUulyj6uNrnUREGsLAwABOTk61ysPa2hrW1tbV2sbY2FjlCztl9PT04OjoWOPtVaGlpVWjY6vrGOzt7dW2f1XU9n9Jmqs+vhvqON+U1RjOC0SarCF+34mo4bFsU0NQ5ZqvIe5dqnMPJ5PJ0LZtW7Rt27Za+1D1OOrifp+oOWKbfiIiIiIiIiIiIiIi0ihs+UFERFTHWrduDQsLCwAlg9AREREREREREVHDYuUHERFRHVu2bBmWLVum7jCIiIiIiIiIiJotdntFREREREREREREREQahZUfRERERERERERERESkUVj5QUREREREREREREREGoWVH0REREREREREREREpFFY+UFERERERERERERERBqFlR9ERERERERERERERKRRWPlBREREREREREREREQahZUfRERERERERERERESkUVj5QUREREREREREREREGoWVH0REREREREREREREpFFY+UFERERERERERERERBqFlR9ERERERERERERERKRR5OoOgCoXHx+PMWPGqDsMIqpAdHQ0DA0N4eDgAEdHR3WHQ6SR+DtI1DywrBNpFpZpIs3GMk5U/549e6buEJo8mRBCqDsIqpinpydOnDih7jCIiIiIiIiIiIiIqIG89dZbOHv2rLrDaNLY7VUjl5eXp+4QiIiIiIiIiIiIiKgB5efnqzuEJo/dXjVyffr0wY4dO9QdBhFVwMXFBZmZmejatSvCw8PVHQ6Rxnnttddw+/ZtdYdBRPWMZZ1Is7BME2k2lnGihrFixQp1h9DksfKjkdPX10eHDh3UHQYRVUBLq6QBXYsWLVhWieoJyxZR88CyTqRZWKaJNBvLOFH909PTU3cITR67vSIiIiIiIiIiIiIiIo3Cyg8iIiIiIiIiIiIiItIorPwgIiIiIiIiIiIiIiKNwsoPIiIiIiIiIiIiIiLSKKz8ICIiIiIiIiIiIiIijcLKDyIiIiIiIiIiIiIi0iis/CAiIiIiIiIiIiIiIo3Cyg8iIiIiIiIiIiIiItIocnUHQJptw4YNiIqKAgAMHDgQU6ZMUXNERERERERERERERKTpWPnRRF28eBFLly5VWDZq1Ch88MEHStOHhYVh27ZtCssWLVqEnj171luMABAbG4vQ0FAAgIWFRb3ui4iIiIiIiIiI1KOgoABjxoxRWKajowMbGxs4ODhg3LhxMDQ0VFN0RNQcsfKjiUpJSUFYWJjCshs3blRY+fHdd9/h3LlzCstmzJhRb/EREREREREREVHzUVxcjLCwMMjlctjb2wMACgsLcfjwYeTm5mLevHlYu3YtfHx81BwpETUXHPNDg/z++++4dOlSueW3bt0qV/FRF5KTk2FoaCj95ebm1vk+iIiIiIiIiIio6bCwsEBCQgISEhJw8+ZN5OTk4Pjx42jVqhUmT56MX3/9Vd0hElEzwcoPDbN169Zyy17u7qquCCGQk5Mj/REREREREREREb3Mw8MD33//PQoKChASEqLucIiomWC3Vxrmxx9/xIqncDaBAAAgAElEQVQVK6CrqwugpIJi+/btKm8vhEB4eDguXbqE+Ph4mJqaonv37hg8eDDat28vpYuKisLJkycVti3dr7u7O3r37q00/6KiIuzZsweRkZHIysqCg4MDAgICYGtrqzTt/v37cfnyZSQkJMDS0hKvv/46fH190apVK4W0kZGRiIuLAwA4OzvDy8sLp0+fRkREBD744AM4OTmp/BkQEREREREREVHdevvttwEA0dHRCsuFEDhy5Aiio6Nx79492Nvbw8vLS+mzpfT0dGzcuBFdunTB0KFDcenSJYSGhsLd3R0DBgwAUPI8KTQ0FGfOnEFubi46deoEX19fWFtbK43r3LlzOH/+POLj49G2bVs4Oztj0KBBkMvLPzZ9ef9Hjx7F4cOHkZGRgY4dO8LHxwd2dna1/KSIqM4IatQWLFigdHlYWJgAIAAIa2trYWFhIc3//PPPUroTJ05Iy3v16iVNAxC//PKLQp7x8fHirbfeUkhT+qevry+++uorUVBQIIQQIjAwUGk6AGL58uVSnjNmzJCWBwQEiAkTJpRL37p1axETE6MQS1xcnHBxcVGav5WVlQgPD1dIX3Y/gYGBYs6cOdJ8RERErf4HRJUxMTERAISTk5O6QyHSSLxUIWoeWNaJNAvLNJFmq6iM5+fnCwDCxsZG6frHjx8LAMLFxUVa9uDBA+Hh4SEACB0dHWFrayu0tbWFTCYTkydPFi9evFDIIzExUQAQ3t7eYuPGjdKzn1WrVgkhhMjOzhaurq4CgNDT0xPW1tbS9KlTpxTySktLE+PHj1d43iSXywUA4ezsLK5du1buGEr3P3r0aDF27FjpmVnpdgYGBuLIkSPV+jyJKjJnzhx1h9DksdsrDaCjo4NJkyZJ82W7virt8komk2HKlCkV5pGWlgZPT0+p30VjY2N4enqie/fuAIC8vDwsXLgQS5YsAQDY2dmhZ8+eCnm4urqib9++sLS0VLqPHTt2YNu2bTA2Nkbr1q2l5dnZ2ZgzZ440n5qaCi8vL1y+fBlASdPIzz//HL6+vpDL5UhOToa3tzfu3LmjdD/Hjh3DypUrKzxWIiIiIiIiIiJqWL/88guAkudHQEkLjffffx+nTp3Cd999h5ycHPzxxx/IzMxEYGAgQkJCsGzZMqV5RUdH47PPPsO3336LK1euwM/PDwCwdOlSREdHY/369UhLS8ODBw8QHR0NXV1dTJw4USGPkSNHYteuXfjoo4+Qnp6Ohw8fIjs7G+vWrUNCQgLeffddpKamKt3/oUOHkJCQgPPnzyM3Nxd5eXn44YcfkJeXh5kzZ+LFixd19KkRUa2ou/aFKqdKyw87Oztx+/ZtIZPJBAChra0tUlJSRE5OjmjVqpUAIDw8PMSxY8cqbPlRtqa7V69eIjU1VVq3ZcsWaZ1cLhdxcXFCiJLa+bL55eTklIuzbIsMAGLbtm1CCCGKi4vFvHnzFPItbVXi7e0tLffz81PIb+vWrdK6IUOGVLgfIyMj8fHHH4tNmzaJlJSUGn76RFVjyw+i+sVLFaLmgWWdSLOwTBNptorKeEUtP/Lz88WuXbuEiYmJaNmypYiNjRVCCPH9998LAOIf//hHubyKi4tFnz59RIsWLRSeUZW2vJDJZOVacgghhLu7uzAyMiq3fN26dcLHx0c8efJECCFESEiIACAmTJig9Fg2b94sAIgPP/xQYXnp/lu2bCmSkpLKbTdmzBgBQFy5ckVpvkTVwZYftceWHxqiQ4cO8PDwAFBSc75z507s3btXGoh82rRpFW5bOrZGqeXLl8PU1FSanzhxItzc3AAAhYWFiIiIqFGMnp6e8PX1BVDSEiUoKEhaV1hYiKSkJBQVFSEsLExavmDBAoU8xo0bhxYtWgAo6ZNRGQMDA5w7dw6rV6/GlClTYGFhUaN4iYiIiIiIiIioelJSUmBrawtbW1tYWlqiZcuWGD9+PFq2bIndu3dL47KWPovy9/cvl4dMJsPgwYPx4sULXL16tdx6BwcH6VlVWVZWVsjKysLGjRtRXFwsLffz88P27dthZmYGANizZw+A8s+dSk2cOBFWVlbYt2+fQj6lXFxc0LZt23LLHR0dAQA3b95Umi8RNSwOeK5Bpk+fjuPHjwMAtmzZgldffRUA0KZNG4wYMQJnz55Vut3169eRl5cnzSsbUOqNN97A6dOnAQCxsbE1iq9Tp04K86U/OKXy8/Nx/fp15OfnS8scHBzK5VPadDAtLQ2PHj0qV7nh5uaGrl271ihGIiIiIiIiIiKqOV1dXQwcOBAAIJfLYWNjAwcHBwwdOhQ6OjpSuvj4eMhkMgwaNEhpPllZWQCA33//XXrht1THjh2VbvPpp5/i0KFDmD59OubPn4833ngDb7/9NgYPHix17Q4A165dg56eXoX5aGlpoVu3boiKisKdO3dgb2+vsN7Kykrpdq1atQIAZGZmKl1PRA2LlR8aZPjw4TA1NcXTp08RHx+P+Ph4AICvry90dXUr3O7Ro0fStI6ODvT09MqlMTIykqbT0tJqFJ+2tnaVacrGUpGy8SUnJ5er/LCzs6t2bEREREREREREVHsmJibYuHFjpWmEEHj69Cn09PTQt2/fStMqq2ho2bKl0rRdunTBrVu38P333+PYsWOIiorCoUOHsGDBAvj6+mLLli2QyWR4+vQpjI2NoaVVcac4JiYmAErGpn258kMmk1UaMxE1Dqz80CAtWrTAhAkTsGLFCoXlU6dOrXS7sjXfBQUFSE5OhrW1tUKae/fuSdOlTfjqQ5cuXaRpbW1tZGRkKK2MqUxlP1xERERERERERKReMpkMnTt3RkJCAtatW1fpS7vV1aZNGyxatAiLFi1Cfn4+Tp8+jblz5+KHH37AwIEDMW7cODg4OODq1at4/vx5hRUpt2/fBgD2LkLUhPEpsYZ5eWyPt956q8qTtLm5OWxsbKT5rVu3Kqx/9uwZQkNDpXkXFxcA5VtyPH36tCYhK7C0tIS5uTmAkrFIDh06pLA+Ly8Pfn5+mDRpEiZNmoTnz5/Xep9ERERERERERNSwHB0dUVRUVGE37bdv38aBAwdw//59lfIrLCzEggULsHnzZmmZnp4eBgwYILVEuXz5MoCSZ1tCCBw+fFhpXklJSbh69Spee+01hd5QiKhpYeWHhuncuTPeeecdab6ygc7LWrp0qTS9ePFiLFq0CL/++iv27duHd955R+rqysnJCePGjQNQUmlStlVGYGAgNm/eLI07UlOLFy+WpgMCArB3715kZGTgwYMHmDlzJjZs2ICtW7ciMTGxwtp5IiIiIiIiIiJqvObNmwe5XI558+bh2bNnCuuKi4sxffp0jBgxQumA48rI5XKEhobiH//4B9LT0xXWlY7BUdp1+qeffoqWLVti/vz5ePjwoULavLw8zJw5Ey9evMCSJUtqenhE1Aiw2ysNNG3aNPz3v/+FkZERRo8erdI2Pj4+OHXqFDZv3oyioiIEBwcjODhYIc2rr76K7du3S4NTaWlpYdiwYdi9ezcAICIiAhEREZg/fz48PT1rHL+/vz+ioqIQFhaGJ0+eYNSoUeXSGBoaYs2aNTXeBxERERERERERqY+joyO+/PJLfPLJJ3B0dMSkSZPQsWNHZGRk4Mcff8TZs2cxe/ZstGvXTuU8FyxYgClTpqBfv37w8/ODhYUF7t27h9WrV6N169bSM6YOHTpg9erV8Pf3R48ePTB16lR069YNf/zxB3bt2oXff/8dvr6+GDt2bH0dPhE1ALb80ECjRo3CK6+8gg8++KBaLSM2bdqEAwcOoHv37grjZpiYmMDf3x+JiYkK44MAwNq1azFkyBCFZXJ57erUZDIZ9u/fj+3bt8Pe3l5hECktLS2MHDkSZ86cgaura632Q0RERERERERE6rNgwQJERUXB2NgYwcHBGD9+PGbOnImkpCSsWrUKK1eurFZ+kydPxubNm/Hs2TPMmjULY8eOxbx582BlZYXDhw/Dzs5OSjt16lScP38eDg4OWLVqFXx9fbFo0SIUFxdj586d2LZtWx0fLRE1NJkQQqg7CKrYJ598gq+//rrB95ufn48bN27A1NQUVlZWVabPzMxEUlISDA0N0b59e4UKi9rKzc3FzZs3YWhoCBsbmzodBIuottq0aYP09HQ4OTkhNjZW3eEQaRyZTAZeqhBpPpZ1Is3CMk2k2eqrjOfn5+POnTswMzODmZlZrfN7+vQpHj9+jLZt28LQ0LDStIWFhbh9+zZsbGxgYGBQ630T1YWgoCCsWLFC3WE0aez2ipTS09ODo6OjyumNjY1hbGxcL7EYGBjAycmpXvImIiIiIiIiIiL109PTQ9euXessP1NTU5iamqqUVi6Xo3PnznW2byJqHNjtFRERERERERERERERaRRWfhARERERERERERERkUZh5QcREREREREREREREWkUVn4QEREREREREREREZFGYeUHERERERERERERERFpFFZ+EBERERERERERERGRRpGrOwCq3JkzZyCTydQdBhFVIS4ujmWVqJ6wbBE1DyzrRJqFZZpIs7GME9W/N954Q90hNHms/Gjk+vXrhzNnzqg7DCKqQJs2bZCeng4nJyfExsaqOxwijSOTySCEUHcYRFTPWNaJNAvLNJFmYxknahhBQUHqDqHJY7dXRERERERERERERESkUVj5QUREREREREREREREGoWVH0REREREREREREREpFFY+UFERERERERERERERBqFlR9ERERERERERERERKRRWPlBREREREREREREREQahZUfRERERERERERERESkUVj5QUREREREREREREREGoWVH0REREREREREREREpFFY+UGN0oYNGzB69GiMHj0amzdvVnc4RERERERERETUhN24cQOGhoaYOHGiukMhogYiV3cAVDMXL17E0qVLyy03NDREmzZt4OzsDA8PD1hbW6shutqLjY1FaGgoAMDCwkLN0RARERERERERUWUKCgowZswYAEDXrl2xZMmSStMXFxfDx8cHeXl5eO2117B8+fJ6jU8IgZycHPz555/1uh8iajxY+dFEpaSkICwsrNI02traGDt2LFauXIlXX321gSIjIiIiIiIiIqLmpri4WHpWFR4ejoCAgEpfyj169Ch+/PFHAECvXr3qJIasrCwUFhbCxMQEMpmsTvIkoqaL3V5psKKiIuzatQvOzs64efOmusOpd8nJyTA0NJT+cnNz1R0SEREREREREVGzoqWlhaKiIoSEhFSaLiQkBFpadftocvDgwTA1NUV2dnad5ktETRMrPzTEgQMH8PjxY1y8eBFbt25F586dpXXJyckYMWIECgsL1Rhh/Sttvlj6R0REREREREREDatPnz4wMjLCpk2bUFxcrDRNWloaDhw4AC8vrwaOjoiaE3Z7pSGMjIxgbm4Oc3NzuLq6wtvbG8OHD8cvv/wCAIiPj8fOnTsxYcIEhe0SExOxc+dO3L17F9nZ2bC1tUW/fv0wevRoaGtrS+n27dsntR5xc3ND3759pXWZmZlYv369ND937txyTQsTExOxf/9+xMTEQFdXF+7u7vD19cWxY8dw9epVAEDv3r3h7u6u9PiKioqwZ88eREZGIisrCw4ODggICICtrS0AICoqCidPnlTYZsWKFdK+evfurZDX/v37cfnyZSQkJMDS0hKvv/46fH190apVK4U8IiMjERcXBwBwdnaGl5cXTp8+jYiICHzwwQdwcnKq6F9CRERERERERNTsGBgYwNfXF2vXrkVkZCT+8pe/lEuzY8cOvHjxAtOmTUNkZGSl+Z07dw7nz59HfHw82rZtC2dnZwwaNAhy+f8/1oyLi0NkZCTu378PAPjnP/8JfX19tGvXDt7e3krzPXr0KA4fPoyMjAx07NgRPj4+sLOzU5pWCIEjR44gOjoa9+7dg729Pby8vBSeNwFAeno6Nm7ciC5dumDo0KG4dOkSQkND4e7ujgEDBlR6nERUDwQ1agsWLFC6PCwsTACQ/k6dOlUuTUJCgtDW1pbSvP/++wrrg4KChEwmU8in9K979+4iKytLSjt8+HBp3TfffKOQz61btxS2LSwsVFj/73//W+jp6ZXbx+jRo8XEiROl+b///e/SNjNmzJCWBwQEiAkTJpTbvnXr1iImJkYIIURgYKDS4wAgli9fLuUbFxcnXFxclKazsrIS4eHhCrGXjSMwMFDMmTNHmo+IiKjsX0fNhImJiQAgnJyc1B0KkUbipQpR88CyTqRZWKaJNFtFZTw/P18AEP379xf/+9//BAAxfPhwpWkdHR1F9+7dxf379wUA0atXr3Jp0tLSxPjx4xWe28jlcgFAODs7i2vXrklp161bp/RZT//+/aU0iYmJ0vOosWPHCgBCX19fytPAwEAcOXKkXBwPHjwQHh4eAoDQ0dERtra2QltbW8hkMjF58mTx4sWLcvvw9vYWGzdulOJYtWqVyp8vUak5c+aoO4Qmj91eaTAHBwe89tpr0vyFCxek6a1bt2LFihUQQkAul8Pd3R0ffvih1PLhf//7H+bMmVPrGE6ePImAgADk5+cDAExMTODl5YXXX38dP//8M3bt2lVlHjt27MC2bdtgbGyM1q1bS8uzs7OlGO3s7NCzZ0+F7VxdXdG3b19YWloCAFJTU+Hl5YXLly8DADw8PPD555/D19cXcrkcycnJ8Pb2xp07d5TGcezYMaxcubL6HwIRERERERERUTPSrVs39OvXDxEREUhJSVFYd/nyZVy9ehXTpk2rdFDykSNHYteuXfjoo4+Qnp6Ohw8fIjs7G+vWrUNCQgLeffddpKamAgAmTZqEzMxMqaeSpKQkZGZmSgOwl3Xo0CEkJCTg/PnzyM3NRV5eHn744Qfk5eVh5syZePHihZS2qKgI77//Pk6dOoXvvvsOOTk5+OOPP5CZmYnAwECEhIRg2bJl5fYRHR2Nzz77DN9++y2uXLkCPz+/Gn2ORFQ7rPzQcGWb66Wnp6OoqAgAsGfPHmn5ypUrceLECfzwww9Ys2aNtPz48eO13v+sWbOkaTc3N9y5cwdHjx7F1atXsW3bNoUflIpkZ2dj27ZtyMjIQGZmJubNmyetO3v2LAoLCxEUFITw8HCF7U6ePInz589j/PjxAICPP/5Y+lH08/PD8ePHsXjxYmzbtg2bNm0CAOTm5mL27NlK40hMTISRkRE+/vhjbNq0CS4uLtX7MIiIiIiIiIiImgl/f38UFhZiy5YtCstDQkKgq6sLHx+fCrfdsmULTp06hQkTJmDNmjV45ZVXAAD6+vrw8/PDv/71L6SlpSEoKAgA0KJFCxgZGUldYRkZGcHIyAgGBgZK8w8PD0ffvn0hk8kgl8vx4YcfYtSoUbhz5w4SExOldOvXr8eVK1cQFBSEv//972jRogUAoFWrVli9ejX69OmD4OBgPH36VCH/O3fu4KeffsI//vEPODo6Qk9Pr5qfHhHVBVZ+aDhdXV1pWgghDTS1fPlyxMXFIS4uDtOnT5fSuLm5SdP37t3D8+fPa7zvjIwMXLt2TZpfuXIljIyMpHlfX1/069evynw8PT3h6+sLAJDJZNIPGwAUFhYiKSmpyjyKiooUavsXLFigsH7cuHHSD9i5c+eU5mFgYIBz585h9erVmDJlCiwsLKrcLxERERERERFRczRy5EiYmZlh48aNEEIAAPLz87Fr1y6MHDkSJiYmFW5b+tLuy89vSk2cOBFWVlbYt29fhYOqV8TFxQVt27Ytt9zR0REApDFvAWD//v0ASipyXiaTyTB48GC8ePFCGs+2lIODg8IzNiJSD1Z+aLi7d+9K061bt4aOjg4AoGvXrrCwsMDZs2cxfvx49OvXD126dEH//v0Vti8oKKjxvuPj46VpuVwu/YiU5ezsXGU+nTp1Upg3MzNTmC/tUqsy169fV0jn4OAAfX196c/IyEhqhZKWloZHjx6Vy8PNzQ1du3atcl9ERERERERERM1dixYtMGnSJNy7dw9RUVEAgH379iEzMxNTp06tdNtr165BT08PHTt2VLpeS0sL3bp1Q25uboXdl1fEyspK6fLSruAzMzOlZfHx8ZDJZBg0aBC6dOlS7u/f//43AOD3339XyKuiuImoYcnVHQDVn7S0NNy6dUuaLzsmxpEjRzBq1KhateyoSmlFCwAUFxejsLBQan5YSpX9a2tr1zoWZZUZLyvbBDE5Oblcy46yXYgREREREREREVHlpk+fju+++w4bNmzAe++9h5CQENjb2+Pdd9+tcBshBJ4+fQpjY2NoaVX83nZpy5HU1FTY29urHFNl44woi0NPT08aS6QiL1eotGzZUuV4iKj+sPJDgwUHByu0dhg8eDAAIC8vD3/961+Rn58PmUyGpUuXwtvbG6+++iqysrKq7M6psLBQYT4nJ0dpuq5du0Imk0ndbZ0+fRoDBgxQyOfUqVM1PLrq6dKlizStra2NjIyMave3WNkPLhERERERERERKXrttdfg5eWFgwcP4sKFCzhx4gSWLl1aaQWETCaDg4MDrl69iufPn1dYkXD79m0AqLdeOmQyGTp37oyEhASsW7dOoWt5Imoa+DRXA6Wnp8Pf319h8HJTU1P4+fkBAC5cuCBVinTu3Bnz5s1Du3btoKenhwcPHijN09zcXJouO/ATAJw4cULpNoaGhnjzzTel+ZkzZyImJgZAyXggU6dOVehHsbZebiFSdrApS0tL6RiKiopw6NAhhbR5eXnw8/PDpEmTMGnSpHptEUNERERERERE1Fz4+/ujoKAAo0ePhra2NiZMmFDlNi4uLhBC4PDhw0rXJyUl4erVq3jttdcUxpctVTrGSG05OjqiqKgIZ8+eVbr+9u3bOHDgAO7fv18n+yOiusXKDw3x0Ucf4a233oKNjQ3atGmDdevWSSd6uVyOXbt2wdDQEMD/92EIADdu3EBkZKQ0ONOMGTOU5t+5c2dpevfu3fjuu+9w4sQJLFu2DAsXLqwwru+//17q6ur27dtwcXGBkZER2rRpgx9//LFOa+fNzc0VWnMEBgZi8+bNOH78OABg8eLF0rqAgADs3bsXGRkZePDgAWbOnIkNGzZg69atSExMZPNEIiIiIiIiIqI6MHjwYFhbW+PBgwcYMmRIlT2OAMCnn36Kli1bYv78+Xj48KHCury8PMycORMvXrzAkiVLFNa1bt0aQMnYr3Vh3rx5kMvlmDdvHp49e6awrri4GNOnT8eIESOqPeg6ETUMVn5oiGvXruHcuXPlfhBsbGxw7NgxeHl5ScscHR3Rvn17ACUn6oEDB0JPTw89evTAvXv3lObv6+sr9aVYUFCAuXPnwtPTE/Pnz4e7u3uFcfXo0QNHjhyBjY2NtCw7Oxu6urr4+eefFVqG1JaWlhaGDRsmzUdERGDq1Kk4duwYgJI3DYYPHw4AePLkCUaNGgUTExPY2tpiy5YtAEpaq5RtMUNERERERERERDUnl8ulAc6rGui8VIcOHbB69WokJSWhR48emD9/PrZv344lS5agV69eOHToEHx9fTF27FiF7dzc3ACUPAP65z//ia+++qpWsTs6OuLLL7/E5cuXpekff/wR//73v+Hm5oYTJ05g1qxZaNeuXa32Q0T1g5UfGqZVq1Zo3749Ro8ejS1btuD27dvSib+Urq4uDh48iN69e0vLhBBwdnbGf//7X6X5mpqa4uDBg+jUqZO0TC6Xw9/fHytXrqw0pv79+yMhIQFRUVFYsWIFQkJCkJSUhKFDhyIjI0NK16ZNm5ocsoK1a9diyJAhCstKW57IZDLs378f27dvh729vUL/klpaWhg5ciTOnDkDV1fXWsdBREREREREREQlpk6dCjs7OwwcOLBa25w/fx4ODg5YtWoVfH19sWjRIhQXF2Pnzp3Ytm1buW1mzZoFHx8fXLlyBXPmzMHmzZtrHfuCBQsQFRUFY2NjBAcHY/z48Zg5cyaSkpKwatWqKp+LEZH6yERddYJH9eKTTz7B119/XW/5P3z4ECkpKTAzM1OplloIgfv37+Pp06fo0KEDjI2NK0ybkZGBoUOHSvNbtmyBvb29NP/8+XN07NgRycnJAIBffvlFYUD02sjMzERSUhIMDQ3Rvn17pQNp5ebm4ubNmzA0NISNjQ0HrqIaadOmDdLT0+Hk5ITY2Fh1h0OkcWQyWZ3110tEjRfLOpFmYZkm0mzqKOOFhYW4ffs2bGxsYGBgUGX6/Px8pKSkwMLCAvr6+nUWR35+Pu7cuQMzMzOYmZnVWb5EygQFBWHFihXqDqNJk6s7AFIva2trWFtbq5xeJpOhbdu2aNu2bZVpX3nlFTx79gxXrlwBUNJ11rfffgtbW1vcvXsXX331lVTx8eqrr6JPnz41OwgljI2NK62YAQADAwM4OTnV2T6JiIiIiIiIiKjuyeVyhfFoq6Knpyd1+V6X9PT06nT8WiKqX6z8oHq1ceNGuLm5IS8vD+fPn0e/fv3KpdHS0sKOHTuqrKwgIiIiIiIiIiIiIlIFx/ygeuXq6ooLFy5g1KhR0tgbpXR1dTFq1ChcvXoV/fv3V1OERERERERERERERKRp2PKD6p2joyN+/vlnFBUVITk5GY8fP4alpSWsrKyUjsVBRERERERERERERFQbrPygBqOtrQ1bW1vY2tqqOxQiIiIiIiIiIiIi0mDs9oqIiIiIiIiIiIiIiDQKKz+IiIiIiIiIiIiIiEijsPKDiIiIiIiIiIiIiIg0Csf8aOTOnDnDQcGJmoC4uDiWVaJ6wrJF1DywrBNpFpZpIs3GMk5U/9544w11h9DksfKjkevXrx/OnDmj7jCIqAJt2rRBeno6nJycEBsbq+5wiDSOTCaDEELdYRBRPWNZJ9IsLNNEmo1lnKhhBAUFqTuEJo/dXhERERERERERERERkUZh5QcREREREREREREREWkUVn4QEREREREREREREZFGYeUHERERERERERERERFpFFZ+EDEaTUIAACAASURBVBERERERERERERGRRmHlBxERERERERERERERaRRWfhARERERERERERERkUZh5QcREREREREREREREWkUVn4QEREREREREREREZFGkas7AGoe1q1bh+PHjwMAhgwZAl9fXzVHRERERERERERERESaipUfTVx6ejpWr16NmJgY3LhxA3p6erCzs8Pbb78Nf39/tGrVSt0hAgAuX76M0NBQAICdnZ16gyEiIiIiIiIiojpVUFCAMWPGKCzT0dGBjY0NHBwcMG7cOBgaGqopOiJqjlj50YSFhoZi6tSpyMrKUlh+9epVHDx4EMuWLcORI0fg6uqqpgiJiIiIiIiIiKg5KC4uRlhYGORyOezt7QEAhYWFOHz4MHJzczFv3jysXbsWPj4+ao6UiJoLjvnRRF27dg0TJkyQKj6MjIzg5uaG3r17Q1tbGwCQlpaGv/71r0hPT5e2S05OhqGhofSXm5urlvgbWnM9biIiIiIiIiKihmRhYYGEhAQkJCTg5s2byMnJwfHjx9GqVStMnjwZv/76q7pDJKJmgpUfTdS6devw/PlzAEC3bt1w7949nDp1Cr/99huio6NhYGAAAHjw4AHCw8Ol7YQQyMnJkf6ai+Z63ERERERERERE6ubh4YHvv/8eBQUFCAkJUXc4RNRMsNurJio6OlqaHjRoEIyNjaX5nj17IjAwUBpg/P79+wCAqKgonDx5UiGfFStWQFdXF+7u7ujduzf27duHmzdvAgDc3NzQt29fKW1mZibWr18vzc+dOxcymUwhv8TEROzfvx8xMTHQ1dXFu+++iwkTJlR5PEVFRdi/fz8uX76MhIQEWFpa4vXXX4evr2+5cUsiIyMRFxcHAHB2doaHhwf27NmDyMhIZGVlwcHBAQEBAbC1tVX5uImIiIiIiIiIqP68/fbbABSfaQElL6weOXIE0dHRuHfvHuzt7eHl5aX0eU16ejo2btyILl26YOjQobh06RJCQ0Ph7u6OAQMGACh5xhQaGoozZ84gNzcXnTp1gq+vL6ytrZXGde7cOZw/fx7x8fFo27YtnJ2dMWjQIMjl5R+bvrz/o0eP4vDhw8jIyEDHjh3h4+PDsW6JGhNBjdqCBQuULvfw8BAABADRo0cPkZ6eXmVegYGB0jYv/y1fvlwIIcTw4cOlZd98843C9rdu3VLYprCwUGH9pk2bhL6+frm8R40aJSZOnCjN//3vf1fYLi4uTri4uCiNy8rKSoSHhyuknzFjhrQ+ICBATJgwodx2rVu3FjExMSofN1FNmZiYCADCyclJ3aEQaSReqhA1DyzrRJqFZZpIs1VUxvPz8wUAYWNjo3T948ePBQDh4uIiLXvw4IH0jEtHR0fY2toKbW1tIZPJxOTJk8WLFy8U8khMTBQAhLe3t9i4caP0fGfVqlVCCCGys7OFq6urACD09PSEtbW1NH3q1CmFvNLS0sT48eMVnkHJ5XIBQDg7O4tr166VO4bS/Y8ePVqMHTtWABD6+vrSdgYGBuLIkSPV+jyJKjJnzhx1h9DksdurJqpHjx7S9JUrV2Bra4shQ4bgiy++QEREBJKTk8ttY2dnh549eyosc3V1Rd++fWFpaVmreKKjozFt2jTk5eUBAAwNDdGvXz906tQJoaGh2LVrl9LtUlNT4eXlhcuXLwMoaQb5+eefw9fXF3K5HMnJyfD29sadO3eUbr9jxw5s27bt/9i786gs6/z/468bEXABGcBd3DEUB2nU0hnN0qGxUqcxHdOvCpppCKZpkwu2OJaNo1bUZJq7qZnHpdz3NTNFQlzSTEySXJHFDUTg+v3h4fp5d9+ogHjH3fNxDufc1/X5vK/r/eF4ged68/l85O3tLS8vL/P85cuXNXz48BIfNwAAAAAAAO5u/fr1km69k5FuzdB45plntH37dk2aNElXr17Vzz//rPT0dEVFRWn27NmaOHGi3WvFxsbq9ddf13//+18lJCRo0KBBkqR3331XsbGxmj59ui5duqTk5GTFxsbK3d1d4eHhVtd47rnntGjRIg0ZMkSpqan65ZdfdPnyZU2bNk1Hjx7V448/rosXL9q9/5o1a3T06FHt2bNH165dU2ZmpubPn6/MzExFRkYqOzv7Pn3XABSLo6svuLOCZn6kpKSY1euCvtq3b29s27bNKi45Odmqz9WrV63aizrz47HHHjPPt2zZ0rh48aLZNnXqVKu422d+PP/88+b5QYMGWd1v7ty5Zlvnzp3N87fP/JBkzJs3zzAMw8jLyzNGjhxpnnd1dTVu3rx5T+MGioqZH0DJ4r8qwO8DzzrgXHimAedW0DNe0MyPrKwsY9GiRYaPj49Rvnx5Iz4+3jAMw/j4448NSca//vUvm2vl5eUZjz76qOHm5mb1jil/5oXFYrGZyWEYhvHEE08YlSpVsjk/bdo0o3fv3saFCxcMwzCM2bNnG5KMsLAwu2OZNWuWIcno06eP1fn8+5cvX95ISkqyifvnP/9pSDISEhLsXhcoDGZ+FB8zP0opX19f7d69W+Hh4SpTpozdPlu3blVoaKi2b99eorncuHFDX3/9tXk8ceJE+fn5mccRERFq3ry5TVxubq6+/PJL83j06NFW7T179pSbm5ukW+sv2tOhQwf17dtXkmSxWDRixAizLScnR0lJSUUYEQAAAAAAAIri7Nmz8vf3l7+/v6pXr67y5curV69eKl++vL744guFhIRIklasWCHp1nujX7NYLOrUqZOys7N18OBBm/bAwEC1a9fO5nyNGjWUkZGhGTNmKC8vzzw/aNAgffbZZ6pcubIkacmSJZJs30XlCw8PV40aNbR8+XKr6+Rr3ry5ateubXM+ODhYksz9dAE4Fhuel2J16tTRnDlzFBMTo/3792vfvn3av3+/du7caU7Ly8nJUVRUlA4fPlxieZw4ccLqF0GLFi1s+rRo0cJc2irfDz/8oKysLPM4MDDQJi5/muClS5d07tw5VatWzaq9UaNGVsf5v8Ty3X59AAAAAAAAlCx3d3d17NhRkuTq6qpatWopMDBQXbp0UdmyZc1+R44ckcVi0dNPP233OhkZGZKk77//Xu3bt7dqCwgIsBsTHR2tNWvWaODAgRo1apRat26tNm3aqFOnTmratKnZ79ChQ/Lw8CjwOi4uLgoKCtKmTZt08uRJNWzY0Kq9Ro0aduMqVqwoSUpPT7fbDuDBovjhBLy8vNS+fXvzF0F2drZefPFFzZ8/X5J07NgxZWZmqly5ciVy/9vXPyxTpowqVKhg0yf/h//tzp07d9dre3h4mJ/PnDljU/woaNYLAAAAAAAAHjwfHx/NmDHjjn0Mw1BKSoo8PDzUqlWrO/a1V2goX7683b6NGzfWiRMn9PHHH2vz5s3atGmT1qxZo9GjR6tv376aM2eOLBaLUlJS5O3tLReXghfF8fHxkXTrvdevix8Wi+WOOQP4baD4UQodPnxYoaGh5vH69eutNkB3c3NTz549zeJHbm6urly5UujiR05OjtXx1atX7farX7+++Tk3N1fJyck2U/8SExNt4ho3bmx+LlOmjNLS0qyKHQAAAAAAAHA+FotFDz30kI4ePapp06bJ3d39vl3b19dXb7zxht544w1lZWVpx44deu211zR//nx17NhRPXv2VGBgoA4ePKjr168XWEjJf5fVpEmT+5YbgAeLPT9KocDAQF25ckXnzp3TuXPn7FbTt27dan729/dXlSpVJNnOlEhJSbE6zu8n3ZoxUtA1b+fv72/1i2LOnDlW7UlJSVq3bp1NXPXq1c375ebmas2aNVbtmZmZGjRokPr166d+/frp+vXrdu9/L+42bgAAAAAAADw4wcHBys3NtdpH9naJiYn66quvdPr06Xu6Xk5OjkaPHq1Zs2aZ5zw8PPS3v/3NfHeWvyR78+bNZRiG1q5da/daSUlJOnjwoBo0aKBKlSoVZlgAfkMofpRCrq6uCgsLM48//vhjde7cWTExMZo5c6Z69+6tyZMnm+39+/c3P1epUsVqdkVUVJRmzZqlLVu2SJIeeughs+2LL77QpEmTtHXrVk2cOFFjx461m4/FYtELL7xgHo8fP16vvfaa1q9fr+nTp6tt27a6ceOG3dg333zT/Dx48GAtW7ZMaWlpSk5OVmRkpD799FPNnTtXx44dK7ASfy/uNm4AAAAAAAA8OCNHjpSrq6tGjhypK1euWLXl5eVp4MCB+sc//mF3w3F7XF1dtXTpUv3rX/9SamqqVVv+Hhz5y6lHR0erfPnyGjVqlH755RervpmZmYqMjFR2drbeeeedog4PwG8Ay16VUlOmTNHevXvNivXq1au1evVqm36hoaF6/fXXzWMXFxf9/e9/1xdffGEVN2rUKHXo0EF9+/bVO++8o9TUVN28eVOvvfaaGfvMM8/YzM7IN27cOC1btkxnzpxRbm6uJk2apEmTJkm6td9Hu3bttGPHDpu4iIgIbdq0SV9++aUuXLigbt262fTx9PTUhx9+WIjvjq27jRsAAAAAAAAPTnBwsP79739rzJgxCg4OVr9+/RQQEKC0tDR9/vnn+vrrrzVs2DDVqVPnnq85evRovfDCC2rbtq0GDRqkatWq6dSpU4qJiZGXl5f53ql+/fqKiYlRRESEmjVrpgEDBigoKEg///yzFi1apO+//159+/ZVjx49Smr4AB4AZn6UUh4eHtqzZ4+mTp2qBg0aWG3QZLFYFBAQoNmzZ2v9+vU2Sz599NFH6ty5s9U5V9dbdTA/Pz+tXLlSjRo1smqLiIjQe++9V2A+f/jDHxQfH6+uXbua15JuTSPcsWOHAgIC7MZZLBatWLFCn332mRo2bGi1YZSLi4uee+457dq1Sy1btryH78qd3WncAAAAAAAAeLBGjx6tTZs2ydvbW+PHj1evXr0UGRmppKQkffDBB3d8F2VP//79NWvWLF25ckVDhw5Vjx49NHLkSNWoUUNr165V3bp1zb4DBgzQnj17FBgYqA8++EB9+/bVG2+8oby8PC1cuFDz5s27z6MF8KBZDMMwHJ0ECjZmzBhNmDDhrv2ys7N16tQpZWVlKSAg4J42N09PT1dSUpI8PT1Vr149q8KDYRg6ffq0UlJSVL9+fXl7e99zzjdu3NAPP/wgb29vm43P7+batWv68ccf5enpqVq1at3XDa/y3WncQGH5+voqNTVVISEhio+Pd3Q6gNOxWCzivyqA8+NZB5wLzzTg3ErqGc/KytLJkydVuXJlVa5cudjXS0lJ0fnz51W7dm15enresW9OTo4SExNVq1YtVahQodj3Bu6HESNGaMqUKY5Oo1Tjz96dhJubm9VsjXvh7e1dYFHDYrGodu3ahS5eSJK7u7uCg4MLHSdJFSpUUEhISJFi79Wdxg0AAAAAAIAHz8PDQ02aNLlv1/Pz85Ofn9899XV1dbXaBxeAc2DZKwAAAAAAAAAA4FQofgAAAAAAAAAAAKdC8QMAAAAAAAAAADgVih8AAAAAAAAAAMCpUPwAAAAAAAAAAABOheIHAAAAAAAAAABwKq6OTgB3tmvXLlksFkenAeAuDhw4wLMKlBCeLeD3gWcdcC4804Bz4xkHSl7r1q0dnUKpR/HjN65t27batWuXo9MAUABfX1+lpqYqJCRE8fHxjk4HcDoWi0WGYTg6DQAljGcdcC4804Bz4xkHHowRI0Y4OoVSj2WvAAAAAAAAAACAU6H4AQAAAAAAAAAAnArFDwAAAAAAAAAA4FQofgAAAAAAAAAAAKdC8QMAAAAAAAAAADgVih8AAAAAAAAAAMCpUPwAAAAAAAAAAABOheIHAAAAAAAAAABwKhQ/AAAAAAAAAACAU6H4gQdi2rRp6t69u7p376758+c7Oh0AAAAAAAD8jjVo0EANGjRwdBpFcvz4cWVmZhY6rjSPGSgKV0cngOJJTU1VTEyMvvvuOx0/flweHh6qW7eu2rRpo4iICFWsWNHRKUqS4uLitHTpUklS3bp1HZsMAAAAAAAASsTVq1cVExOjb775RidOnJCfn58CAgL00ksvqVWrVo5Oz3T9+nVHp1Ak27ZtU/v27fXoo4/q22+/LVRsaR0zUFQUP0qxpUuXasCAAcrIyLA6f/DgQa1cuVITJ07UunXr1LJlSwdlCAAAAAAAgN+LQ4cO6cknn9S5c+cUHBysxo0bKy0tTcuWLdO8efMUFRWljz76yCYuIyNDOTk58vHxkcVicUDmD1Zxxuvt7a1y5cqpevXqJZQd4DxY9qqUOnTokMLCwszCR6VKldSuXTs98sgjKlOmjCTp0qVL6tq1q1JTU824M2fOyNPT0/y6du2aQ/J/0H6v4wYAAAAAAHgQbty4oW7duun69evavXu3EhIS9OWXX2rHjh06ffq0unTpov/97392l0Pv1KmT/Pz8dPnyZQdk/uAVZ7wPP/ywLl68qBUrVpRAZoBzofhRSk2bNs2cqhYUFKRTp05p+/bt2rt3r2JjY1WhQgVJUnJyslatWmXGGYahq1evml+/F7/XcQMAAAAAADwIcXFxOn78uIYOHao///nPVm3e3t5asGCBypUrp7lz5zomQSeS/94PwJ2x7FUpFRsba35++umn5e3tbR4//PDDioqK0pYtWyRJp0+fliRt2rRJ27Zts7rOlClT5O7urieeeEKPPPKIli9frh9//FGS1K5dO6u1GNPT0zV9+nTz+LXXXrOZmnfs2DGtWLFC3333ndzd3fX4448rLCzsruPJzc3VihUrFBcXp6NHj6p69er64x//qL59+9rsW7JhwwYdOHBAkvSnP/1J7du315IlS7RhwwZlZGQoMDBQgwcPlr+//z2PGwAAAAAAAEV34sQJSVLNmjXttnt6emrevHm6ePGiee7AgQPasGGD+e7q/fffV7ly5VSnTh09//zzSkpK0uLFi/XII4/oiSeesLnm2rVrdejQIfXr109VqlSxaTcMQxs2bNC+ffuUmJiounXr6v/+7//UqFGjAsdhGIbWrVun2NhYnTp1Sg0bNlRoaKjd90epqamaMWOGGjdurC5dumjjxo1au3at0tLSFBAQoN69e1vtfXu38d6LK1euaOrUqWrQoIG6det2X8YMOC0Dv2mjR4+2e759+/aGJEOS0axZMyM1NfWu14qKijJjfv01efJkwzAM49lnnzXP/ec//7GKP3HihFVMTk6OVfvMmTONcuXK2Vy7W7duRnh4uHn86quvWsUdOHDAaN68ud28atSoYaxatcqq/0svvWS2Dx482AgLC7OJ8/LyMr777rt7HjdQVD4+PoYkIyQkxNGpAE6J/6oAvw8864Bz4ZkGnFtBz3hcXJwhyXjmmWfu+VrTpk2z+77mr3/9q2EYhrF582a775Ly5b9vOnDggE3b2bNnjdDQUEOS4eLiYtSsWdMoU6aM4e7ubmzcuNGoVq2aUa1aNauY5ORk851b2bJlDX9/f6NMmTKGxWIx+vfvb2RnZ1v1P3bsmCHJ6N69u9GjRw9DklGuXDnD1dXVkGRUqFDBWLdu3T2P914kJycbkoxOnTrdlzHjt2v48OGOTqHUY9mrUqpZs2bm54SEBPn7+6tz584aN26cVq9erTNnztjE1K1bVw8//LDVuZYtW6pVq1bF3iQpNjZWL774ojIzMyXdqua3bdtWjRo10tKlS7Vo0SK7cRcvXlRoaKji4uIkSe3bt9dbb72lvn37ytXVVWfOnNHzzz+vkydP2o1fsGCB5s2bJ29vb3l5eZnnL1++rOHDh5f4uAEAAAAAAHDrXdVjjz2mNWvWqE2bNlqwYEGB73Py9evXT+np6ebKI0lJSUpPT9eXX35ZrFzy8vLUqVMnbdmyRW+++aYyMjKUnJysa9euaeLEierRo4fS0tKsYnJzc/XMM89o+/btmjRpkq5evaqff/5Z6enpioqK0uzZszVx4kS791uzZo2OHj2qPXv26Nq1a8rMzNT8+fOVmZmpyMhIZWdnl+h4izpmwNlR/CiloqOjraYRXrt2TatXr9Zbb72lzp07q2bNmurQoYO2b99u9hkxYoTV/h+StG3bNu3Zs0e9evUqVj6vvvqqDMOQdKuwcPLkSe3cuVM//PCDpk6dav6Q/7WXX37ZnO44aNAg8wf0vHnzNHPmTHNsw4YNsxt/+fJlzZs3T2lpaUpPT9fIkSPNtq+//lo5OTklOm4AAAAAAABIZcqU0fLly9WzZ0/t2bNHffr0UYMGDVS1alV17dpV06ZNU1ZWllWMm5ubKlWqJFfXWyvzV6pUSZUqVSr2nhZz5sxRXFycIiMj9dZbb5lLqru7u2vo0KEaMmSIbty4YRUzffp0JSQkaMSIEXr11Vfl5uYmSapYsaJiYmL06KOPavz48UpJSbF7z1WrVqlVq1ayWCxydXVVnz591K1bN508eVLHjh0r0fEWdcyAs6P4UUr5+vpq9+7dCg8PV5kyZez22bp1q0JDQ60KICXhxo0b+vrrr83jiRMnys/PzzyOiIhQ8+bNbeJyc3OtKtujR4+2au/Zs6f5i+abb76xe+8OHTqob9++kiSLxaIRI0aYbTk5OUpKSirCiAAAAAAAAFBYvr6+WrRokU6cOKEZM2aof//+8vHx0ZdffqmIiAg1bNhQ+/btK/E8lixZIkl65ZVX7LYPGTLE5tyKFSsk3XqP9WsWi0WdOnVSdna2Dh48aNPevHlz1a5d2+Z8cHCwJJn765akoowZcHZseF6K1alTR3PmzFFMTIz279+vffv2af/+/dq5c6c5myInJ0dRUVE6fPhwieVx4sQJ5eXlmcctWrSw6dOiRQtzaat8P/zwg1XFPzAw0CYuf8bIpUuXdO7cOVWrVs2q/debNVWuXNnq+Nd/UQAAAAAAAICSVa9ePQ0YMEADBgyQJJ0/f16TJ0/W5MmT1a1bNx05ckSenp4ldv+jR4/Kw8PDarPx2/n5+cnb29vq3JEjR2SxWPT000/bjcnIyJAkff/992rfvr1VW40aNezG5M++SE9PL0z6RVKUMQPOjuKHE/Dy8lL79u3NH7zZ2dl68cUXNX/+fEnSsWPHlJmZqXLlypXI/fMLLdKtKY72purl/7C/3blz5+56bQ8PD/PzmTNnbIofBc16AQAAAAAAwG9D1apVNWnSJJ05c0aLFi3S/v379cQTT5TIvQzD0NmzZ+Xn5yeLxVJgPy8vL/OPbg3DUEpKijw8PMz9OApir9Bxp/s8CEUZM/B7QPGjFDp8+LBCQ0PN4/Xr11ttgO7m5qaePXuaxY/c3FxduXKl0MWPnJwcq+OrV6/a7Ve/fn3zc25urpKTk22m+iUmJtrENW7c2PxcpkwZpaWlWRU7AAAAAAAAUDp0795dFy5c0LZt2+TiYn+l/datW2vRokX68ccfC1X8uH3FkdvZ28PCYrGobt26SkxMLPCPgbOyspScnKwqVaqYMQ899JCOHj2qadOmyd3d/Z5z+y0oypiB3wP2/CiFAgMDdeXKFZ07d07nzp3TjBkzbPps3brV/Ozv72/+YPv1TIlfb9J0+w/A/M2Y7F3zdv7+/ipfvrx5PGfOHKv2pKQkrVu3ziauevXq5v1yc3O1Zs0aq/bMzEwNGjRI/fr1U79+/XT9+nW7978Xdxs3AAAAAAAAiq5cuXLauXOnvv322wL75P9x7O1/EHs7wzCsjmvWrCnp1rJZ9iQkJNg936RJExmGoZ07d9pt37x5s01BJTg4WLm5uVb72v4696+++kqnT5+2214Uvx5vcRRlzICzo/hRCrm6uiosLMw8/vjjj9W5c2fFxMRo5syZ6t27tyZPnmy29+/f3/xcpUoVq9kVUVFRmjVrlrZs2SJJeuihh8y2L774QpMmTdLWrVs1ceJEjR071m4+FotFL7zwgnk8fvx4vfbaa1q/fr2mT5+utm3b2q3ES9Kbb75pfh48eLCWLVumtLQ0JScnKzIyUp9++qnmzp2rY8eOWRVYCutu4wYAAAAAAEDRDRw4UC4uLho2bJjS0tJs2hMSEjRz5kzVqlXLZr9YLy8vSbf2h71d/fr1VbZsWW3cuFGXL1+2apszZ46+//57u7lERUVJkl577TVzr45858+f1/Dhw21iRo4cKVdXV40cOVJXrlyxasvLy9PAgQP1j3/8474UEAoab3EUZcyAs6P4UUpNmTJFzZs3N49Xr16tYcOG6cUXX9TChQvNynFoaKhef/11s5+Li4v+/ve/W8UNGDBAmzdvliT17dtXPj4+kqSbN2/qtddeU4cOHTRq1Kg7TkccN26cueZhbm6uJk2apKeeekovvfSS0tLS1K5dO7txERERevbZZyVJFy5cULdu3eTj4yN/f39zBomnp6c+/PDDQn+Pbne3cQMAAAAAAKDo2rRpo1GjRik2NlaBgYF65ZVXNHXqVH3yySd64YUX9Mgjj+jmzZtasmSJzbJM+e+NIiIi9P777+vtt9+WdGtp96FDh+rixYtq2bKlJkyYoA8//FDdunXT4MGD1bJlS7u5hIaGKiwsTAcPHlRISIgmTJigBQsWKDo6WkFBQQoMDFTlypWtYoKDg/Xvf/9bcXFx5ufPP/9cU6dOVbt27bR161YNHTpUderUKfb3qqDxFkdRxgw4O4ofpZSHh4f27NmjqVOnqkGDBlZrKVosFgUEBGj27Nlav369zZJPH330kTp37mx1ztX11vYvfn5+WrlypRo1amTVFhERoffee6/AfP7whz8oPj5eXbt2Na8lSc2bN9eOHTsUEBBgN85isWjFihX67LPP1LBhQ6tNmVxcXPTcc89p165dBf4yK4w7jRsAAAAAAADF884772jjxo2qW7eupk+frsjISA0ePFiLFy9W586ddeTIEbVu3dombujQoerdu7cSEhI0fPhwzZo1y2wbN26chgwZosTEREVHR2vo0KE6fvy4Nm7cqKCgoAJzmTt3rqZOnaqbN28qOjpaffr00SeffKKoqCgtX77c5n2ZJI0ePVqbNm2St7e3uHXfHAAAIABJREFUxo8fr169eikyMlJJSUn64IMP7vhurDDuNN7iKMqYAWdmMe7n4nK478aMGaMJEybctV92drZOnTqlrKwsBQQE3NPm5unp6UpKSpKnp6fq1atnVXgwDEOnT59WSkqK6tevL29v73vO+caNG/rhhx/k7e1ts/H53Vy7dk0//vijPD09VatWrRLZYOpO4wYKy9fXV6mpqQoJCVF8fLyj0wGcjsViua/r4AL4beJZB5wLzzTg3O71GTcMQz///LPy8vJUt27de3r/kpWVpbNnz6patWo277Zu3Lihn376SV5eXubqI/cqJSVFqampqlevnsqWLXtPMVlZWTp58qQqV65cYjMm7jTe4irKmPHbMmLECE2ZMsXRaZRq/Nm7k3Bzc7OarXEvvL29CyxqWCwW1a5du9DFC0lyd3dXcHBwoeMkqUKFCgoJCSlS7L2607gBAAAAAABQfBaLpdBLRHl4eKhevXp229zd3RUYGFikXPz8/OTn51foXJo0aVKk+xXmHgWNt7iKMmbA2bDsFQAAAAAAAAA4UG5ursqWLXvHrx49ejg6TaBUYeYHAAAAAAAAADiQi4vLXTc+f+ihhx5QNoBzoPgBAAAAAAAAAA5ksVg0cuRIR6cBOBWWvQIAAAAAAAAAAE6F4gcAAAAAAAAAAHAqFD8AAAAAAAAAAIBTYc+P37hdu3bJYrE4Og0Ad3HgwAGeVaCE8GwBvw8864Bz4ZkGnBvPOFDyWrdu7egUSj2KH79xbdu21a5duxydBoAC+Pr6KjU1VSEhIYqPj3d0OoDTsVgsMgzD0WkAKGE864Bz4ZkGnBvPOPBgjBgxwtEplHosewUAAAAAAAAAAJwKxQ8AAAAAAAAAAOBUKH4AAAAAAAAAAACnQvEDAAAAAAAAAAA4FYofAAAAAAAAAADAqVD8AAAAAAAAAAAAToXiBwAAAAAAAAAAcCoUPwAAAAAAAAAAgFOh+AEAAAAAAAAAAJyKq6MTwG/fp59+qk2bNkmSOnbsqBdeeMHBGVlbvHixli1bJkn6y1/+omHDhjk4IwAAAAAAAPyWNWjQQJKUmJjo4EwAlBSKH6VcamqqYmJi9N133+n48ePy8PBQ3bp11aZNG0VERKhixYrFvkd8fLyWLl0qSapWrVqxr3e/HTlyxMzP1ZV/0gAAAAAAAI5y9epVxcTE6JtvvtGJEyfk5+engIAAvfTSS2rVqpWj0zNdv37d0SkAKGG8KS7Fli5dqgEDBigjI8Pq/MGDB7Vy5UpNnDhR69atU8uWLR2UIQAAAAAAAH4vDh06pCeffFLnzp1TcHCwGjdurLS0NC1btkzz5s1TVFSUPvroI5u4jIwM5eTkyMfHRxaLxQGZP1i/t/ECjsKeH6XUoUOHFBYWZhY+KlWqpHbt2umRRx5RmTJlJEmXLl1S165dlZqa6shUAQAAAAAA4ORu3Lihbt266fr169q9e7cSEhL05ZdfaseOHTp9+rS6dOmi//3vf5o/f75NbKdOneTn56fLly87IPMH7/c2XsBRKH6UUtOmTTOn5wUFBenUqVPavn279u7dq9jYWFWoUEGSlJycrFWrVjkyVQAAAAAAADi5uLg4HT9+XEOHDtWf//xnqzZvb28tWLBA5cqV09y5cx2TIIDfHZa9KqViY2PNz08//bS8vb3N44cfflhRUVHasmWLJOn06dM28bm5uVqxYoXi4uJ09OhReXt7KzAwUOHh4Xfd1yM3N1dLlizRhg0blJGRocDAQA0ePFj+/v42fQ3D0KpVq7R//34dOXJEfn5+atq0qTp16qR69eoVeI+ixgEAAAAAAODBO3HihCSpZs2adts9PT01b948Xbx40Tx34MABbdiwwXx39f7776tcuXKqU6eOnn/+eSUlJWnx4sV65JFH9MQTT9hcc+3atTp06JD69eunKlWq2LQbhqENGzZo3759SkxMVN26dfV///d/atSoUYHjMAxD69atU2xsrE6dOqWGDRsqNDRUjzzyiE3f1NRUzZgxQ40bN1aXLl20ceNGrV27VmlpaQoICFDv3r1Vt27dex4vgPvMwG/a6NGj7Z5v3769IcmQZDRr1sxITU2952vGx8cbzZs3N+Nv/3J3dzc++eQTq/4vvfSS2T548GAjLCzMJs7Ly8v47rvvrOKOHDli/OUvf7F7n3Llyhlvv/22cfPmTZv8Chs3duxYs/3555+/5+8DcD/4+PgYkoyQkBBHpwI4Jf6rAvw+8KwDzoVnGnBuBT3jcXFxhiTjmWeeuedrTZs2ze77n7/+9a+GYRjG5s2bDUnGq6++ajc+PDzckGQcOHDApu3s2bNGaGioIclwcXExatasaZQpU8Zwd3c3Nm7caFSrVs2oVq2aVUxycrL5zq1s2bKGv7+/UaZMGcNisRj9+/c3srOzrfofO3bMkGR0797d6NGjh/nuytXV1ZBkVKhQwVi3bt09jxe43fDhwx2dQqnHslelVLNmzczPCQkJ8vf3V+fOnTVu3DitXr1aZ86csRt38eJFPfnkk4qLi5MklS1bVkFBQfLw8JB0a33GyMhIbdy40W78ggULNG/ePHl7e8vLy8s8f/nyZQ0fPtw8vnTpkjp06KDdu3dLujW9sUOHDmratKkkKTMzU2PHjtU777xjdf2ixgEAAAAAAMBxmjVrpscee0xr1qxRmzZttGDBAp08efKOMf369VN6erpatWolSUpKSlJ6erq+/PLLYuWSl5enTp06acuWLXrzzTeVkZGh5ORkXbt2TRMnTlSPHj2UlpZmFZObm6tnnnlG27dv16RJk3T16lX9/PPPSk9PV1RUlGbPnq2JEyfavd+aNWt09OhR7dmzR9euXVNmZqbmz5+vzMxMRUZGKjs7u0THC8A+ih+lVHR0tNU0wmvXrmn16tV666231LlzZ9WsWVMdOnTQ9u3breKGDBliTi9s0qSJTpw4ocOHDyslJUVDhgyRdOsXxMyZM+3e9/Lly5o3b57S0tKUnp6ukSNHmm1ff/21cnJyJEkvv/yyzp07J0lq0aKFfvzxR23evFmHDh3SnDlzzJi3335bCQkJ5nFR4wAAAAAAAOA4ZcqU0fLly9WzZ0/t2bNHffr0UYMGDVS1alV17dpV06ZNU1ZWllWMm5ubKlWqJFfXWyvzV6pUSZUqVTL3si2qOXPmKC4uTpGRkXrrrbdUsWJFSZK7u7uGDh2qIUOG6MaNG1Yx06dPV0JCgkaMGKFXX31Vbm5ukqSKFSsqJiZGjz76qMaPH6+UlBS791y1apVatWoli8UiV1dX9enTR926ddPJkyd17NixEh0vAPsofpRSvr6+2r17t8LDw1WmTBm7fbZu3arQ0FCzAJKbm6uVK1ea7e+9955q164tSapQoYLeeustdezYUR07dizwmh06dFDfvn0lSRaLRSNGjDDbcnJylJSUZO4nkm/y5Mny8/Mzj8PDw9WuXTszZvXq1WZ+RYkDAAAAAACA4/n6+mrRokU6ceKEZsyYof79+8vHx0dffvmlIiIi1LBhQ+3bt6/E81iyZIkk6ZVXXrHbnv8HwLfLfycVERFh02axWNSpUydlZ2fr4MGDNu3Nmzc337HdLjg4WJL0448/3nvyAO4bNjwvxerUqaM5c+YoJiZG+/fv1759+7R//37t3LnTnN2Rk5OjqKgoHT58WMePH1dmZqYZ36ZNG6vr+fj4aN26dXe85683hKpcubLVcVZWln744Qer+9jbEKp169basWOHJCk+Pl6SihwHAAAAAACA34569eppwIABGjBggCTp/Pnzmjx5siZPnqxu3brpyJEj8vT0LLH7Hz16VB4eHlabjd/Oz89P3t7eVueOHDkii8Wip59+2m5MRkaGJOn7779X+/btrdpq1KhhNyZ/xkl6enph0gdwn1D8cAJeXl5q3769+YM3OztbL774oubPny9JOnbsmDIzM3X27Fkzxs3NTeXLly/0vQqaEXK7/GWrpFt7iuTvJ3K7SpUqmZ8vXbpUrDgAAAAAAAD8dlWtWlWTJk3SmTNntGjRIu3fv19PPPFEidzLMAydPXtWfn5+slgsBfbz8vIy9+IwDEMpKSny8PAw9+MoiL1Cx53uA8BxKH6UQocPH1ZoaKh5vH79eqsN0N3c3NSzZ0+z+JGbm6srV66ocePGZp/s7GydP39e1apVs7r26tWrzUp2jx49zDUICyN/c3JJunnzps6cOWO1P4kknTp1yvycPwWwqHEAAAAAAABwrO7du+vChQvatm2bXFzsr7TfunVrLVq0SD/++GOhih95eXl2z/963w7pViGibt26SkxMVGZmpsqVK2fTJysrS8nJyapSpYoZ89BDD+no0aOaNm2a3N3d7zk3AL9d7PlRCgUGBurKlSs6d+6czp07pxkzZtj02bp1q/nZ399fVapUUfXq1a2WqVq4cKFVzIULF/Tcc8+pd+/eio6OLlLhQ5KqVKmiWrVqmcdz5861ar9y5YqWLl1qHjdv3rxYcQAAAAAAAHCscuXKaefOnfr2228L7JOYmChJVn+gezvDMKyO8/8o9vz583b7JyQk2D3fpEkTGYahnTt32m3fvHmzTUElODhYubm5+vrrrwvM/auvvtLp06ftthfFr8cL4P6i+FEKubq6KiwszDz++OOP1blzZ8XExGjmzJnq3bu3Jk+ebLb379/f/DxmzBjzc3R0tCZMmKB9+/Zp7dq1euqpp8zpfs8++2yxcnz33XfNz2+++abeeOMN7d69W8uXL9djjz1mLlkVEhKinj17FjsOAAAAAAAAjjNw4EC5uLho2LBhSktLs2lPSEjQzJkzVatWLbVo0cKqzcvLS9Kt/WBvV79+fZUtW1YbN27U5cuXrdrmzJmj77//3m4uUVFRkqTXXnvNXOEk3/nz5zV8+HCbmJEjR8rV1VUjR47UlStXrNry8vI0cOBA/eMf/yhwFkphFDReAPcXy16VUlOmTNHevXsVFxcn6dZyVatXr7bpFxoaqtdff908Hjp0qDZs2KD169frxo0bio6OVnR0tFVMUFCQJkyYUKz8evfure3bt2vWrFnKzc3V+PHjNX78eKs+VatW1WeffaayZcsWOw4AAAAAAACO06ZNG40aNUoTJkxQYGCgevXqpYCAAFksFu3fv18LFiyQxWLRkiVLbJaiateundauXauIiAj16dNH165d09ixY+Xm5qahQ4dq8uTJatmypcLCwlSxYkXt3LlTa9asUcuWLRUbG2uTS2hoqMLCwjRv3jyFhIToxRdfVO3atXX06FFNnz5df/7zn202IQ8ODta///1vjRkzRsHBwerXr58CAgKUlpamzz//XF9//bWGDRumOnXqFPt7VdB4AdxfzPwopTw8PLRnzx5NnTpVDRo0sFpL0WKxKCAgQLNnz9b69eutNim3WCxau3atZsyYYfPD2tPTUyNHjtQ333xTpM3Qf23mzJn66quv1LRpU6v8fHx8FBERoWPHjlnt81HcOAAAAAAAADjOO++8o40bN6pu3bqaPn26IiMjNXjwYC1evFidO3fWkSNH1Lp1a5u4oUOHqnfv3kpISNDw4cM1a9Yss23cuHEaMmSIEhMTFR0draFDh+r48ePauHGjgoKCCsxl7ty5mjp1qm7evKno6Gj16dNHn3zyiaKiorR8+XKr92X5Ro8erU2bNsnb21vjx49Xr169FBkZqaSkJH3wwQd677337sv36U7jBXD/WAwWl/tNGzNmzD3NwsjOztapU6eUlZWlgIAAu5s52XP58mUlJiaqatWqqlGjRnHTLVBWVpaOHz8uPz+/Qt2nqHHAg+Lr66vU1FSFhIQoPj7e0ekATsdisbAOLvA7wLMOOBeeacC53eszbhiGfv75Z+Xl5alu3bqyWCx3jcnKytLZs2dVrVo1m3dbN27c0E8//SQvL69CvyNKSUlRamqq6tWrd88riWRlZenkyZOqXLmy1R6699OdxguMGDFCU6ZMcXQapRrLXjkJNzc3NWrUqNBxXl5eevjhh0sgI2seHh4KDg5+YHEAAAAAAABwHIvFUuglojw8PFSvXj27be7u7goMDCxSLn5+fvLz8yt0Lk2aNCnS/Qpzj4LGC6D4WPYKAAAAAAAAAAA4FYofAAAAAAAAAADAqVD8AAAAAAAAAAAAToXiBwAAAAAAAAAAcCoUPwAAAAAAAAAAgFOh+AEAAAAAAAAAAJwKxQ8AAAAAAAAAAOBUXB2dAO5s165dslgsjk4DwF0cOHCAZxUoITxbwO8DzzrgXHimAefGMw6UvNatWzs6hVKP4sdvXNu2bbVr1y5HpwGgAL6+vkpNTVVISIji4+MdnQ7gdCwWiwzDcHQaAEoYzzrgXHimAefGMw48GCNGjHB0CqUey14BAAAAAAAAAACnQvEDAAAAAAAAAAA4FYofAAAAAAAAAADAqVD8AAAAAAAAAAAAToXiBwAAAAAAAAAAcCoUPwAAAAAAAAAAgFOh+AEAAAAAAAAAAJwKxQ8AAAAAAAAAAOBUKH4AAAAAAAAAAACnQvEDd/Xpp5+qe/fu6t69u2bNmuXodGwsXrzYzO+DDz5wdDoAAAAAAAAopDNnzsjT01OdO3d2dCoAnISroxNA8aSmpiomJkbfffedjh8/Lg8PD9WtW1dt2rRRRESEKlasWOx7xMfHa+nSpZKkatWqFft699uRI0fM/Fxd+ScNAAAAAADgaPv27dOcOXP07bffKiUlRdWrV1fDhg3Vq1cvderUyaa/YRi6evWqsrKyHJAtAGfEm+JSbOnSpRowYIAyMjKszh88eFArV67UxIkTtW7dOrVs2dJBGQIAAAAAAOD3JCcnR+PGjdOECRNksVjUpEkTtWvXTqmpqdqxY4c+//xzNW/eXKtXr/5N/pEtAOdB8aOUOnTokMLCwnT9+nVJUqVKlRQSEqLMzEzFxcUpNzdXly5dUteuXZWQkCAfHx8HZwwAAAAAAABnlpeXpyeffFLbtm1Tx44d9dlnn8nPz89sv3nzpj788EO9+uqr6tSpk3bs2KEKFSo4MGMAzow9P0qpadOmmYWPoKAgnTp1Stu3b9fevXsVGxtr/uJITk7WqlWrHJkqAAAAAAAAfgc+/fRTbdu2TX379tXatWutCh+SVLZsWY0YMUJRUVGKi4vT3LlzHZMogN8FZn6UUrGxsebnp59+Wt7e3ubxww8/rKioKG3ZskWSdPr0aZv43NxcrVixQnFxcTp69Ki8vb0VGBio8PDwu045zM3N1ZIlS7RhwwZlZGQoMDBQgwcPlr+/v01fwzC0atUq7d+/X0eOHJGfn5+aNm2qTp06qV69egXeo6hxAAAAAAAAePBSUlI0ZswYVahQQRMnTpTFYimw76BBg/S///1Pq1atUmRk5D1d/6efftKiRYuUmJgoNzc3BQUFKTw8XJ6enlb9cnNztXTpUu3atUvXrl1To0aN1LdvX9WsWdPmmoXp+2upqamaMWOGGjdurC5dumj//v1aunSpnnjiCf3tb3+z6vvNN99oz549OnLkiGrXrq0//elPevrpp++4d21hYm7PpVOnTlq+fLm2bNmirKwstWrVSmFhYfLw8JAkbd68WWvWrFFqaqoeeughvfjii6pcufJdxwuUSgZ+00aPHm33fPv27Q1JhiSjWbNmRmpq6j1fMz4+3mjevLkZf/uXu7u78cknn1j1f+mll8z2wYMHG2FhYTZxXl5exnfffWcVd+TIEeMvf/mL3fuUK1fOePvtt42bN2/a5FfYuLFjx5rtzz///D1/H4D7wcfHx5BkhISEODoVwCnxXxXg94FnHXAuPNOAcyvoGZ86daohyYiIiLin6+zfv984cOCAeZycnGxIMv7617/a9P3oo48MFxcXw8XFxahVq5bxhz/8wZBkVK5c2fjpp5/MfpcvXzZatmxpSDI8PDyMmjVrmp+3b99udc3C9LXn2LFj5ruoGTNmmO+mPvjgA7PPpUuXjF69epltNWrUMFxdXQ1Jxp/+9Cfj0KFDNtctSkx+Lj169DAGDBhgSDIqVKhgWCwWQ5LRunVr4+rVq8bf//538/2fm5ubIcnw9fU1Dh8+fNfx4sEbPny4o1Mo9Vj2qpRq1qyZ+TkhIUH+/v7q3Lmzxo0bp9WrV+vMmTN24y5evKgnn3xScXFxkm5NNwwKCjKrvzdu3FBkZKQ2btxoN37BggWaN2+evL295eXlZZ6/fPmyhg8fbh5funRJHTp00O7duyVJ3t7e6tChg5o2bSpJyszM1NixY/XOO+9YXb+ocQAAAAAAAHCcXbt2SZL++Mc/3lP/5s2bW73fKkhCQoJefvllNW3aVCdPntTp06eVmpqqefPm6eLFixo8eLDZ991331VsbKymT5+uS5cuKTk5WbGxsXJ3d1d4eLjVdQvT905iY2P1+uuv67///a8SEhI0aNAgs+25557TokWLNGTIEKWmpuqXX37R5cuXNW3aNB09elSPP/64Ll68aHW9osTkW7lypRISEnTgwAFdvXpVaWlp6t69u/bs2aMWLVpo165dWrZsma5evarr16/rww8/1KVLl/Tyyy/f83iBUsXR1RfcWUEzP1JSUsyKdEFf7du3N7Zt22YV16NHD7O9SZMmRlJSkmEYhnH16lVjyJAhZlv37t3NmNtnfkgy5s2bZxiGYeTl5RkjR440z7u6upozMm6vULdo0cK4ePGieb05c+ZYxdxe5S9KHDM/4EjM/ABKFv9VAX4feNYB58IzDTi3gp7xxx9/3JBkbNq0qUjXLWjmx3vvvWdUq1bNWLVqlU1MUFCQUalSJfP4iSeesDrON23aNKN3797GhQsXitTXnvzZFhaLxe5MkdmzZxuSjLCwMLvxs2bNMiQZffr0KVbM7blUrFjROHPmjFXbxYsXzfdmn3/+uc01W7RoYbi4uBiZmZl3HC8ePGZ+FB8zP0opX19f7d69W+Hh4SpTpozdPlu3blVoaKi2b98u6dY6hitXrjTb33vvPdWuXVuSVKFCBb311lvq2LGjOnbsWOA1O3TooL59+0qSLBaLRowYYbbl5OQoKSnJ3E8k3+TJk602uAoPD1e7du3MmNWrV5v5FSUOAAAAAAAAjpWVlSVJKl++/H297iuvvKKzZ8+qU6dONm3+/v7KyMjQ+fPnJUk1atRQRkaGZsyYoby8PLPfoEGD9Nlnn1ntbVGYvncSGBhovq+63ZIlSyRJo0ePthsXHh6uGjVqaPny5eb9ixJzuxYtWqh69epW5/z8/FSlShVZLBY988wzNjFNmjRRXl6eTpw4cYdRAqUTxY9SrE6dOpozZ45SU1O1ZcsWvfvuu3ruueesfjjn5OQoKipKknT8+HFlZmaabW3atLG6no+Pj9atW6d169bp888/t3vPRo0aWR3/+hdBVlaWfvjhB6v7PPLIIzbXad26tfk5Pj5ekoocBwAAAAAAAMfy8fGRdGtj8vvNMAzt3btXY8eOVVhYmJ566imFhoZq//79km69/5Kk6OhoeXt7a+DAgapcubI6deqk//znPzp8+LDNNQvT904CAgLsnj906JA8PDwKbHdxcVFQUJCuXbumkydPFjnmdtWqVbMbV758eVWoUMFmc/j8NknKyMiwGwuUZhQ/nICXl5fat2+vUaNGaenSpUpOTjZnZ0jSsWPHlJmZqbNnz5rn3NzcilSJL2hGyO3OnTtnfi5btqy5n8jtKlWqZH6+dOlSseIAAAAAAADgWE2aNJGke55B8OOPPyouLk65ubl37Hfx4kW1bdtWrVq10uLFi5Wdna369euradOmNi/zGzdurBMnTmjcuHEKCgrSpk2bNHr0aP3xj39UWFiY1WyJwvS9E3vv1wzDUEpKiipVqiQXl4Jfv+YXjC5evFikGAB3RvGjFDp8+LCqV69ufiUkJFi1u7m5qWfPnuZxbm6urly5osaNG5vnsrOzzSmBt1u9erUWLlyohQsXmlXzwsrfnFySbt68aXfz9VOnTpmfg4ODixUHAAAAAAAAx3rqqackSYsXL75rQSMvL09t27bVP//5z7v+oW14eLi++eYbLVy4UCdOnNDnn3+ujz/+WO+//75ZcLmdr6+v3njjDe3cuVMZGRlav369goODNX/+fH3xxRdF7lsYFotFgYGBunDhgq5fv15gv8TEREm3CkdFiQFwZxQ/SqHAwEBduXJF586d07lz5zRjxgybPlu3bjU/+/v7q0qVKqpevbrVMlULFy60irlw4YKee+459e7dW9HR0XJ1dS1SflWqVFGtWrXM47lz51q1X7lyRUuXLjWPmzdvXqw4AAAAAAAAOFb79u0VGhqqY8eO2bzT+bWVK1fq/Pnz6tq16x373bhxQ1u3blVwcLB69epl03769Gnzc05OjkaPHq1Zs2aZ5zw8PPS3v/3NfHcWFxdX6L5F1bx5cxmGobVr19ptT0pK0sGDB9WgQQNzpZOixAAoGMWPUsjV1VVhYWHm8ccff6zOnTsrJiZGM2fOVO/evTV58mSzvX///ubnMWPGmJ+jo6M1YcIE7du3T2vXrtVTTz2l7OxsSdKzzz5brBzfffdd8/Obb76pN954Q7t379by5cv12GOPmUtWhYSEWM1SKWocAAAAAAAAHCsmJkaurq6KiorSp59+arfP3r17FR4eLl9fX0VGRt7xemXLlpWrq6u5mfrttm3bZrU/h6urq5YuXap//etfSk1Nteqbnp4u6f/viVGYvkUVHR2t8uXLa9SoUfrll1+s2jIzMxUZGans7Gy98847xYoBULCi/Wk/HG7KlCnau3evWYVevXq1Vq9ebdMvNDRUr7/+unk8dOhQbdiwQevXr9eNGzcUHR2t6Ohoq5igoCBNmDChWPn17t1b27dv16xZs5Sbm6vx48dr/PjxVn2qVq2qzz77TGXLli12HAAAAAAAAByrcePGWrNmjfr166dBgwZp9uzZatWqlRo3bqyUlBR9++23WrNmjdzd3fUaBihQAAAgAElEQVTVV1+pbt26d7yei4uLnn32WS1YsED9+vVT165dlZ2drZ07d2r+/PmqUqWK1R6yo0eP1gsvvKC2bdtq0KBBqlatmk6dOqWYmBh5eXmpW7duRepbFPXr11dMTIwiIiLUrFkzDRgwQEFBQfr555+1aNEiff/99+rbt6969OhRrBgABaP4UUp5eHhoz549mjlzpqZMmaKffvrJ3IjJYrGoYcOGGj16tMLCwqw2SbJYLFq7dq1mzZqlt99+W0lJSWabp6enBg8erDFjxhRpM/Rfmzlzprp06aLo6Gh9//33Zn4+Pj7q0aOHJkyYIG9v7/sWBwAAAAAAAMd68skndejQIY0aNUrLli3T3r17zTZvb28NHDhQY8eOtVr6/E6mTp0qSZo/f77mzp0ri8Wixo0ba9WqVZo4caLVHwPnr37y1ltvaejQoeb5Fi1a6IMPPrAqthSmb1ENGDBAISEhGjZsmD744APduHFDLi4uatSokRYuXGh3Ka+ixACwz2IYhuHoJFCwMWPG3NMsjOzsbJ06dUpZWVkKCAhQuXLl7un6ly9fVmJioqpWraoaNWoUN90CZWVl6fjx4/Lz8yvUfYoaBzwovr6+Sk1NVUhIiOLj4x2dDuB0LBaL+K8K4Px41gHnwjMNOLfCPOO5ubk6c+aM0tPTVbNmTfn4+BT5vteuXdPPP/+sWrVqydPT8679U1JSdP78edWuXfuu/QvTt6hycnKUmJioWrVqqUKFCiUWA+cxYsQITZkyxdFplGrM/HASbm5uatSoUaHjvLy89PDDD5dARtY8PDwUHBz8wOIAAAAAAADgWGXKlJG/v7/8/f2Lfa0KFSqocePG99zfz89Pfn5+971vUbm6uuqhhx4q8RgA/x8bngMAAAAAAAAAAKdC8QMAAAAAAAAAADgVih8AAAAAAAAAAMCpUPwAAAAAAAAAAABOheIHAAAAAAAAAABwKhQ/AAAAAAAAAACAU3F1dAK4s127dslisTg6DQB3ceDAAZ5VoITwbAG/DzzrgHPhmQacG884UPJat27t6BRKPYofv3Ft27bVrl27HJ0GgAL4+voqNTVVISEhio+Pd3Q6gNOxWCwyDMPRaQAoYTzrgHPhmQacG8848GCMGDHC0SmUeix7BQAAAAAAAAAAnArFDwAAAAAAAAAA4FQofgAAAAAAAAAAAKdC8QMAAAAAAAAAADgVih8AAAAAAAAAAMCpUPwAAAAAAAAAAABOheIHAAAAAAAAAABwKhQ/AAAAAAAAAACAU6H4AQAAAAAAAAAAnIqroxNA6ZGXl6eNGzfq2rVr6tKli8qWLevolEyLFy/WsmXLJEl/+ctfNGzYMAdnBAAAAAAAAABwFIofTmLx4sX64osvrM4NGzZM7dq1u2/3iI6O1n/+8x9JUq9evbRw4cL7du3iOnLkiJYuXSpJcnXlnzUA4P+xd/fxOdf////vx2yMDcMwhibnYq0NUUlIJPWud3JWDRGGWEYai8pZRF86e0+UScXbx8mEJMJyEnOyOcsyQ8Jks2HYsO31+8Nvr7ejbRk2x3bsdr1cjsvleD3PjsfzyKtjl+NxPJ9PAAAAAPfS9evX1a1bN1WqVElz5879x7YDBw7U2bNntXDhQjk7O9+jCAEUN3xLbCdmzZql7du3W5WVK1cuX5MfMTEx5vNDhw7l27gAAAAAAAAo2jIzMxUeHq4aNWrcsu1PP/2k48ePKyMj4x5EBqC4IvlhB/7880/t2LEjW/n333+v69ev59v2VO+8846SkpJ05coVcwUIAAAAAAAAAACFDQee24GlS5fKMAxJ0kMPPWSWnz9/Xhs2bMi31/H19VVERIR27typ9u3b59u4AAAAAAAAAADkJ1Z+2IGssy4kKSQkRIGBgfrzzz8l3UiMdOzYMVuftWvXKjo6WtKNpEa7du20ePFirV27VhcuXFDDhg01ePBg1axZ0+yzefNmbdu2TZLUqFEjPffcczmO9cQTT+jrr7/Wzz//rNTUVLVs2VJDhgyRq6urrly5orCwMEVERCgzM1N+fn4aNmyYypQpk+PcYmJi9O233+rYsWO6ePGiatasqdatW+ull15SiRIl8uHdAwAAAAAAQGGybds2/frrrzp48KBq1aolX19fde7cOds5r0lJSZozZ475PdWuXbu0ZMkStW3b1vw+LCMjQ0uWLNHmzZt1+fJl1a9fX/7+/vL09MzxtQ3D0Jo1a7Rz504dP35cdevWVYcOHdSiRYsCnzeAfGagUAsODv7H+lOnThkWi8WQZDg7OxuXLl0yBg8ebEgyJBmVK1c20tPTs/UbNGiQ2Wbw4MFG7969zeusR7ly5Yw9e/aYfUJCQsy6Hj165DjWoEGDjK5du2Ybq0WLFkZsbKxRp06dbHX169c3UlJSssUYFBRkzu3vjyZNmhgXLly4ZWxAQatYsaIhyfDx8bF1KIBd4k8VoHjgXgfsC/c0YN9yu8fT0tIMSUaNGjVuOYaXl5chybh06ZJV+blz54xevXqZ3/FUr17dcHR0NCQZvr6+xv79+63ax8TEmN8FzZkzx+w3c+ZMwzAM4+LFi0bz5s3N7808PT3N55s2bcoW18mTJ4127doZkgwnJyejZs2aRokSJQyLxWK89tprxrVr1/L6NgF3bcSIEbYOochj26sibtmyZeaWV+3bt5eLi4u5IkOSEhIStHnz5n8c45tvvtH8+fPl5uamcuXKmeUXL17UiBEjbiue+fPna8mSJapQoYJKlixplkdGRsrX11dxcXFydXW1Wulx+PBhTZs2zWqcsLAwzZgxQ4ZhyNHRUW3bttWrr74qV1dXSdKBAwduOzYAAAAAAAAUXi+++KK+++47vfHGG0pKStKpU6d08eJFhYaG6tChQ3riiSeUkJCQrd/OnTv1zjvvaNq0adq7d68GDhwoSZoyZYp27typ2bNn69y5czp58qR27typUqVKqU+fPlZjZGRk6JlnntGmTZv04Ycf6tKlSzpx4oTOnz+voUOH6quvvtLUqVPvxdsAIJ+w7VURd/OWV1lJj7Zt26ps2bJKSUmRdGPrqyeeeCLXMS5evKj58+fL399fhmEoODjY/J/5li1blJ6enm1ZYW6uXr2qZcuW6YUXXlBycrLatGmj/fv3S5JSUlI0adIkvf3220pPT9dLL72k77//XpK0adMmq3EWL15sPv/oo4/0xhtvSJLmzZun1157TZL0888/5ykmAAAAAAAA3BvJycnm9zi5OXfuXLayefPmadOmTerdu7c+/vhjs7x06dIaOHCgnJyc1K9fPwUFBenrr7+26nv06FFt3LhRbdq0sSrfvn27ypcvrwEDBphlzZo109SpU7VlyxYlJCSocuXKkqTZs2dr7969GjVqlEaOHGm2d3V11axZsxQZGakJEyZo0KBBcnd3z/sbAsBmWPlRhP3111/mqg6LxaJnn31WklSyZEmrcz6WL19urg7JSfv27eXv72+OExQUZNalp6frjz/+yHNMnTp10gsvvCBJqlChgnr16mXWeXp6asyYMXJwcFDJkiX1+uuvm3WxsbFW40yfPl3R0dGKjo62+oC6+UPs+PHjunLlSp5jAwAAAAAAQMG6fPmyPv300398ZP1g92ZZP4QNDg7Ocdw+ffqoevXqWrZsmTIzM63qGjZsmC3xIUnVq1fXhQsXNGfOHKs+AwcO1IIFC8zEh3Tj+zNJCggIyDaOxWJRly5ddO3aNe3bty8P7wKAwoDkRxF28//s/fz8VKVKFWVkZCgjI0OdO3c22506dUo7duzIdZz69etbXd/8P35JSktLy3NMtWvXtrquUKGC+dzLyyvXur+/RuPGjeXh4aEtW7aoV69eat26tRo1aqQnn3zSqt3169fzHBsAAAAAAAAKlqenp9LS0v7xcd9992Xrt3//fjk7O6tevXo5juvg4KAHHnhAly9f1tGjR63qcuszduxYubm5acCAAapcubK6dOmiDz74QAcOHMjW9uDBg7JYLOrcubMaNWqU7fH5559Lkn777bfbfUsA2AjbXhVhN295tWvXrn/cmmrp0qVq2bJljnUlSpTIt5gsFssd1f3dmjVr1LVrV1Z2AAAAAAAAFCEWi0WlSpW6ZZubGYahxMREubm5ycEh999qV6xYUdKNM27r1q1rlt98tuzNGjVqpCNHjuizzz7T+vXrtW7dOq1evVrBwcHy9/fXvHnz5ODgYL6+s7Nzrt+fZalevfo/1gMoPEh+FFEJCQmKiIjIc/ulS5fqww8/LMCI8k9qaqr+/e9/Ky0tTRaLRVOmTFGPHj1UtWpVXbhwQR4eHrYOEQAAAAAAAPnEYrGoYcOG2rdvn65cuZJrMiMuLk7SjR1D8qpSpUoaN26cxo0bp7S0NEVEROitt97S119/rU6dOqlnz56yWCxq0KCBDh06pNDQ0FsmbwAUDSQ/iqjw8HBlZGRIkjw8PNS/f/9sbfbu3auVK1dKko4dO6aoqCg99NBD9zTOO7F9+3ZzG6wGDRpo9OjRZt3BgwdtFRYAAAAAAAAKiJ+fn/bu3asffvhBXbt2zVb/xx9/aN++fapTp47Kly9/y/HS09P1zjvvqG7duurXr58kydnZWR07dlSFChX08MMPa/fu3erZs6ckydvbWwcOHNCWLVvUvn37bOPFxcXpwIED8vX1Vc2aNe9ytgDuBZIfRdTNW15169ZNEyZMyNbm8OHDZvJDurH6oygkP1xdXc3nhw8f1tq1a9W2bVvFxMRo0KBBNowMAAAAAAAABWHs2LFatGiR3n77bbVq1Uqenp5mXWpqqoYMGaJr165p0qRJeRrP0dFRS5Ys0blz5/TCCy+YW2ZJ0vnz5yXJaneR0aNHa/HixRo9erQ2btyosmXLmnWZmZkaMGCANm7cqGPHjt3tVAHcIyQ/iqCkpCRt2LDBvP7Xv/6VY7v69eurYcOGiomJkXQj+TFx4sR7EuPd8Pb2Vu3atXXs2DFlZmaqU6dOslgsMgxD7u7utg4PAAAAAAAA+ez+++/XrFmzFBAQoAcffFD9+/fXAw88oBMnTui7777Tb7/9Jn9/f3Xv3j3PYwYHB6tfv35q3bq1Bg4cKA8PDx0/flyzZs1SuXLlrFaYeHt76/3339eYMWPk7e2tvn37ql69ekpOTtbChQu1ZcsWBQYG5nhYO4DCieRHEbRixQqlp6dLkipUqKDHH38817bPP/+8PvjgA0lSTEyMfvvtt9vaF9EWSpUqpe+//179+vVTZGSkpBsHX/n6+uqbb74p9PEDAAAAAADg9vXv318+Pj4KDAzUzJkzdfXqVTk4OKh+/fr69ttv1atXr9sa77XXXpMkvfvuuxo+fLhZ3qxZM82cOVNeXl5W7YODg9W8eXONGjVKEyZMML9/q1mzpmbOnKlhw4bd3QQB3FMWwzAMWweB3I0ZM0aTJ0+2dRg2c+rUKcXHx6ty5cpk1lEoVapUSUlJSfLx8VFUVJStwwHsTtbKPwD2jXsdsC/c04B9u1f3eHp6uuLi4lSjRg25uLjc9XiJiYn666+/VKtWLastrXKTlpamo0ePqnLlyqpcufJdvz5wu4KCgjRjxgxbh1GksfIDhZqnp6fVHo8AAAAAAACwf46OjmrQoEG+jefu7n5b26k7Ozuz+whQxDnYOgAAAAAAAAAAAID8RPIDAAAAAAAAAADYFZIfAAAAAAAAAADArpD8AAAAAAAAAAAAdoXkBwAAAAAAAAAAsCskPwAAAAAAAAAAgF1xtHUA+GebN2+WxWKxdRgAbiE6Opp7FSgg3FtA8cC9DtgX7mnAvnGPAwWvVatWtg6hyCP5Uci1bt1amzdvtnUYAHJRqVIlJSUlycfHR1FRUbYOB7A7FotFhmHYOgwABYx7HbAv3NOAfeMeB+6NoKAgW4dQ5LHtFQAAAAAAAAAAsCskPwAAAAAAAAAAgF0h+QEAAAAAAAAAAOwKyQ8AAAAAAAAAAGBXSH4AAAAAAAAAAAC7QvIDAAAAAAAAAADYFZIfAAAAAAAAAADArpD8AAAAAAAAAAAAdoXkBwAAAAAAAAAAsCskPwAAAAAAAAAgF3Xq1FGdOnVsHQaA2+Ro6wBwZyIjIzVlyhTzeuLEiXrggQeytVuxYoXCwsLM63nz5snNze1ehAgAAAAAAIBi4vr16+rWrZtVmcVikbu7u2rWrKlu3bqpQYMGNoru7ly5csXWIQC4AyQ/iqj4+HiFh4eb14GBgTm2O3LkiFW70NDQAo8NAAAAAAAAxUtmZqbCw8NVqlQpNWrUyCzbvn27zpw5o/HjxysoKEgffvihjSMFUFyQ/AAAAAAAAACQL2rXrq2oqCirstjYWHXr1k3Tp09X69at9dxzz9koOgDFCWd+AAAAAAAAACgw9erV09SpUyVJGzdutHE0AIoLVn5AhmFo5cqV2rVrlw4ePCh3d3c1adJEXbp0Ue3ata3arl27VtHR0ZIkX19fdejQQREREVq1apVefvll+fj4SJIuXbqksLAw7dmzRwkJCfLw8NCjjz6q7t27q3Tp0tliyMjI0PLly7V7924dOnRI1apVU9OmTeXv7y9XV9eCfxMAAAAAAABQYGrVqiXpxiqQmyUlJWnOnDlq1KiRnnvuOe3atUtLlixR27Zt1bFjR7OdYRhas2aNdu7cqePHj6tu3brq0KGDWrRokePr3Un7tWvXKjIyUnFxcfLy8tLLL7+s+vXr59M7AOBeI/lRzP32228aMGCAtm7dmq1u9OjRGjt2rEaPHi1Hxxv/VMLDw81zQ4YOHaoff/xRH330kSTpiSeekI+Pj/bu3av27dvr3LlzVuPNnTtXkyZN0pYtW1S1alWzfO/everXr592796dLYZJkyZp9uzZ6tKlS77NGQAAAAAAAPdWTEyMJGX7oW1CQoLefvtt9ejRQ2fPntXrr78uSapWrZqZ/Dh16pT8/f21YcMGOTk5ycPDQwsWLNA777yjvn37KjQ0VE5OTuaYt9v+zJkz8vf317p16+Tg4KBq1arpzJkzmjp1qlauXFnQbw2AAkLyw05ERkYqLS0tW3nWB0tOzp07p/bt2+vMmTOSJDc3N/n5+emvv/7SgQMHlJqaqpCQEKWnp2v8+PHZ+q9fvz7H8bt27WomPp599lk9+OCD+uGHH7Rnzx4dOXJEgYGBWrhwoaQbH3AdOnRQQkKCJKldu3Z6/PHHdfToUX333Xc6ffq0evTooX379un++++//TcGAAAAAAAANrV//34FBwerbNmyGjJkSI5tdu7cqU2bNmnatGnq2LGjueIiIyNDzzzzjPbv368PP/xQw4YNU8mSJXXp0iWNGTNGn3zyiWrXrq2QkJA7ap+ZmakuXbooKipK48eP18iRI+Xq6qqrV68qNDRU3bt315UrV1ShQoV782YByDckP+zEW2+9ddt9hg0bZiY+mjVrpjVr1sjd3V2SFBYWpr59+0qSJk6cqOeff14PPvigVf+YmBiVL19evXv3lre3t/z8/HTixAkdOXJEktSgQQN9//33kqQ333xTnTp10vXr13X69GkZhiGLxaJhw4aZiY+BAweaq0qkG4mQPn366PLlywoMDDTHAgAAAAAAQOF09OhRNWrUSNKNxEJiYqKSkpLUpEkTbd26VQ0bNsy138aNG9WmTRur8tmzZ2vv3r0aNWqURo4caZa7urpq1qxZioyM1IQJEzRo0CC5u7vfdvt58+Zp9+7deuONN/Tuu++a7UuVKqXhw4crKSlJ77//fj6+QwDuFQ48L6ayztjIMn36dDPxIUl9+vQxP2zS09O1atWqbGO4uLho27ZtmjVrlvr16ycPDw+rJYPHjh3TpEmTtGvXLrm4uCgyMlJRUVGKiIiQxWJRRkaGwsPDzfbBwcFW4/fs2VMlS5aUJG3bti1/Jg4AAAAAAIACU6pUKfn4+MjHx0e+vr5q1aqVGjdurAMHDsjf31979+7NsV/Dhg2zJT4kmd9fBQQEZKuzWCzq0qWLrl27pn379t1R+8WLF0u68cPdnLzxxhu3mjKAQoqVH3aiV69e5sFRN9uxY4c2btyYrfz3339XamqqeZ3TYU+tWrVSRESEJCkqKipbfZs2bdS4cWOrsmrVqql58+bauXOnrl27ppCQEIWEhMjJyUlNmzZV79691b9/f5UpU0a///671VZdOWX+r127JunGFl1nzpyRh4dHbm8BAAAAAAAAbMzT09Pc7vxmv/zyizp37qy2bdvq2LFjKl++vFV9vXr1chzv4MGDslgs6ty5c471Fy5ckHTjXNt27drddvtDhw7J2dlZXl5eObZ3d3eXm5tbjnUACjeSH3ZiwIABOWbHZ8yYkWPyI2u7K0lycnKSs7NztjY3fwj9/fBySbl+KCxdulTDhw+3Wlly/fp17dmzR3v27NEPP/yg1atXW8WQm5vjOn36NMkPAAAAAACAIujxxx9XQECApk+frhUrVsjf39+qvkyZMtn6GIahxMREOTs7q2XLlv84fvXq1e+ofXx8vNzd3WWxWHJtW65cOfMHugCKDpIfxVSTJk3M51nncHh6elq1OX78uPnc29s72xgODjnvmlazZk0tW7ZMiYmJ+vXXXxUZGamffvpJkZGRkqS1a9cqKirK3P9RkkqUKKHk5OQckzAAAAAAAAAo+ho0aCBJio+Pz1N7i8WiBg0a6NChQwoNDVWpUqXy9Bq3097Ly0txcXFKTU1V6dKls9WnpaXp5MmTqlKlSp5iBlB4cOZHMVWlShXVqFHDvA4LC7OqT0lJ0ZIlS8xrPz+/PI27c+dOBQQEKCAgQOHh4Xr22Wc1YcIE7dixQ4888ojZLi4uTtWqVTM/ODIyMrR69WqrsVJTUzVw4ED17dtXffv21ZUrV253mgAAAAAAACgkTpw4IUmqU6dOnvt4e3srIyNDW7ZsybE+Li5OK1as0J9//nlH7Rs3bizDMPTLL7/k2H79+vXKzMzMc7wACg+SH8XYlClTzOfjx4/XuHHjtHXrVi1btkyPP/64udWVj4+PevbsmacxXV1dFRoaqtDQUAUGBio6Olrp6enauXOnDh48aLbLWvUxfvx4s2zw4MFaunSpkpOTdfLkSQ0ZMkRffPGFwsLCFBMTk+PyRwAAAAAAABR+p06d0uzZs1WqVKlbbkl1s9GjR8vR0VGjR49WSkqKVV1mZqYGDBigF154wUxQ3G77oUOHSpLeeust8zyQLH/99ZdGjBhx23MFUDiw7VUx9sorr2jTpk368ssvlZGRoQkTJmjChAlWbapWraoFCxbIyckpT2M2atRIPXr00KJFi3T58mU99NBDslgsMgzDbPPkk0+a224FBARo3bp1Cg8P19mzZ9W1a9dsY5YtW1Yff/zxXcwUAAAAAAAA90JiYqImTZpkXqelpenYsWMKDw/X5cuX9Z///MdqN5Jb8fb21vvvv68xY8bI29tbffv2Vb169ZScnKyFCxdqy5YtCgwM1H333XdH7Tt06KDevXtr/vz58vHx0euvv65atWrp0KFDmj17th555BGdP38+f98kAPcEyY9ibu7cuXruuec0duxY/fbbb2bWu2LFiurevbsmT54sNze32xrzq6++Uv369fXJJ58oOTnZTHyULl1a/fr10/vvv2+eF2KxWLR8+XJ98803eu+99xQXF2e2d3Bw0AsvvKB33nlHDz74YD7OGgAAAAAAAAUhMTFRISEh5nXJkiVVq1YtPfXUU3rrrbdua9VHluDgYDVv3lyjRo3ShAkTlJ6eLunGubMzZ87UsGHD7qp9WFiYHn74YU2aNEljx46VJFWoUEHDhg1TSEiIatasedsxA7A9i3HzT/JR6IwZM0aTJ0++J6+Vlpamw4cPy93dXdWrV7/r8TIzMxUfH6/4+Hi5u7vL09PzlitILl++rNjYWJUtW1Y1atTI08FUgC1VqlRJSUlJ8vHxUVRUlK3DAezO31cPArBP3OuAfeGeBuybre/xtLQ0HT16VJUrV1blypXzvX1iYqKSkpJUu3btPO+EAhSEoKAgzZgxw9ZhFGms/IDJ2dlZ3t7e+Taeg4ODPD095enpmec+Li4u8vHxybcYAAAAAAAAYD+cnZ3VuHHjAmvv7u4ud3f3OwkNQCHDgecAAAAAAAAAAMCukPwAAAAAAAAAAAB2heQHAAAAAAAAAACwKyQ/AAAAAAAAAACAXSH5AQAAAAAAAAAA7ArJDwAAAAAAAAAAYFdIfgAAAAAAAAAAALviaOsA8M82b94si8Vi6zAA3EJ0dDT3KlBAuLeA4oF7HbAv3NOAfeMeBwpeq1atbB1CkUfyo5Br3bq1Nm/ebOswAOSiUqVKSkpKko+Pj6KiomwdDmB3LBaLDMOwdRgAChj3OmBfuKcB+8Y9DtwbQUFBtg6hyGPbKwAAAAAAAAAAYFdIfgAAAAAAAAAAALtC8gMAAAAAAAAAANgVkh8AAAAAAAAAAMCukPwAAAAAAAAAAAB2heQHAAAAAAAAAACwKyQ/AAAAAAAAAACAXSH5AQAAAAAAAAAA7ArJDwAAAAAAAAAAYFdIfgAAAAAAAAAAALviaOsAcGciIyM1ZcoU83rixIl64IEHsrVbsWKFwsLCzOt58+bJzc3tXoQIAAAAAACAYszf318pKSm6//77NWPGDFuHA6CYIflRRMXHxys8PNy8DgwMzLHdkSNHrNqFhoYWeGwAAAAAAAAo3rZv364FCxbIYrHIYrFo5MiRqlatmq3DAlCMsO0VAAAAAAAAgHy1aNEiSdLAgQOVmZmppUuX2jgiAMUNyQ8AAAAAAAAA+SYzM1OLFy+Wn5+fgoODZbFY9N///tfWYQEoZtj2CjIMQytXrtSuXbt08OBBubu7q0mTJurSpYtq165t1Xbt2rWKjo6WJPn6+qpDhw6KiIjQqlWr9PLLL8vHx0eSdOnSJYWFhWnPnj1KSEiQh4eHHn30UXXv3l2lS5fOFkNGRoaWL1+u3bt369ChQ1t8cD0AACAASURBVKpWrZqaNm0qf39/ubq6FvybAAAAAAAAgHzxyy+/KD4+XoGBgapVq5Yefvhhbd26VSdPnlSNGjVy7WcYhtatW6cdO3boyJEj8vLy0ssvv6z69evr008/lSQNHTo0W581a9Zo586dOn78uOrWrasOHTqoRYsWBTpHAIUfyY9i7rffftOAAQO0devWbHWjR4/W2LFjNXr0aDk63vinEh4ebp4bMnToUP3444/66KOPJElPPPGEfHx8tHfvXrVv317nzp2zGm/u3LmaNGmStmzZoqpVq5rle/fuVb9+/bR79+5sMUyaNEmzZ89Wly5d8m3OAAAAAAAAKDhZW1699NJLkqRu3bpp+/bt+r//+z+9+eabOfY5e/as/P39tXbtWlksFlWvXl1nzpzR1KlTtXLlSk2aNEmSdfLj1KlT8vf314YNG+Tk5CQPDw8tWLBA77zzjvr27avQ0FA5OTkV8GwBFFZse2UnIiMjtXbt2myPmJiYXPucO3dO7du3NxMfbm5uat++vZo0aSJJSk1NVUhIiPnh8nfr1683Ex8369q1q5n4ePbZZxUSEiJfX19JNw5gv/lw9oSEBHXo0MFMfLRr107vvvuu/P395ejoqNOnT6tHjx46evToHbwrAAAAAAAAuJfS09O1dOlStWjRwtxR5KWXXpLFYtHixYtz7JOZmamnn35a69at07hx43ThwgWdPHlSKSkpmjx5srp166bk5GSrPhkZGXrmmWe0adMmffjhh7p06ZJOnDih8+fPa+jQofrqq680derUAp8vgMKLlR924q233rrtPsOGDdOZM2ckSc2aNdOaNWvk7u4uSQoLC1Pfvn0lSRMnTtTzzz+vBx980Kp/TEyMypcvr969e8vb21t+fn46ceKEjhw5Iklq0KCBvv/+e0nSm2++qU6dOun69es6ffq0DMOQxWLRsGHDlJCQIOnGAVhZq0qkG4mQPn366PLlywoMDDTHAgAAAAAAQOG0fv16JSYm6u233zbLatSooUceeURbt27VH3/8ofvuu8+qz3/+8x/t2bNHI0aM0HvvvWeWly5dWiNGjNClS5c0fvx4qz6zZ8/W3r17NWrUKI0cOdIsd3V11axZsxQZGakJEyZo0KBB5vddAIoXVn4UU1lnbGSZPn261QdBnz591KZNG0k3MvarVq3KNoaLi4u2bdumWbNmqV+/fvLw8LBaSnjs2DFNmjRJu3btkouLiyIjIxUVFaWIiAhZLBZlZGQoPDzcbB8cHGw1fs+ePVWyZElJ0rZt2/Jn4gAAAAAAACgwWVtede3a1aq8W7dukpTj6o+lS5dKkoKCgnIcc9iwYdnKsr7XCggIyFZnsVjUpUsXXbt2Tfv27buN6AHYE1Z+2IlevXqpVq1a2cp37NihjRs3Ziv//ffflZqaal7ndAhUq1atFBERIUmKiorKVt+mTRs1btzYqqxatWpq3ry5du7cqWvXrikkJEQhISFycnJS06ZN1bt3b/Xv319lypTR77//rrS0NLNvw4YNs73GtWvXJN3YouvMmTPy8PDI7S0AAAAAAACADV29elXh4eFq1qyZPDw8dPXqVbOuS5cuCgwM1OLFizVq1Cirfvv27VP58uVVvXr1HMd1c3PL9p3QwYMHZbFY1Llz5xz7XLhwQdKN827btWt3N9MCUESR/LATAwYMMFdq3GzGjBk5Jj+ytruSJCcnJzk7O2drU758efP53w8vlyQvL68cY1m6dKmGDx9utbLk+vXr2rNnj/bs2aMffvhBq1evtoohNzfHdfr0aZIfAAAAAAAAhdSaNWt04cIF7dq1K8fvmiRp165diouLU506dcyytLS0Wx5MnpGRoRIlSkiSDMNQYmKinJ2d1bJly3/sl1tCBYD9I/lRTGUdai7JPIfD09PTqs3x48fN597e3tnGcHDIede0mjVratmyZUpMTNSvv/6qyMhI/fTTT4qMjJQkrV27VlFRUWrUqJHZp0SJEkpOTs71gxEAAAAAAACF26JFi2SxWDRu3Lgckxn79+/Xf//7Xy1evNhq+/OmTZtq+/btOnXqVLbvpyQpPj5eCQkJ5o9iLRaLGjRooEOHDik0NFSlSpUquEkBKLJIfhRTVapUUY0aNXTy5ElJNw44Hzt2rFmfkpKiJUuWmNd+fn55Gnfnzp366quvzD79+/fXs88+qwkTJujRRx81z+6Ii4tTs2bNVKVKFZ09e1YZGRlavXq1XnzxRXOs1NRUBQYGmltfffbZZypTpszdTRwAAAAAAAD57vLly1q5cqUeffRRvfvuuzm2+euvv7RkyZJsyY8nn3xS27dv19SpU/Xxxx9n6zdx4sRsZd7e3jpw4IC2bNmi9u3bZ6uPi4vTgQMH5Ovrq5o1a975xAAUWRx4XoxNmTLFfD5+/HiNGzdOW7du1bJly/T444+bW135+PioZ8+eeRrT1dVVoaGhCg0NVWBgoKKjo5Wenq6dO3fq4MGDZrusVR/jx483ywYPHqylS5cqOTlZJ0+e1JAhQ/TFF18oLCxMMTExJD4AAAAAAAAKqZUrV+rKlSvmweY5qVq1qtq0aaPo6GgdPnzYLA8ODlbt2rX12Wef6e2331ZSUpKkG8mSrHNCXFxcrMYaPXq0HB0dNXr0aKWkpFjVZWZmasCAAXrhhReUmZmZj7MEUJSQ/CjGXnnlFfXr10/SjX0TJ0yYoMcee0wvvviioqOjJd34UFqwYMEt913M0qhRI/Xo0UPSjYz/Qw89pJIlS6pFixbmQVNPPvmkue1WQECAnn/+eUnS2bNn1bVrV1WsWFE1a9bUvHnzJElly5bNMesPAAAAAACAwiFry6ubd/XISffu3SVJ//3vf82yMmXKaO3atWrevLmmTp2qSpUqmYec/9///Z9WrlypsmXLWo3j7e2t999/X7t37zafL1y4UJ9//rnatGmjDRs2aPjw4brvvvvyf7IAigSSH8Xc3LlztWLFCjVp0sTqDI+KFSsqICBAMTExVueD5MVXX32lcePGqUKFCpJuHEIlSaVLl9bQoUO1ePFi87UsFouWL1+uBQsWqG7durJYLOY4Dg4OevHFF7V582Y1b978bqcKAAAAAACAAnDhwgX9+OOPeuyxx255wPi///1vOTo6WiU/JKlevXraunWrVq1apffff1+vvvqqvvzyS8XGxurhhx/WhQsXVK5cOas+wcHBWrdundzc3DRhwgT16tVLQ4YM0R9//KGZM2fqo48+yve5Aig6LEbWN9MolMaMGaPJkyffk9dKS0vT4cOH5e7ufssPqrzIzMxUfHy84uPj5e7uLk9Pz1uuILl8+bJiY2NVtmxZ1ahRgwOrUOhVqlRJSUlJ8vHxUVRUlK3DAeyOxWIRf6oA9o97HbAv3NOAfSuIe/yXX35RfHy8nn766WwJDkk6fPiwGjRooG7dumVLmmRJS0vT0aNHVblyZVWuXDlf4wNsISgoSDNmzLB1GEUaKz9gcnZ2lre3d74kPqQbKzc8PT3VrFkzeXl55WnrLBcXF/n4+KhOnTokPgAAAAAAAIqBX375RT169ND06dOz1aWnp2vkyJGSpE6dOuU6hrOzsxo3bkziA4DJ0dYBAAAAAAAAACi+hg4dqoULF2rChAnas2ePnnrqKZUvX14nTpzQd999p5iYGD333HPq27evrUMFUISQ/AAAAAAAAABgM25ubtq4caM++OADzZs3T6tXrzbrvLy89Nlnn+n111+3YYQAiiKSHwAAAAAAAABsqkqVKvroo4/00UcfKSkpSQkJCapZs6bKlClj69AAFFEkPwAAAAAAAAAUGhUrVlTFihVtHQaAIo4DzwEAAAAAAAAAgF0h+QEAAAAAAAAAAOwK214Vcps3b5bFYrF1GABuITo6mnsVKCDcW0DxwL0O2BfuacC+cY8DBa9Vq1a2DqHII/lRyLVu3VqbN2+2dRgAclGpUiUlJSXJx8dHUVFRtg4HsDsWi0WGYdg6DAAFjHsdsC/c04B94x4H7o2goCBbh1Dkse0VAAAAAAAAAACwKyQ/AAAAAAAAAACAXSH5AQAAAAAAAAAA7ArJDwAAAAAAAAAAYFdIfgAAAAAAAAAAALtC8gMAAAAAAAAAANgVkh8AAAAAAAAAAMCukPwAAAAAAAAAAAB2heQHAAAAAAAAAACwK462DgDFz6JFi7R06VJJ0qOPPqrAwEAbRwQAAAAAAAAAsCckP4qoyMhITZky5Zbt3NzcNG/evHsQUd4dPHhQS5YskSQ5OvJPEAAAAAAAwF5cunRJs2bN0rZt23TkyBG5u7urXr16GjRokFq2bJkvfa5fv65u3bpJkh577DEFBQXlGk/fvn0lqdB9Pwag4PHNcxEVHx+v8PDwW7bz8PC4B9EAAAAAAACguNu/f7+eeuopnTlzRt7e3mrUqJGSk5O1dOlSzZ8/X0OHDtUnn3xy130yMzPN78VWrVqlTp066YEHHsgxph9//LFgJgug0CP5AQAAAAAAAOCuXL16VV27dtWVK1e0detWPfLII2bd+fPn1bt3b3366adq3ry5/P3977jPzcqVK6eLFy9q2LBh+vnnnwt+kgCKFA48txM//vijEhMTsz0OHjxo69AAAAAAAABg53bv3q3Dhw9r+PDhVkkM6ca27N98841Kly6tsLCwu+pzs/r16+vll1/Whg0bzC3WASALKz/shJubmypVqvSPbdauXavo6GhJkq+vr5544gl9/fXX+vnnn5WamqqWLVtqyJAhcnV11ZUrVxQWFqaIiAhlZmbKz89Pw4YNU5kyZXId78knn9Ty5cu1cuVKpaSkyMfHRy+++KIaNWp0W3MxDEMrV67Url27dPDgQbm7u6tJkybq0qWLateubbb76aefFBUVJUlyd3dXv379rMbJyMjQRx99pMzMTFksFo0YMcI8YyQjI0PLly/X7t27dejQIVWrVk1NmzaVv7+/XF1dc4zrTvoAAAAAAAAUB0eOHJEkeXp65lhftmxZzZ8/XwkJCXfV5++mTZumFStWKCgoSM8884xKly59p1MAYG8MFGrBwcE5loeHhxuSzMf27dtvOdagQYPM9oMGDTK6du1qNYYko0WLFkZsbKxRp06dbHX169c3UlJSchxv8ODBRkBAQLY+zs7OxqeffmoVR0hIiFnfo0cPq7qDBw8ajz76aLZxJBmlS5c2Jk6caFy/ft0wDMP4+eefzTqLxWIcPXrUaqw1a9aY9U8++aRZHh0dbfj5+eX4GtWrVzdWrlyZ7b27kz4oHipWrGhIMnx8fGwdCmCX+FMFKB641wH7wj0N2Lfc7vHdu3cbkoxnnnkmz2PdSR/DMIy0tDRDktGsWTPDMAzjgw8+MCQZ48aNy9bWw8PD8PDwuK3xgcJgxIgRtg6hyGPbKzuxZ88eRUREWD2ysuc5mT9/vpYsWaIKFSqoZMmSZnlkZKR8fX0VFxcnV1dXq5Uehw8f1rRp03Icb8GCBfrPf/6junXrqnXr1uZKiLS0NL3xxhvavn37Ledw7tw5tW/fXlu3bpV0YzVL+/bt1aRJE0lSamqqQkJCNGnSJElSu3bt9OCDD0q6sVpkzpw52eaYZeDAgZKkhIQEdejQQbt37zbHePfdd+Xv7y9HR0edPn1aPXr00NGjR82+d9IHAAAAAACgOHnwwQf1+OOPa/Xq1Xrsscf0zTff3PK7kjvpk5M333xT9evX17Rp03Ts2LE7nQIAO0Pyw04MHjxYTzzxhNVj1qxZuba/evWqli1bpqSkJJ05c0ZNmzY161JSUjRp0iRduHBBycnJeu6558y6TZs25TheSkqKPv30U8XGxuqXX35RbGysVWJi1KhRt5zDsGHDdObMGUlSs2bNFBsbq/Xr12v//v2aN2+e2W7ixInau3evJCkwMNAs/+qrr3T9+nVJ0oULFxQeHi5J8vDw0L/+9S/zNbKWSg4cOFA///yzxo8fr/nz52vu3LmSpMuXL1uNeyd9AAAAAAAAipMSJUpo2bJl6tmzp3799Ve9+uqrqlOnjqpWrap///vfCg0NVVpa2l33yUnJkiU1c+ZMpaWlacSIEQU1RQBFDMmPYqpTp0564YUXJEkVKlRQr169zDpPT0+NGTNGDg4OKlmypF5//XWzLjY2Nsfxss4LyeLh4aGpU6ea1zt27FB6enqu8WSdp5Fl+vTpcnd3N6/79OmjNm3aSJLS09O1atUqSVKvXr3k4eEhSfrrr7/MhMd///tf88Pxtddek5OTkzIyMsx6SQoODraKoWfPnuYqmG3btplx3W4fAAAAAACA4qhSpUr67rvvdOTIEc2ZM0evvfaaKlasqPDwcAUEBKhu3bqKjIy86z45efrpp/Xss88qPDxcP/30U0FNEUARQvLDTkyePFlLliyxevz9APCb3XxwuHQjAZLFy8sr17rcsu2tWrXKVtayZUvz+fXr1/9x2eLvv/+u1NRU87pFixb/+BpZB52XLFlSgwcPNstnz54t6X9bXjk4OJjJm99//90q/oYNG6p06dLmo3z58rp27ZqkG1twnTlz5o76AAAAAAAAFGe1a9dW//799eWXX+rQoUOKj4/XyJEjderUKXXt2lUpKSn50ufv/t//+38qVaqUhg8fbu4OAqD4IvlhJ9q1a6cXX3zR6uHj45Nre4vFckd1uSlfvny2srJly6pEiRLm9fnz53Ptf3PSwMnJSc7Ozv/4GufOnTOfDxo0yGy/YcMG/fDDD+YqjI4dO5rJnLwkJpydnc3H6dOn76gPAAAAAAAA/qdq1ar68MMP1atXL/3555/atWtXgfSpU6eOgoKCFBMTo48//jg/QgdQhJH8QL7I6TCpU6dOKSMjw7yuV69erv2zDjWXbqwSySmJcPz4cfO5t7e3+bxy5cp65ZVXJN04XyTrufS/g84lqVGjRubzEiVKKDk5Wampqbk+fH1976gPAAAAAABAcfPSSy+pTZs2yszMzLVN1q4eWduq30mfWxkzZoxq1Kih9957jx06gGKO5AfyRXh4uNVqDOl/W09JUpUqVay2z/q7KlWqqEaNGuZ1WFiYVX1KSoqWLFliXvv5+VnVv/nmm+bz5ORkSTfOLunSpYtZXq1aNVWpUkXSjbM8Vq9ebTVGamqqBg4cqL59+6pv3766cuXKHfUBAAAAAAAobkqXLq1ffvlF27dvz7VNXFycpP/9QPVO+tyKi4uLpk+frpSUFI0ePTqv4QOwQyQ/7MSAAQPUunXrHB95WRZ4ty5cuKBHHnlEX331ldasWaPRo0fr3XffNeuHDh16yzGmTJliPh8/frzGjRunrVu3atmyZXr88cfN5IqPj4969uxp1bdx48bq2LGjVVm/fv2stt3KGjfL4MGDtXTpUiUnJ+vkyZMaMmSIvvjiC4WFhSkmJkZlypS54z4AAAAAAADFyYABA+Tg4KDAwEDzh6k327t3r+bOnasaNWqoWbNmd9wnL7p37642bdpowYIFSkxMvPNJASjSHG0dAPLHvn37cq27cOFCgb9+q1attH///hwPWa9Xr56CgoJuOcYrr7yiTZs26csvv1RGRoYmTJigCRMmWLWpWrWqFixYICcnp2z9hw8frrVr10q6sUVV//79s7UJCAjQunXrFB4errNnz6pr167Z2pQtW9ZqX8g76QMAAAAAAFCcPPbYY3r77bc1efJkNWzYUL169VK9evVksVi0a9cuffPNN7JYLFq8eLFKly59x33y6uOPP5avr6/S09MLYroAigBWfiBf+Pn5ac2aNapdu7ZZVqpUKb366qvatWtXnldEzJ07VytWrFCTJk3k4PC/f54VK1ZUQECAYmJirM4HuVl8fLz5vHPnzqpZs2a2NhaLRcuXL9eCBQtUt25dq8PdHRwc9OKLL2rz5s1q3rz5XfUBAAAAAAAobiZNmqSffvpJXl5emj17toYMGaLBgwdr0aJFevbZZ3Xw4EHzDI+76ZMX3t7eCggIyK+pASiCLIZhGLYOArkbM2aMJk+ebOswchQQEKDQ0FBJN7a1+uSTT5SZmamjR48qNTVVDRs2zHGFRl6lpaXp8OHDcnd3V/Xq1W/ZvmXLltqxY4ckadWqVXrmmWdu2efy5cuKjY1V2bJlVaNGDZUqVapA+sB+VapUSUlJSfLx8VFUVJStwwHsjsViEX+qAPaPex2wL9zTgH3L6z1uGIZOnDihzMxMeXl5Wf2YND/7APYqKChIM2bMsHUYRRrbXiFfOTg4qG7duvkylrOzs7y9vfPUdt++fWbio1atWnr66afz1M/FxUU+Pj63Fded9AEAAAAAAChOLBaL7rvvvgLvAwC5Ydsr2IUvvvjCfP76669bbZkFAAAAAAAAACheWPmBO1auXDl5eHhIunHgt61cu3ZN69evl4eHhywWi1577TWbxQIAAAAAAAAAsD2SH7hjU6dO1dSpU20dhkqWLKmYmBhbhwEAAAAAAAAAKCTYGwgAAAAAAAAAANgVkh8AAAAAAAAAAMCukPwAAAAAAAAAAAB2heQHAAAAAAAAAACwKxx4Xsht3rxZFovF1mEAuIXo6GjuVaCAcG8BxQP3OmBfuKcB+8Y9DhS8Vq1a2TqEIo/kRyHXunVrbd682dZhAMhFpUqVlJSUJB8fH0VFRdk6HMDuWCwWGYZh6zAAFDDudcC+cE8D9o17HLg3goKCbB1Ckce2VwAAAAAAAAAAwK6Q/AAAAAAAAAAAAHaF5AcAAAAAAAAAALArJD8AAAAAAAAAAIBdIfkBAAAAAAAAAADsCskPAAAAAAAAAABgV0h+AAAAAAAAAAAAu0LyAwAAAAAAAAAA2BWSH7CJzMxM/fjjj1q6dKmuX79u63AAAAAAAABgQ4cPH1bZsmXVp0+fAn+d1NTUAn0NAIWDo60DwJ2JjIzUlClTbtmuUaNGmjx58j2I6PaMHTtWH3zwgSSpV69e+vbbb20cEQAAAAAAAPJLZGSk5s2bp+3btysxMVHVqlVT3bp11atXL3Xp0iVbe8MwdOnSJV29erXAYtq4caPatWunhx9+WNu3by+w1wFQOJD8KKLi4+MVHh5+y3aJiYn3IJrbFxMTYz4/dOiQDSMBAAAAAABAfklPT9d7772nyZMny2KxqHHjxmrTpo2SkpIUERGhhQsXys/PT6tWrZKHh8c9jc3NzU2lS5dWtWrV7unrArANkh+wiXfeeUdJSUm6cuWKuQJEkk6fPq0GDRqY12fOnJGLi4stQgQAAAAAAMBtyMzM1FNPPaWNGzeqU6dOWrBggdzd3c3669ev6+OPP9bIkSPVpUsXRURE3NPvfR566CElJCTwXRNQTJD8sBPLli3TI488kq3cycnJBtHcmq+vryIiIrKVZy1xBAAAAAAAQNHyxRdfaOPGjfL391dYWJgsFotVvZOTk4KCgnT8+HF9+umnCgsL05AhQ+5pjCQ+gOKD5IedqFixoqpWrZpr/bJlyxQbGytJatOmjVq2bGnWnT9/XrNnzzav33rrLVksFq1du1bR0dGSbiQrOnTooIiICK1atUovv/yyfHx8srVp166dFi9erLVr1+rChQtq2LChBg8erJo1a1rFs3nzZm3btk3SjXNJnnvuOa1bt04bN260ajdjxgyVKlVKbdu2VYsWLe5oHpLyNJcsGRkZWr58uXbv3q1Dhw6pWrVqatq0qfz9/eXq6vqP/x0AAAAAAACKo8TERI0ZM0YuLi6aOnVqtsTHzQYOHKhPP/1UK1euzDX58dNPP+mHH35QcnKy6tWrp1deeUVeXl45tj127Ji+++47xcXFqWTJknrggQfUp08flS1b1qpdSkqKPv/8c9WpU0ddu3Y1y5OSkjRnzhzzO6pdu3ZpyZIlatu2rTp27Hj7bwaAwsFAoRYcHJxjeXh4uCHJfGzatOkfx3n++efNth988IFV3ZEjR6zGSk9PNwzDMAYNGmSWDR061BgxYoR5vWrVqmxtBg8ebPTu3dtqLElGuXLljD179li9ZkhIiFnfo0cPwzAMY+jQodn6Zj2mT59+x/PI61wMwzCio6MNPz+/HGOoXr26sXLlyn98n1H8VKxY0ZBk+Pj42DoUwC7xpwpQPHCvA/aFexqwb7nd459//rkhyQgICMjTOLt27TKio6PN65iYGEOS8dJLLxndu3c3JBmlS5c2HB0dDUmGi4uLsWbNmmzjfPLJJ4aDg4Ph4OBg1KhRw6hQoYIhyahcubJx7Ngxq7YnT540JBldunSxKs967R49ehhz5swxvwuaOXNmnuYCFIQRI0bYOoQij5UfyJP169dbHVKek2+++UYXL16Um5ubMjMzdfHiRUnSxYsXNWLEiGyrOv7Oy8tLDz30kKKiosyy5s2bq0SJEvl6EFVuc0lISFCHDh2UkJAgSWrXrp0ef/xxHT16VN99951Onz6tHj16aN++fbr//vvzLR4AAAAAAICibvPmzZKkpk2b5qm9n59fjuWrV69W3bp19euvv+rhhx9WRkaGFi5cqD59+mjIkCE6dOiQSpYsKUnau3evhg0bpqZNm+r777/XfffdJ0n6+uuv1bt3bw0ePFg//PBDnuewc+dObdq0SdOmTVPHjh1Vv379PPcFUPiQ/LATgYGBcnNzsyobNWqUOnfunC/jx8TEqHz58urdu7e8vb1z/IC6ePGi5s+fL39/fxmGoeDgYE2dOlWStGXLFqWnp8vRMfd/ckFBQerRo4dq1Khhlm3cuDHf92LMbS7Dhg0zEx8DBw5UaGio2addu3bq06ePLl++rMDAQH3//ff5GhMAAAAAAEBRFh8fL0mqV6/eXY+1cuVK1apVS5Lk6OioV199VatWrdLixYsVExMjb29vSdKGDRtUtWpVTZo0yUx8SJK/v7+mTZtmbrmeV0ePHtXGjRvVpk2bu54DANsj+WEnss6zuNkrr7ySb+O7uLho27Ztaty4ca5t2rdvL39/f0mSxWJRUFCQmfxIT0/XH3/8oTp16uRbIyfyjgAAIABJREFUTHcqp7lkZGQoPDzcvA4ODrbq07NnTw0YMEDXrl277Q9OAAAAAAAAe5eWliZJKlOmzF2N4+fnZyY+bubt7a3FixcrNjbWTH68+eabevPNN3Mcp2bNmjp48KD++uuvfzwn92YNGzYk8QHYEZIfdqJ8+fJycnKyKitVqlS+jd+mTZt/THxIyrYUsHLlylbXWR+CtpbTXH7//Xer+Bo2bJit37Vr1yRJ586d05kzZ+Th4VGwgQIAAAAAABQRFStWlHTj8PFHHnnkjsepXr16juWurq6SpPPnz1uVG4ahyMhIrVy5Un/++afOnj2r9PR084fC6enpeX7t/Fi1AqDwcLB1AMgfK1asUEJCgtUjP1d+eHl53bJNiRIl8u31ClJOczlz5swt+zk7O5uP06dPF0BkAAAAAAAARVPWD02PHDmSp/axsbHavXu3MjIyrMotFkueXzMhIUGtW7dWy5YttWjRIl27dk3333+/mjRporJly+Y9+P/f3a5aAVC4sPKjGPp7xvvSpUu37OPgUPjyZHcyDynnuTRq1Mh8XqJECSUnJ8vZ2fnuAgQAAAAAACgmnn76aU2fPl2LFi1SSEjIP/5INjMzU61bt5aLi4vi4uLu+DX79Omjbdu26dtvv1WvXr2s6mJjY3Xs2LE7HhtA0Vf4vtFGgahSpYr5PCYmxqpuw4YN9zqcXP39gzExMdHquqDmUa1aNXPs/4+9e4/vuf7/P35/b2/MZsyG5jDnwxya5VB8ygeTQvJJEUlDyTmV9Qkp9SGVT/gk8SHJoQ996jNSbM6nVkZThmQlIqecZsNOdnj+/vDb6+tt78lh87a32/Vy2eXyfr2ep8fr3Z7e6/V4v57P7OxsRUVFOZSnpaVp4MCB6tevn/r166fU1NTrHgsAAAAAAMDdhIWFqX379kpISNC8efOuWPerr77S8ePH9eijj173eBkZGVq/fr1CQkLyJD4k6dChQ9fdNwD3wJMft4l69epZrz/77DOFhISoadOmiouL07hx41wYmaMKFSrIy8vL2n9j2LBheuSRR1S9enW1a9euUK/j9ddf19ChQyVJQ4YMkXTxgzslJUVjx47V3LlzJUktWrTgMUgAAAAAAIDLTJ06VSEhIRo2bJiys7M1YMCAPHW2bt2qvn37KiAgwLoPcz2KFSsmu93udI/ZDRs26Mcff7zuvgG4B578uE2Eh4dbG09lZmbq5ZdfVrt27TRq1Ci1bdvWxdH9Hw8PD/3tb3+zjpcvX67+/ftr7dq1kgr3OgYPHqxHHnlEknTixAl169ZN/v7+CgoKshIfvr6+ev/9929oHAAAAAAAAHdUv359RUVFyd/fXwMHDlSLFi30wgsvaNasWZowYYIefvhhtWzZUhkZGVq8ePFV7TGbHw8PDz3yyCP6+eef1a9fPy1btkyLFy/W888/r0cffdRh9RAAtyeSH7eJcuXK6auvvlLdunWtc3a7XYMHD9aUKVNcGFle06ZN08MPP+xwzm6/+JBSYV6HzWbTF198oU8++US1a9d22GDLw8NDjz32mGJiYtS8efMbGgcAAAAAAMBdPfDAA9q1a5eeffZZ7d27V1OnTtWgQYP06quv6ptvvtGAAQO0d+9etW7d+obHmjFjhnr37q0FCxaoS5cu6t69u9auXatly5apWbNmBXA1AIoymzHGuDoI5O+VV17RW2+9VWD9GWN06NAhnTp1SjVr1pSfn1+B9V3QkpKSdPDgQfn6+qpGjRoOyYibcR0pKSnau3evfH19VaVKFZUoUaLAx0DRFxAQoMTERIWGhmr79u2uDgdwOzabTfypArg/5jrgXpjTgHu7ljmenZ2to0ePKikpSZUrV7ZW8yhoKSkp+v3331WlShX5+voWyhjAzRYREaHJkye7OowijT0/bjM2m01Vq1ZV1apVXR3Kn/Lz88s3qXEzrsPHx0ehoaGF1j8AAAAAAIA78/T0VFBQkIKCggp1HB8fH9WvX79QxwBQ9LDsFQAAAAAAAAAAcCskPwAAAAAAAAAAgFsh+QEAAAAAAAAAANwKyQ8AAAAAAAAAAOBWSH4AAAAAAAAAAAC3QvIDAAAAAAAAAAC4FZIfAAAAAAAAAADArdhdHQCuLCYmRjabzdVhAPgT8fHxzFWgkDC3gNsDcx1wL8xpwL0xx4HC17JlS1eHUOSR/LjFtWrVSjExMa4OA0A+AgIClJiYqNDQUG3fvt3V4QBux2azyRjj6jAAFDLmOuBemNOAe2OOAzdHRESEq0Mo8lj2CgAAAAAAAAAAuBWSHwAAAAAAAAAAwK2Q/AAAAAAAAAAAAG6F5AcAAAAAAAAAAHArJD8AAAAAAAAAAIBbIfkBAAAAAAAAAADcCskPAAAAAAAAAADgVkh+AAAAAAAAAAAAt0LyAwAAAAAAAAAAuBWSH7epDz/8UN27d1f37t01Z86cQhsnJydHK1eu1OLFi5WZmVlo4wAAAAAAAOD29ssvvygtLa1A+vH19VXfvn1vPCgALkPyw02sX79eAwYM0F133aUqVaqoSZMm6tatmyZPnqzz58/nqb99+3ZFRkYqMjJS8fHxhRbXmDFj1LFjR3Xr1o0PDAAAAAAAADd0+PBhde3aVS+//HK+dRYsWKDHHntMFy5ccFq+a9cude3aVQsXLryuGDZs2KB69eqpbdu219X+UsYYnT9/XhkZGTfcFwDXIflRxJ05c0Z9+/ZVu3btNHv2bMXHx+vIkSPavn27Fi9erJdeeknVq1fXggULXBJfQkKC9XrPnj0uiQEAAAAAAACFp1KlStq0aZOmTZuWb8JgxowZWrJkiWJiYpyWL1++XEuXLlWZMmWuKwY/Pz+VLFlSFStWvK72BSE5OVmnT5+WMcZlMQD4PyQ/irBjx46pUaNGmj9/vsP5smXLqlixYtbx6dOn9fTTT2vVqlU3O0S99tpr+utf/6pmzZrp3XffvenjAwAAAAAAoHB5eHioTZs2Sk9P15YtW/KUnzx5UnFxcZKk6Ohop31s2LBBnp6e+utf/3pdMdx11106efKkvvjii+tqXxA6d+6scuXK6ezZsy6LAcD/IflRhA0dOlRHjx61jsPDw/Xbb78pMTFRaWlp+s9//iNvb29JUnZ2tp544ombvu9GkyZNtGnTJsXFxaldu3Y3dWwAAAAAAADcHGFhYZKkjRs35ilbsWKFcnJy5OPjo6ioqDzlmZmZ+vbbb9W8eXOVLl36umPw8fG57rYA3I/d1QHg+ixZssQhk92vXz99/PHH1rGnp6eefPJJnTx5Ui+++KKki0tkffPNN07XPszOztbnn3+uVatWKTk5WcHBwRoyZIiCgoKcjp+QkKCFCxfqt99+09mzZxUUFKRWrVqpe/fu8vT0tOrFxMRo8+bNkqT69eurS5cukqRVq1ZZe400adJE7du316ZNm7R8+XI9+eSTCg0NvcF3CAAAAAAAADdL7pdeN27cqNdff92hLDo6Wn5+furfv78mTZqkffv2qVatWlb51q1blZqamueLs8YYrVixQnFxcTpw4IBq166t9u3b6+67784z/rlz5zRjxgzVqlVL3bp1y9PPmjVrtHXrVv3666+qXr26nnzySdWtW1cffPCBJGnYsGH5Xtvq1asVHR2tM2fOqE6dOurdu7eqV69ulcfHx2vVqlU6dOiQJOlf//qXSpYsqWrVqqlnz55X8e4BKBQGt7TRo0c7PX///fcbSUaSsdvt5sCBA07rHT161LRo0cL6mTVrljHGmEGDBlnthwwZYvr06WMd5/6ULl3a/PDDD3n6jIiIMDabLU99SaZRo0YmOTnZqvvqq69aZT179rTOXzr+sGHDzIgRI6zj5cuX38hbBtxU/v7+RpIJDQ11dSiAW+JPFeD2wFwH3AtzGnBvV5rjFStWNCVKlDBpaWnWuczMTOPn52d69Ohhvv76ayPJTJs2zaHd+PHjjSSzbt0669zhw4dNWFiYkWSKFStmgoKCjKenp7HZbObpp582Fy5ccOjj8OHDRpLp3Lmzw/njx4+bBx980EgyNpvNVK5c2Xh6epoSJUqY1atXm8DAQBMYGOjQJiEhwUgy3bt3Nz169DCSTMmSJY3dbjeSjI+Pj1mxYoVVf+bMmU7vk91///1X/8YClxkxYoSrQyjyWPaqCDLGOGwOFRwcrGrVqjmtW7FiRcXGxlo/AwYMyFPnP//5j+bPny8/Pz+HRwvPnj2rESNGONSdN2+eJk+eLGOM7Ha72rZtq6eeekqlSpWSJP3444952vyZtWvXasqUKdfUBgAAAAAAALeWsLAwZWRkOOz7ERsbq6SkJHXu3FktW7aUn59fnn0/NmzYIC8vL/3lL3+RdHGFkoceekgbN27Uu+++q/Pnz+v3339XUlKShg0bpo8//lgTJ07803hycnLUsWNHrVmzRmPHjlVycrIOHz6sc+fO6a233tLjjz+uM2fO5Ns+KipKe/bsUWxsrFJSUpSWlqYFCxYoLS1NQ4cO1YULFyRdXJElKSlJLVq0kCQdPHhQSUlJWrp06TW/hwAKDsmPIigxMVEZGRnWcY0aNW6ov7Nnz2r+/Pk6c+aMkpKSNHLkSKvsm2++UVZWlnX8+eefW6+nTJmi9evXa8GCBXr//fet8+vWrbum8RMSElSmTBkNHz5cH330kZo2bXoDVwMAAAAAAABXuHTpq1xRUVHy8PBQhw4dZLfb9cADD2jDhg1KTU2VJGVkZCg2Nlb33nuvvLy8JEmzZs3Sjh07FBERoZdeeknFixeXJJUqVUpTp07VPffco/Hjx+vUqVNXjOff//63fvjhB73wwgv6xz/+IV9fX0lSyZIlNWLECL344osO99icWbZsmVq0aCGbzSa73a6nnnpK3bp10/79+5WQkCBJKl68uMqUKSO7/eIOA2XKlFGZMmXYgwRwMZIfRVB6errDccmSJW+ov3bt2ik8PFySZLPZFBERYZVlZWXp4MGD1vGkSZMUHx+v+Ph4h6dIWrdubb0+cOCA9QF2NXx8fLR582ZNnTpVzzzzjAIDA2/kcgAAAAAAAOACzjY9j46OVosWLVSuXDlJUseOHZWenq4NGzZIkrZs2aK0tDSrrSRrn9vBgwfnGcNms6lz5866cOGCdu7cecV4Fi9eLEkO97ouNXz48Cu2b9q0qapWrZrnfEhIiCRp7969V2wPwLXY8LwI8vf3dzj+/fffb6i/unXrOhyXL1/e4fjSZEuDBg10/PhxRUZGaty4cTpx4oROnTqVJ0uemZl51eO3bt1aDRo0uI7IAQAAAAAAcKuoVq2aatWqpS1btig9PV0nT57Url27NGHCBKtOhw4dZLPZFB0drYceeshKgly62fnu3btls9nUqVMnp+MkJydLkn766SeHpMnldu7cqTJlyqhSpUpOy/38/K74Jdz82uUu/56UlJRvWwCuR/KjCCpZsqSqV6+uAwcOSLq4bFRaWlq+T4C8/vrr2r9/vyQpNDQ0T7bb09PzqsdesWKFunXrdk1PdvyZ6tWrF1hfAAAAAAAAcJ2wsDDNnj1bW7ZssZaF6ty5s1UeGBiou+66S1FRUZo+fbo2bNig0qVLW8ugG2N06tQpeXl5WXto5Ce/5ESu9PR0FStW7Ip1srOz8703ZrPZrtgWwK2N5EcR1bFjR/373/+WdDHL/OGHH+r555/PU+/48eN66623rH07GjZseN1jpqWl6dFHH1V6erpsNpvefvtt9ezZU3fccYeSk5Ove7kqDw9WXwMAAAAAAHAH7dq10+zZs7Vx40b98MMPqlKlirVMVK5OnTrpzTff1LZt27R161Y98MAD1n4ZNptN9erV0549ezRz5kyVKFHiumO58847tWXLFh05ckSVK1fOU37s2DGdPHmSJdgBN8Vd5yJq7NixKl26tHU8ZswYffbZZw51jh8/rscff9xhw/KOHTte95i5jyxKUr169TRy5EhVq1ZNXl5eOnz48HX3CwAAAAAAAPfQtm1b2Ww2rVixQuvWrXN46iNX7nJWr732mjIyMvIsXRUSEqLs7Gx98803TsfYt2+fvvzySx06dOiKsdx///2SpIkTJzotf/PNN//0eq6HMaZQ+gVwbUh+FFGBgYF64403rOOUlBT17NlTtWvX1mOPPab27durZs2a+vrrr606AwYMUOPGja97zNz1DCXpl19+0apVq6zNpQYNGnTd/QIAAAAAAMA9VKhQQY0aNdJ3332n1NRUPfTQQ3nq3HPPPfL399fKlSslOe73IUkjR46U3W7XyJEjde7cOYeynJwcDRgwQF27dlVOTs4VYxk9erRq1Kih6dOna9SoUUpMTJR08QvDL7zwgj7//HP5+PjcyOU6yP2i8s8//1xgfQK4fiQ/irDnn39e7777rsNeH/v27dOSJUu0du1ah3052rdvrw8++OCGxgsJCVGNGjUkXfyg6dChg7y8vNS4cWNr/xEAAAAAAADc3nKf5PDy8nK6IbmHh4cefPBBSVL58uXVqFEjh/KQkBCNGzdO33//vfX6008/1YwZM9S6dWutX79ezz//vKpVq3bFOLy9vbVq1So1b95cEydOVEBAgLXJ+f/+9z8tW7ZMvr6+BXTVUuvWrSVJgwcP1r/+9a9Ce7IEwNUh+VGEeXh46KWXXtKOHTv0yCOP5MlUFytWTM2aNdPSpUu1evXqP93g6c+UKFFCX331le6++27rnDFGTZo0cXjCBAAAAAAAALev3Cc5wsLC5O3t7bRO7tJXYWFhTjcWHz16tNasWSM/Pz+NHz9evXr10tChQ3Xw4EG99957mjJlylXFUqdOHX377bdavny5xo0bp6eeekpz5szR3r17dc899yg5Odlhafkb8fzzz6t3797asWOHRowYoTlz5hRIvwCuj82wCN0t7ZVXXtFbb711VXUzMzP1+++/KzExUQEBAapWrZo8PT0LJa4jR47o2LFjKl++/J9m2QF3FhAQoMTERIWGhmr79u2uDgdwOzabjfVygdsAcx1wL8xpwL25Yo6np6dr//79Kl++vMqXL3/V7b7++msdO3ZMHTt2dJrg+OWXX1SvXj09/vjjefbSvdF4jx07psDAQIcVW4BrERERocmTJ7s6jCKNJz/cSLFixVSrVi01b95cNWvWLLTEhyRVrlxZzZo1I/EBAAAAAACAQuXl5aUGDRpcU+JDupj86NmzpyZNmpSnLCsrSy+99JIkqUOHDgUSZy4vLy/VqFGDxAfgYnZXBwAAAAAAAAAABW3YsGH69NNPNX78eP3www964IEHVKZMGf3+++9atGiREhIS1KVLF/Xr18/VoQIoBCQ/AAAAAAAAALgdPz8/bdiwQe+8847mzp2rqKgoq6x69eqaPn26nn32WRdGCKAwkfwAAAAAAAAA4JYqVKigKVOmaMqUKUpMTNTJkycVFBSU70bsANwHyQ8AAAAAAAAAbs/f31/+/v6uDgPATcKG5wAAAAAAAAAAwK2Q/AAAAAAAAAAAAG6FZa9ucTExMbLZbK4OA8CfiI+PZ64ChYS5BdwemOuAe2FOA+6NOQ4UvpYtW7o6hCKP5MctrlWrVoqJiXF1GADyERAQoMTERIWGhmr79u2uDgdwOzabTcYYV4cBoJAx1wH3wpwG3BtzHLg5IiIiXB1CkceyVwAAAAAAAAAAwK2Q/AAAAAAAAAAAAG6F5AcAAAAAAAAAAHArJD8AAAAAAAAAAIBbIfkBAAAAAAAAAADcCskPAAAAAAAAAADgVkh+AAAAAAAAAAAAt0LyAwAAAAAAAAAAuBWSHwAAAAAAAAAAwK2Q/AAAAAAAAAAAAG6F5EcR9d1336lr167Wz+7du53W+/LLLx3qJSUl3eRIAQAAAAAA4M4OHz6srl276uWXX863zoIFC/TYY4/pwoULTst37dqlrl27auHChYUVJoDbDMmPIurYsWNaunSp9XPq1Cmn9X799VeHehkZGTc5UgAAAAAAALizSpUqadOmTZo2bVq+955mzJihJUuWKCYmxmn58uXLtXTpUpUpU6YwQwVwGyH5AQAAAAAAAOC6eXh4qE2bNkpPT9eWLVvylJ88eVJxcXGSpOjoaKd9bNiwQZ6envrrX/9aqLECuH2Q/AAAAAAAAABwQ8LCwiRJGzduzFO2YsUK5eTkyMfHR1FRUXnKMzMz9e2336p58+YqXbp0YYcK4DZhd3UAcJ0lS5Zo7969kqTWrVurRYsWVllSUpJmzZplHb/88suy2WxatWqV4uPjJUlNmjRRmzZttGDBAq1bt05paWlq0aKFhg4dqlKlSik1NVXz5s3Tpk2blJOTo6ZNm2r48OHy9vbOE0tCQoIWLlyo3377TWfPnlVQUJBatWql7t27y9PT06Hu5TGEhYXp888/16pVq5ScnKzg4GANGTJEQUFBBf6eAQAAAAAAIK927dpJupj8eP311x3KoqOj5efnp/79+2vSpEnat2+fatWqZZVv3bpVqampVh+X2rx5s2JjY7V7925VrVpVTZo0UadOnWS3572tmZiYqNmzZ6t+/frq3LmzlixZonXr1ik9PV0tWrRQnz595OXlJUlau3atoqKilJiYqHr16unZZ59V+fLlnV7bb7/9pkWLFmnfvn0qXry4GjZsqL59+8rX19fp2F26dNHq1asVHR2tM2fOqE6dOurdu7eqV69+ze8rgBtgcEsbPXq00/NLly41kqyfjRs3Oq03adIkh3p//PGHVfbII49Y59955x2Hdr/++qtDu6ysLGOMMYMGDbLODRo0yHTr1s2hniRz9913m71795patWrlKatbt645d+6cw1gRERHGZrPlqSvJNGrUyCQnJzvUvzSGIUOGmD59+uRpV7p0afPDDz9c8/sNXCt/f38jyYSGhro6FMAt8acKcHtgrgPuhTkNuLcrzfGKFSuaEiVKmLS0NOtcZmam8fPzMz169DBff/21kWSmTZvm0G78+PFGklm3bp117vTp06ZXr17WvZ5KlSoZu91uJJkmTZqYXbt25Rk/ISHBSDI9evQw/fv3N5KMj4+Pdd+pZcuW5vz58+Zvf/ubkWRKlChhihcvbiSZgIAA8+OPP+bpc9q0acbDw8N4eHiYKlWqmLJlyxpJpnz58ua3337LM3b37t1Njx49jCRTsmRJK2YfHx+zYsWKa3mrcZsbMWKEq0Mo8lj2yk189913WrVqVZ6fhISEQhtz/vz5ioyMVNmyZVW8eHGHWJo0aaJ9+/apVKlSDk96/PLLL/rnP/9pHc+bN0+TJ0+WMUZ2u11t27bVU089pVKlSkmSfvzxR40YMSLfGP7zn/9o/vz58vPzc3gs8uzZs1dsBwAAAAAAgIIVFhamjIwMh30/YmNjlZSUpM6dO6tly5by8/PLs+/Hhg0b5OXlpb/85S/Wuccee0yLFi3Sc889p8TERB05ckRnz57VzJkztWfPHrVp00YnT550GsdXX32lHTt2KD4+XufPn9eZM2fUvXt3xcbGqlmzZoqJidHixYt1/vx5paam6v3339fp06c1fPhwh3527Nih4cOHq1GjRtq/f78OHTqkxMREzZ8/XydPntSQIUPyjB0VFaU9e/YoNjZWKSkpSktL04IFC5SWlqahQ4fqwoULN/IWA7gGJD/cxMsvv6wOHTrk+fnoo48KbcyMjAwtWbJEiYmJ+uOPP3TnnXdaZefOndOECROUnJysM2fOqEuXLlbZpWs/fv7559brKVOmaP369VqwYIHef/996/y6devyjeHs2bOaP3++zpw5o6SkJI0cOdIq++abb5SVlXWjlwkAAAAAAICrcOnSV7mioqLk4eGhDh06yG6364EHHtCGDRuUmpoq6eL9pdjYWN17773WklRz587Vxo0b1adPH73//vsqW7asJKlkyZIaOHCgPvjgA50+fVoRERFO4/D09NSXX36pxo0bS5LKlCmjGTNmSLq49Pr06dP16KOPym63y9PTU88995yaNWumjRs3Kj093epn/fr1uuOOOzRhwgRVq1bNOh8eHq6GDRtq8+bNTsdftmyZWrRoIZvNJrvdrqeeekrdunXT/v37C/WLygAckfzAdevQoYO6du0qSSpbtqx69epllVWuXFmvvPKKPDw8VLx4cT377LNWWe4+I5I0adIkxcfHKz4+XgMGDLDOt27d2np94MAB6wPxcu3atVN4eLgkyWazOXzoZWVl6eDBgzd4lQAAAAAAALgazjY9j46OVosWLVSuXDlJUseOHZWenq4NGzZIkrZs2aK0tDSrrfR/X5YdPXq003H69u2rSpUqacmSJcrJyclT3qxZM1WsWNHhXLly5VShQgXZbDY99NBDedo0aNBAOTk5+vXXX61zL774oo4dO6bOnTvnqR8UFKTk5GQdP37c4XzTpk1VtWrVPPVDQkIkOd4XA1C42PDcTfTq1cvpP6xbt261PkwKWo0aNRyOc7PwkvJs4HRp2aUZ9AYNGuj48eOKjIzUuHHjdOLECZ06dUoZGRkO7TMzM53GULduXYfjyzemunQsAAAAAAAAFJ5q1aqpVq1a2rJli9LT03Xy5Ent2rVLEyZMsOp06NBBNptN0dHReuihh6z7Vpdudr5r1y55eXmpTp06Tsfx8PBQw4YNtWbNGu3fv1+1a9d2KA8MDHTaztvbWz4+Pg4blV9aJknJyckO540x+u6777Rs2TIdOnRIJ06cUFZWluLj4yUpz6ojlSpVcjp27hLvSUlJTssBFDySH25iwIABDk9L5Jo8eXKhJT9sNtt1lV1qxYoV6tatW75PdvwZT0/P62oHAAAAAACAghcWFqbZs2dry5Yt1hJPlz45ERgYqLvuuktRUVGaPn26NmzYoNKlS6tp06aSLiYbTp06JT8/P3l45L9ojb+/vyTp5MmTeZIfBeXkyZPq2rWrvv32W9WqVUvNmzdXzZo1Vbx4ce3bt0+nTp3K0+Zq74kBKHwsewVJebPU58+fL/Qx09LS9OijjyqhGMtRAAAgAElEQVQ1NVU2m03vvPOODhw4oLS0NP3xxx+FPj4AAAAAAAAK1qX7fkRHR6tKlSrWkk+5OnXqpIMHD2rbtm3aunWrWrduLbv94ne0bTabgoODdeLEiSt+WXbfvn2SLq4qUlj69u2rzZs3a+HChfr111/16aefavr06frXv/5VqOMCKBgkP25jFSpUsF5fvtnS+vXrC3383EcgJalevXoaOXKkqlWrJi8vLx0+fLjQxwcAAAAAAEDBatu2rWw2m1asWKF169Y53S+jU6dOkqTXXntNGRkZDvt9SBf3zTDGKDo62ukYBw8e1M6dO1WrVi2VKVOm4C9CFzdiX79+vUJCQhz2uc116NChQhkXQMEh+XEbq1evnvX6s88+07vvvqv169dr4sSJevXVVwt9/Ny1DiXpl19+0apVq3ThwgXt3LlTgwYNKvTxAQAAAAAAULAqVKigRo0a6bvvvlNqaqrTzcXvuece+fv7a+XKlZIc9/uQpDFjxsjb21ujRo3SkSNHHMrS0tI0dOhQXbhwwWEvkYJWrFgx2e12p/vJbtiwQT/++GOhjQ2gYJD8uI2Fh4db6yNmZmbq5ZdfVrt27TRq1Ci1bdu20McPCQmxNk3PyclRhw4d5OXlpcaNG+vAgQOFPj4AAAAAAAAKXu6THF5eXnme6pAublj+4IMPSpLKly+vRo0aOZTXrFlTU6dO1cGDB9W4cWONGjVKn3zyiSZMmKBmzZopKipK4eHh6tGjR6Fdg4eHhx555BH9/PPP6tevn5YtW6bFixfr+eef16OPPuqwogqAWxPJj9tYuXLl9NVXX6lu3brWObvdrsGDB2vKlCmFPn6JEiX01Vdf6e6777bOGWPUpEkTff3114U+PgAAAAAAAApe7pMcYWFh8vb2dlond+mrsLAwp5uE9+/fX7GxsQoODtZ7772n8PBwjR07Vjk5OVq4cKHmz59feBfw/82YMUO9e/fWggUL1KVLF3Xv3l1r167VsmXL1KxZs0IfH8CNsRljjKuDQP5eeeUVvfXWW4U6hjFGhw4d0qlTp1SzZk35+fkV6njOHDlyRMeOHVP58uVVrVq1mz4+cL0CAgKUmJio0NBQbd++3dXhAG7HZrOJP1UA98dcB9wLcxpwb66Y41lZWdq3b5+qVKkiHx+fmzq2JKWkpOj3339XlSpV5Ovre9PHx+0pIiJCkydPdnUYRZrd1QHA9Ww2m6pWraqqVau6LIbKlSurcuXKLhsfAAAAAAAAtya73e6wd+3N5uPjo/r167tsfADXh2WvAAAAAAAAAACAWyH5AQAAAAAAAAAA3ArJDwAAAAAAAAAA4FZIfgAAAAAAAAAAALdC8gMAAAAAAAAAALgVkh8AAAAAAAAAAMCtkPwAAAAAAAAAAABuxe7qAHBlMTExstlsrg4DwJ+Ij49nrgKFhLkF3B6Y64B7YU4D7o05DhS+li1bujqEIo/kxy2uVatWiomJcXUYAPIREBCgxMREhYaGavv27a4OB3A7NptNxhhXhwGgkDHXAffCnAbcG3McuDkiIiJcHUKRx7JXAAAAAAAAAADArZD8AAAAAAAAAAAAboXkBwAAAAAAAAAAcCskPwAAAAAAAAAAgFsh+QEAAAAAAAAAANwKyQ8AAAAAAAAAAOBWSH4AAAAAAAAAAAC3QvIDAAAAAAAAAAC4FburA0DR8N///leLFy+WJN1777164YUXrqrdzJkztW7dOknSww8/rPDwcElSTk6OVq9erZSUFHXp0kXFihUrnMABAAAAAAAAALcdkh9FXGJioqZOnaoffvhBv/zyi7y8vFS9enXdd999Gjx4sEqVKlUg4+zevVuRkZGSJLv96n9tvv/+e6td9erVrfNjxozRO++8I0nq1auXFi5cWCBxAgAAAAAA4ObLzMzU448/7nCuWLFiqlKlioKDg/XEE0/I19fXRdEBuB2R/CjCIiMj1b9/fyUnJzuc37lzp7766itNnDhRK1asUPPmzV0UYf4SEhKs13v27HFhJAAAAAAAALhROTk5Wrp0qex2u2rXri1JysrKUnR0tFJSUjRy5EhNmzZNvXv3dnGkAG4XJD+KqF27dqlPnz5KTU2VJJUpU0ahoaFKS0vT999/r+zsbJ0+fVqPPvqoduzYIX9/fxdH7Oi1115TYmKiUlNTrSdAAAAAAAAAULQFBgbm+aLr+vXr1adPHz399NOqUaOG7r33XhdFB+B2wobnRdTMmTOtxEfDhg114MABbdy4UVu3blVcXJx8fHwkSYcPH9ayZctcGapTTZo00aZNmxQXF6d27dq5OhwAAAAAAAAUkrCwME2fPl2ZmZn6+OOPXR0OgNsET34UUXFxcdbrTp06yc/Pzzq+6667NGzYMGuj8UOHDuVpb4zRsmXLtG3bNu3evVvlypVTo0aN1LlzZ9WoUeOa40lISNAXX3yhH374QSVKlFCbNm3Up0+ffOvHxMRo8+bNkqT69eurS5cuDuXZ2dn64osv9P3332vPnj2qWLGi7rzzToWHh+fZx2TVqlWKj4+XdDGp0r59e23atEnLly/Xk08+qdDQ0Gu+HgAAAAAAABSc++67T5LjPS3p4j2qFStWKC4uTgcOHFDt2rXVvn173X333Xn6SExM1OzZs617Sdu2bVNkZKTatm2rBx98UNLFe0qRkZGKiYlRSkqK6tatq/DwcFWuXNlpXJs3b1ZsbKx2796tqlWrqkmTJurUqZPTPW8vH3/16tWKjo7WmTNnVKdOHfXu3dthz1sArkXyo4i6dIOo1atXa/To0Spbtqx17kpLSf30008aMGCAvv322zxlI0eO1JgxYzRy5Mir3th8zpw5eu6555SWlmadW7hwoVatWpXvhuurV6/Wm2++KUnq2bOnQ/Jjx44deuaZZ/T999/naTdhwgTNmjVLnTt3ts4tXbpUM2fOlCQNGzZMK1eu1JQpUyRJbdq0IfkBAAAAAADgYllZWZKk4sWLW+eOHDmi8PBwrV+/XsWKFVNgYKA++eQTvfbaa+rXr59mzpypYsWKWfVPnjypUaNGqWfPnjpx4oSeffZZSVLFihX14IMP6ty5c2rXrp3i4uLk5eWlgIAAzZs3T+PGjdPKlSvVunVrq6/ExEQ999xzWrRokSSpUqVKOnHihLKystSkSRPNnz9fjRo1criG3PG7d++uRYsW6bPPPlPJkiWVmZmprKwsvfPOO4qMjFSHDh0K7X0EcPVY9qqIaty4sfV6x44dCgoK0sMPP6x//OMfWr58uY4ePeq03enTp9WuXTsr8eHn56d27dpZ/5inpaXp1Vdf1YQJE64qjri4OD377LNW4sPX11etWrVS3bp1FRkZaX2AXK2TJ0+qffv2VuIjLCxMb7zxhsLDw2W323X06FH17NlT+/fvd9p+7dq1VuIDAAAAAAAAt4aVK1dKkpo3by7p4hMaDz30kDZu3Kh3331X58+f1++//66kpCQNGzZMH3/8sSZOnOi0r7i4OL322mv65z//qR07dmjgwIGSpLfffltxcXGaNWuWTp8+rcOHDysuLk4lSpRQ3759Hfp47LHHtGjRIj333HNKTEzUkSNHdPbsWc2cOVN79uxRmzZtdPLkSafjR0VFac+ePYqNjVVKSorS0tK0YMECpaWlaejQobpw4UIBvWsAbgTJjyJqzJgxDo/rpaSkaPny5XrjjTf08MMPq3LlymrXrp02btzo0G748OH6448/JEnNmjXT3r17tXbtWu3atUtz58616r355pvasWPHn8bx0ksvyRgj6eKH1/79+/X111/r559/1owZM675H/vhw4dbHywDBw7UunXr9Prrr2v+/Pn66KOPrGt94YUXnLZPSEhQmTJlNHz4cH300Udq2rTpNY0PAAAAAACAgpORkaFPP/1UL774ory9va1ExaxZs7Rjxw5FRETopZdesp4IKVWqlKZOnap77rlH48eP16lTp/L0uX//fv33v//V3//+d4WEhMjLy0uStGXLFpUpU0YDBgyQt7e3pIv3vyZOnKj77rvPuuc0d+5cbdy4UX369NH7779vraZSsmRJDRw4UB988IFOnz6tiIiIfK9r2bJlatGihWw2m+x2u5566il169ZN+/fvV0JCQsG9gQCuG8mPIiogIEDffvut+vbtK09PT6d11q9fr/bt21sJkNx9NHJNmjRJ5cqVs4779u1rPf6XlZWl5cuXXzGGjIwMffPNN9bxxIkTHfobPHjwNSUfsrOztXTpUut49OjRDuVPPPGE9UGYu1/I5Xx8fLR582ZNnTpVzzzzjAIDA696fAAAAAAAANyYY8eOKSgoSEFBQapYsaK8vb3Vq1cveXt767PPPrOWJ8+9RzV48OA8fdhsNnXu3FkXLlzQzp0785QHBwc7LGGVq1KlSkpOTtbs2bOVk5NjnR84cKA++eQTlS9fXpL0+eefS8p77ylX3759ValSJS1ZssShn1xNmzZV1apV85wPCQmRJO3du9dpvwBuLvb8KMKqVaumuXPnaurUqdq2bZu+++47bdu2TV9//bWVyc7KytKwYcP0448/6ueff3bYl8PZxlEtW7bUpk2bJEnbt2+/4vi//vqrwwdAs2bN8tRp1qyZ0707nPn555+Vnp5uHQcHB+epk/skyenTp/XHH3/kSW60bt1aDRo0uKrxAAAAAAAAULBKlChh7Xlht9tVpUoVBQcHq0uXLg77d+zevVs2m02dOnVy2k9ycrKki3vXhoWFOZTVqVPHaZsxY8YoKipKAwYM0KhRo9SyZUvdd9996ty5s8P+Hbt27ZKXl1e+/Xh4eKhhw4Zas2aN9u/fr9q1azuUV6pUyWm73L1vk5KSnJYDuLlIfriB0qVLKywszPoguHDhgp599lktWLBA0sWloNLS0qzlriSpWLFi1iOBlypTpoz1+vTp01cc99J1Dz09PeXj45OnTn4bnjtzaXz5uTTmo0eP5kl+VK9e/arHAwAAAAAAQMHy9/fX7Nmzr1jHGKNTp07Jy8tLLVq0uGJdZ4mG3CWtLle/fn39+uuvmj59utauXas1a9YoKipKo0ePVnh4uObOnSubzaZTp07Jz89PHh75L4rj7+8v6eL9r8uTHzab7YoxA7g1kPwogn788Ue1b9/eOl65cqXDBujFixfXE088YSU/srOzde7cOYcMd2Zmpo4ePeqwb4gkHThwwHqd+6hefmrWrGm9zs7O1uHDh/M88rdv376rvq769etbrz09PXXmzBmnCZorudKHFgAAAAAAAFzPZrOpXr162rNnj2bOnKkSJUoUWN8BAQEaO3asxo4dq/T0dG3atEkvv/yyFixYoA4dOuiJJ55QcHCwdu7cqdTU1HwTKbn3tFhhBCi6uFNcBAUHB+vcuXP6448/9McffzjNpq9fv956HRQUpAoVKqhChQqqUqWKdX7evHkObc6dO6fIyEjr+M/26wgKCnL4gLh0w3RJOnjwoFasWHFV1yRJFStWVIUKFSRdTKZERUU5lKelpWngwIHq16+f+vXrp9TU1KvuGwAAAAAAALeOkJAQZWdnO+wne6l9+/bpyy+/1KFDh66qv6ysLI0ePVpz5syxznl5eenBBx+07p3lLs3etGlTGWMUHR3ttK+DBw9q586dqlWrlsMqKQCKFpIfRZDdblefPn2s4+nTp+vhhx/W1KlT9dFHH6l3796aNGmSVf70009br99++23r9euvv66xY8fq22+/1ZIlS/TXv/7VWuoqNDRUTzzxxBXjsNlseuaZZ6zj8ePH6+WXX9bKlSs1a9YstWrVShkZGdd0ba+//rr1esiQIVq8eLHOnDmjw4cPa+jQofrwww81b948JSQk5JuZBwAAAAAAwK1t5MiRstvtGjlypM6dO+dQlpOTowEDBqhr165ONxx3xm63KzIyUn//+9+VmJjoUJa7B0fu8uljxoyRt7e3Ro0apSNHjjjUTUtL09ChQ3XhwgVNmDDhei8PwC2AZa+KqMmTJ2vr1q1Wxnr58uVavnx5nnrt27fXa6+9Zh337t1bGzdu1Jw5c5Sdna3x48dr/PjxDm3uuOMOffLJJw6bUOXnH//4hxYvXqyjR48qOztb7777rt59911JF/f7aN26tbWB+tUYPHiw1qxZo6VLl+rEiRPq1q1bnjq+vr56//33r7pPAAAAAAAA3FpCQkI0btw4vfLKKwoJCVG/fv1Up04dnTlzRp9++qm++eYbvfDCC6pWrdpV9zl69Gg988wzatWqlQYOHKjAwEAdOHBAU6dOVenSpa37TDVr1tTUqVM1ePBgNW7cWP3791fDhg31+++/a9GiRfrpp58UHh6uHj16FNblA7gJePKjiPLy8lJsbKxmzJihWrVqOex1YbPZVKdOHX388cdauXKlPD09Hdp+9NFH+vLLL9WoUSOHdv7+/ho8eLASEhIc9ge5krJly2r79u169NFHZbf/Xy6tadOm2rRpk+rUqXNN12Wz2fTFF1/ok08+Ue3atR02kPLw8NBjjz2mmJgYNW/e/Jr6BQAAAAAAwK1l9OjRWrNmjfz8/DR+/Hj16tVLQ4cO1cGDB/Xee+9pypQp19Tf008/rTlz5ujcuXN6/vnn1aNHD40cOVKVKlVSdHS0qlevbtXt37+/YmNjFRwcrPfee0/h4eEaO3ascnJytHDhQs2fP7+ArxbAzWYzxhhXB4H8vfLKK3rrrbf+tN6FCxd04MABpaenq06dOipZsuRV9Z+enq5ffvlF5cqVU6VKlW4o1oyMDP3888/y8/PLs/H59UpJSdHevXvl6+urKlWqFOgGWEBBCAgIUGJiokJDQ7V9+3ZXhwO4HZvNJv5UAdwfcx1wL8xpwL0V1hxPT0/X/v37Vb58eZUvX/6G+zt16pSOHz+uqlWrytfX94p1s7KytG/fPlWpUkU+Pj43PDZQECIiIjR58mRXh1GkseyVmyhevLjq1q17ze28vLwUEhJSIDGUKFGiwPrK5ePjo9DQ0ALtEwAAAAAAALcWLy8vNWjQoMD6K1eunMqVK3dVde12u+rVq1dgYwO4NbDsFQAAAAAAAAAAcCskPwAAAAAAAAAAgFsh+QEAAAAAAAAAANwKyQ8AAAAAAAAAAOBWSH4AAAAAAAAAAAC3QvIDAAAAAAAAAAC4FZIfAAAAAAAAAADArdhdHQCuLCYmRjabzdVhAPgT8fHxzFWgkDC3gNsDcx1wL8xpwL0xx4HC17JlS1eHUOSR/LjFtWrVSjExMa4OA0A+AgIClJiYqNDQUG3fvt3V4QBux2azyRjj6jAAFDLmOuBemNOAe2OOAzdHRESEq0Mo8lj2CgAAAAAAAAAAuBWSHwAAAAAAAAAAwK2Q/AAAAAAAAAAAAG6F5AcAAAAAAAAAAHArJD8AAAAAAAAAAIBbIfkBAAAAAAAAAADcCskPAAAAAAAAAADgVkh+AAAAAAAAAAAAt0LyAwAAAAAAAAAAuBW7qwMAcGUffvih1qxZI0nq0KGDnnnmGRdHBAAAAAAAAAC3NpIfRdR3332nt99++0/r+fn5ae7cuTchIhSW7du3KzIyUpIUGBjo4mgAAAAAAADyyszM1OOPP+5wrlixYqpSpYqCg4P1xBNPyNfX10XRAbgdkfwooo4dO6alS5f+aT1ulgMAAAAAAKCw5eTkaOnSpbLb7apdu7YkKSsrS9HR0UpJSdHIkSM1bdo09e7d28WRArhdsOcHAEnS0aNH5evra/2kpKQQCwAAAAAAuCaBgYHas2eP9uzZo7179+r8+fNat26dSpUqpaefflrffvutq0MEcJvgyQ83sXLlSjVr1izPeZvN5oJoUBQZY3T+/HlXhyHp1ooFAAAAAADcmLCwME2fPl1/+9vf9PHHH+vee+91dUgAbgMkP9yEn5+fAgICrlhn1apVio+PlyQ1adJEYWFh+vzzz7Vq1SolJycrODhYQ4YMUVBQkNP22dnZ+uKLL/T9999rz549qlixou68806Fh4erVKlS+Y7Tpk0bLViwQOvWrVNaWppatGihoUOHqlSpUkpNTdW8efO0adMm5eTkqGnTpho+fLi8vb0lSatXr9b27dslSeXKlcuz2Xd2dramTJminJwc2Ww2jRgxQnb7lX+tL78OPz8/BQcHq2/fvk6XCTPGaNmyZdq2bZt2796tcuXKqVGjRurcubNq1Kjxp+/zjVy/M8YYffHFF1q2bJnOnTun0NBQPfbYY6pfv77T+gkJCVq4cKF+++03nT17VkFBQWrVqpW6d+8uT09PSdKaNWu0YcMGh3aTJ09WiRIl1LZtW919993X3Kez9+JqfueuNRYAAAAAAHDru++++yRJcXFxDueNMVqxYoXi4uJ04MAB1a5dW+3bt3f6//+JiYmaPXu26tevry5dumjbtm2KjIxU27Zt9eCDD0q6eN8nMjJSMTExSklJUd26dRUeHq7KlSs7jWvz5s2KjY3V7t27VbVqVTVp0kSdOnVyen/p8vFXr16t6OhonTlzRnXq1FHv3r1VvXr1G3ynABQYg1va6NGjnZ5funSpkWT9bNmy5U/7GjRokFV/yJAhpk+fPg59SDKlS5c2P/zwQ5628fHxpmnTpnnqSzKVKlUyy5YtczrOoEGDTLdu3fK0ufvuu83evXtNrVq18pTVrVvXnDt3zhhjzLp166zzNpvN7N+/3yGuFStWWOX333//n74H27dvz/c6SpQoYf7973871N+9e7e59957ndYvWbKkefPNN01mZma+7/ONXr+z/26DBw/O08bLy8t88MEHea43IiLC2Gw2p/E3atTIJCcnG2OMGTZsmNM6ksykSZOuq09nsV/N79y1xHIr8Pf3N5JMaGioq0MB3BJ/qgC3B+Y64F6Y04B7y2+Op6enG0mmSpUqTsuPHz9uJJmmTZta5w4fPmzCwsKMJFOsWDETFBRkPD09jc1mM08//bS5cOGCQx8JCQlGkunZs6eZPXu2db/gvffeM8YYc/bsWdO8eXPrXknlypWt1xs3bnTo6/Tp06ZXr14O97fsdruRZJo0aWJ27dqV5xpyx+/evbvp0aOHdX8ot52Pj49ZsWLFNb2fQH5GjBjh6hCKPP4iucVdbfJjxowZZuPGjQ4/e/fudWhz6Y3o0qVLG0nGz8/Pep3706ZNG4d2J06cMOXLl7fKw8LCzBtvvGHCw8Md/nHft29fnnFKlixpJJmyZcua4sWLO4zj6+trJJlSpUoZb29vh7LXXnvNGr9x48bW+cvfj549e1pl//vf/674Xl5+HcWKFTMNGzY0Xl5e1jkPDw+zatUqY4wxp06dMoGBgVaZn5+fadeunWnUqJFDrG+88Ua+73NBXP+l/eW2qV27tmnVqpUpVaqUQ3IoNjbWajd37lyrzG63m7Zt25qnnnrKoc0zzzxjjDFm0qRJ5q677nKIoXnz5qZFixZm4cKF19Xn9f7OXW0stwqSH0Dh4uYJcHtgrgPuhTkNuLfrTX7Mnz/fSBe/KGqMMVlZWaZx48bGw8PDvPvuuyYjI8MYY8y5c+fMc889ZySZ8ePHO/SRm3yoVauWCQwMNP/85z/Njh07TFpamjHm4n00SWbWrFkmJSXFGGNMXFycKVOmjKlevbpDX23atDGSzHPPPWcSExONMcakpqaamTNnmpIlS5qAgABz4sQJp+N7e3ubkJAQExsba3JyckxmZqZZsGCB8fDwMDVr1rSuBbgRJD9uHH+R3OKuNvnh7GfYsGEObS69ES3JzJ8/3xhjTE5Ojhk5cqTDTe1Ln2a4NMEwcOBAhz7nzZtnlT388MN5xvHw8DBLliwxxhiTmJho7rzzTocYJkyYYLKzs01GRobp0qWLdb5Vq1bWGJfecL/jjjusrH9SUpKVuAgMDMzzbYDL5WbkJZkGDRqYgwcPGmOMOX/+vPWhmpu9N8Y4ZP+bNWtmTp486TQmu91u4uPjnb7PBXH9l/93u/QJj2PHjjkkh+677z6rrGPHjtb5999/3zr/8ccfW+cv/eA/fPiwwzjnz5/P8x5ea5/X+zt3NbHcKkh+AIWLmyfA7YG5DrgX5jTg3q41+ZGenm4WLVpk/P39jbe3t9m+fbsxxpjp06cbSebvf/97nr5ycnLMPffcY4oXL+5wPyY3+WCz2fI8yWGMMW3btjVlypTJc37mzJmmd+/eVjIj9z5Gnz59nF7LnDlzjCTz1FNPOZy/NPmRe1/pUo8//riRZHbs2OG0X+BakPy4cR7Cbaldu3YKDw+XdHFT9IiICKssKytLBw8elHRxncSlS5daZaNHj3bo54knnlDx4sUlXVwj8XIdOnRQ165dJUlly5ZVr169rLLKlSvrlVdekYeHh4oXL65nn33WKtu7d6/1ulevXtZeHMePH7fi+eyzz5Seni5Jevrpp1WsWLF8rzc7O1tfffWVdTxlyhRVrVpVkuTj46M33nhDHTp0UIcOHeTp6WntC5Jr0qRJKleunHXct29ftW7d2nq/li9f7nTcgrj+S+XuF5IrMDBQEydOtI63bt2qrKwsK+b4+HjFx8drwIABVp3cuCXpwIEDSk1NdTqWMzfS59X+zgEAAAAAgKLr2LFjCgoKUlBQkCpWrChvb2/16tVL3t7e+uyzzxQaGipJ1n2XwYMH5+nDZrOpc+fOunDhgnbu3JmnPDg42OFeRK5KlSopOTlZs2fPVk5OjnV+4MCB+uSTT1S+fHlJ0ueffy4p732uXH379lWlSpW0ZMkSh35yNW3a1LqvdKmQkBBJ+d/XAXBzseG5m3jrrbdUt25dh3O1atXKt/7ldXP/8c+Vm1T4+eefrdfSxQ+Xy124cEGSdPr0af3xxx8OZZdvCF62bFnr9eUbQF1adumYxYsX15AhQzR27FhJ0qxZs9S9e3fNnz9fkuTh4eGQOHDml19+UVpamnWcu8lWLn9/f61YscI6/umnnxzqO9tkq2XLltq0aZMkWZuyX64grv/yMS/XokUL63VmZqb27+2T+E0AAAzmSURBVN+vunXrqkGDBjp+/LgiIyM1btw4nThxQqdOnVJGRoZD+8zMTKdjOXMjfV7t7xwAAAAAACi6SpQooQ4dOkiS7Ha7qlSpouDgYHXp0sXhi6u7d++WzWZTp06dnPaTnJws6eI9mrCwMIeyOnXqOG0zZswYRUVFacCAARo1apRatmyp++67T507d1ajRo2sert27ZKXl1e+/Xh4eKhhw4Zas2aN9u/fr9q1azuUV6pUyWm7UqVKSZKSkpKclgO4uUh+uImwsDDdc889V13f09PzqupdnsxwxsvLy3p99OhRhzKbzZZvuyuVXW7QoEH/r717D82y7OMA/nts6VBma5516aspHllWFBUYSH+oHeigYMYSPKSZgoXUnIMZSfpXoUUQ6kqSisBKQ2eiRaUdMZL9UVLNQ2miTZdJbZnuef8Qn7cnp5tTW7vfzwcG9+77en73dcMuBs/3vq4rFi9eHPX19fH+++9HZWVlZqbJmDFjzggS/u7AgQOZ4/bt20fHjh3P2f6vz3355ZdnPeNpV1xxReb48OHDjda5WM/f2D1Py8vLy8xWifjfP9iNGzfGhAkTzmtmR1MupGZz/+YAAACAtqugoCBWrFhxzjbpdDpqamoiNzc366XOxjQWNJzte52hQ4fG999/Hy+88EJs2bIlNm/eHBs2bIjS0tKYPHlyvPzyy5FKpaKmpiby8/OjXbuzL4pTUFAQERE///zzGeFHS77TAf55wg/OaejQoZnjyy67LGpraxsNAi61bt26RXFxcaxcuTLS6XQUFxdnrs2cObPJz//1OY4fPx4HDx7MLKV12vr16zNvFYwePTpz/s8//4yffvop+vTpk9V+z549mePT0xovtd27d59xbv/+/ZngI+LU2w91dXVx3333RX19faRSqViyZEncf//90aNHjzh69OgZz94cl6ImAAAA8P8nlUrF4MGD45tvvokXX3wxOnTocNFqd+nSJcrLy6O8vDzq6+vjww8/jCeeeCJeeeWVGDt2bEyaNCmGDBkSVVVV8fvvv581SKmuro6IU6tgAG2TPT84p169ekX37t0j4tS+GRs2bMi6XldXFzNnzowpU6bElClTLuosg7977LHHMse1tbURcWrfjDvvvLPJz/bq1StrmaVXX3016/qhQ4di/PjxUVxcHGVlZdG7d+8oLCzMXF+1alVW+2PHjsWaNWsyv19//fXn9SwttXbt2jNmmZxe/isionv37nHllVfGZ599lllGavDgwVFSUhL9+vWL3Nzc2LdvX6O1/z4zo6amJuv3ltRsqab6AgAAALRtRUVFcfLkydi2bVuj16urq2PdunXx448/NqveiRMnorS0NCoqKjLncnNzY8yYMZmZKF9++WVEnPoeJ51OR2VlZaO19u7dG1VVVXH11Vc3ugoH0DYIPxJixowZMWrUqEZ/tm/ffkG1Fy5cmDl+5JFH4s0334za2trYt29fzJ49O5YvXx6rVq2KnTt3Nrmc1IUYNmxYjBkzJuvctGnTmr2c0oIFCzLHZWVlsXjx4vjiiy+isrIyxo0bl9m75J577omIiCVLlmTaL1y4MMrLy+Pjjz+Ot956K2699dZMCDFy5MiYNGnSBT1bcx09ejRuueWWeOmll2Ljxo1RUlISTz75ZOb6nDlzIuJ/a0xGnNrvZNOmTZlNwh5++OFGa3fv3j1rVs+cOXOioqIi3nvvvRbXbKmm+gIAAAC0bSUlJZGTkxMlJSVx7NixrGsNDQ0xY8aMuPfeexvdcLwxOTk5sWbNmnj88cfjyJEjWddOLxF+etWKsrKy6NixY8yfPz/279+f1bauri5mz54dx48fj6effrqljwf8C1j2KiGqqqrOeu30Uk4tNWvWrNi8eXOsXbs2Dh06FBMmTDijTV5eXjz33HMXdJ/mmDt3bmzatCkiTs0OmD59+nl/9t13340//vgjysrKoqysLKvN8OHDY/HixRERUVxcHB988EFUVFTEyZMnY9GiRbFo0aKs9j169IjVq1dnbdh1KY0ePTp27NgR06ZNO+PaoEGDYt68eRFx6u2J/v37x+7du6OhoSHGjh0bqVQq0ul0dO3atdHa7dq1i7vvvjveeOONiDi1DNj69etj/vz5cdttt7WoZks11RcAAACgbSsqKoqnnnoqFixYEEVFRTFlypQYNGhQ1NbWxuuvvx7btm2LRx99NPr169fsmqWlpTFt2rQYNWpUzJw5M3r27Bl79uyJZcuWRefOnTPfaQ0YMCCWLVsWs2bNimuuuSamT58ew4cPjx9++CFee+21+Prrr2Py5MkxceLES/X4wD/AzA+alEql4u23347Vq1fHwIEDszZ1ateuXYwfPz62bt0aN9xwwyXvy183Lr/99tvjqquuavZnU6lUVFZWxooVK874x5mXlxclJSXxySefZM1eWblyZaxbty5GjBiRtQlWQUFBzJo1K3bu3BkjRoy4gCc6P8OHD4/KysoYMGBA5lyHDh3iwQcfjO3bt2f63qFDh3jnnXfixhtvzLRLp9Nx3XXXxUcffXTW+s8//3zcddddWedycnIuqGZLnasvAAAAQNtXWloamzdvjvz8/Fi0aFE88MADMXv27Ni7d28sXbo0nn322fOqN3Xq1KioqIhjx47F3LlzY+LEiVFSUhK9e/eOysrK+M9//pNpO3369Pj0009jyJAhsXTp0pg8eXKUl5dHQ0NDvPrqq1nLjANtUyqdTqdbuxOc3YIFCzIzEf4tfvvtt/juu+8iLy8vCgsLL+qmVE256aab4vPPP4+IU7MB7rjjjhbX+vXXX6O6ujp69OgRvXv3brJ9fX19fPvtt9G1a9dmtb+UGhoaYteuXVFXVxdDhgw558yT/fv3x4EDB6Jbt27Nflvil19+ib1790ZeXl70798/K/Bqac2Waqovra1Lly5x5MiRGDlyZHz11Vet3R1InNMzzIBkM9YhWYxpSLZLNcbr6+tj165d0a1bt6x9W1uqpqYmDh48GH379o28vLxztj1x4kRUV1dHYWFhdOrU6YLvDRfDvHnz4plnnmntbrRpXqPmvHXq1ClGjhz5j9+3qqoqE3z07ds3xo0bd0H1OnfuHNdee22z2+fm5kZRUdEF3fNiadeuXQwcOLBZbfv06RN9+vQ5r/r5+fmRn59/UWu2VFN9AQAAANq+3NzcGDZs2EWr17Vr12Yv052TkxODBw++aPcG/h0se0WbsXz58szxQw89lLUMFQAAAAAAnGbmB23C8ePHY8uWLdGzZ89IpVIxderU1u4SAAAAAAD/UsIP2oT27dvHzp07W7sbAAAAAAC0AdYNAgAAAAAAEkX4AQAAAAAAJIrwAwAAAAAASBR7fvzLbd26NVKpVGt3A2jCjh07jFW4RIwt+P9grEOyGNOQbMY4XHo333xza3ehzUul0+l0a3eCszty5EgUFBS0djeAs9izZ080NDRE+/bto7CwsLW7A4mza9euGDBgQGt3A7jEjHVIFmMaks0Yh3/G4cOHo0uXLq3djTZN+AEAAAAAACSKPT8AAAAAAIBEEX4AAAAAAACJIvwAAAAAAAASRfgBAAAAAAAkivADAAAAAABIFOEHAAAAAACQKMIPAAAAAAAgUYQfAAAAAABAogg/AAAAAACARBF+AAAAAAAAiSL8AAAAAAAAEkX4AQAAAAAAJIrwAwAAAAAASBThBwAAAAAAkCjCDwAAAAAAIFGEHwAAAAAAQKIIPwAAAAAAgEQRfgAAAAAAAIki/AAAAAAAABJF+AEAAAAAACSK8AMAAAAAAEgU4QcAAAAAAJAowg8AAAAAACBRhB8AAAAAAECiCD8AAAAAAIBEEX4AAAAAAACJIvwAAAAAAAASRfgBAAAAAAAkivADAAAAAABIFOEHAAAAAACQKMIPAAAAAAAgUYQfAAAAAABAogg/AAAAAACARBF+AAAAAAAAiSL8AAAAAAAAEkX4AQAAAAAAJIrwAwAAAAAASBThBwAAAAAAkCjCDwAAAAAAIFGEHwAAAAAAQKIIPwAAAAAAgEQRfgAAAAAAAIki/AAAAAAAABJF+AEAAAAAACSK8AMAAAAAAEgU4QcAAAAAAJAowg8AAAAAACBRhB8AAAAAAECiCD8AAAAAAIBEEX4AAAAAAACJIvwAAAAAAAASRfgBAAAAAAAkivADAAAAAABIFOEHAAAAAACQKMIPAAAAAAAgUYQfAAAAAABAogg/AAAAAACARBF+AAAAAAAAiSL8AAAAAAAAEkX4AQAAAAAAJIrwAwAAAAAASBThBwAAAAAAkCjCDwAAAAAAIFGEHwAAAAAAQKIIPwAAAAAAgEQRfgAAAAAAAIki/AAAAAAAABJF+AEAAAAAACSK8AMAAAAAAEgU4QcAAAAAAJAowg8AAAAAACBRhB8AAAAAAECi/BfhuBKabH/qLwAAAABJRU5ErkJggg==;" vertex="1" parent="1">
          <mxGeometry x="-150" y="-50" width="1599" height="895" as="geometry" />
        </mxCell>
        <mxCell id="dS9Y3KVstCxcGpfshx9A-4" value="" style="verticalLabelPosition=bottom;verticalAlign=top;html=1;shape=mxgraph.basic.tick" vertex="1" parent="1">
          <mxGeometry x="770" y="230" width="30" height="30" as="geometry" />
        </mxCell>
        <mxCell id="dS9Y3KVstCxcGpfshx9A-5" value="" style="verticalLabelPosition=bottom;verticalAlign=top;html=1;shape=mxgraph.basic.tick" vertex="1" parent="1">
          <mxGeometry x="270" y="270" width="30" height="30" as="geometry" />
        </mxCell>
        <mxCell id="dS9Y3KVstCxcGpfshx9A-6" value="" style="verticalLabelPosition=bottom;verticalAlign=top;html=1;shape=mxgraph.basic.tick" vertex="1" parent="1">
          <mxGeometry x="760" y="300" width="30" height="30" as="geometry" />
        </mxCell>
        <mxCell id="dS9Y3KVstCxcGpfshx9A-7" value="" style="verticalLabelPosition=bottom;verticalAlign=top;html=1;shape=mxgraph.basic.tick" vertex="1" parent="1">
          <mxGeometry x="510" y="340" width="30" height="30" as="geometry" />
        </mxCell>
        <mxCell id="dS9Y3KVstCxcGpfshx9A-8" value="" style="verticalLabelPosition=bottom;verticalAlign=top;html=1;shape=mxgraph.basic.tick" vertex="1" parent="1">
          <mxGeometry x="650" y="430" width="30" height="30" as="geometry" />
        </mxCell>
      </root>
    </mxGraphModel>
  </diagram>
</mxfile>
